<svg width="342" height="56" viewBox="0 0 342 56" fill="none" xmlns="http://www.w3.org/2000/svg">
<g filter="url(#filter0_b_373_2781)">
<path d="M0 28C0 16.7643 0 11.1465 2.69649 7.11088C3.86382 5.36383 5.36383 3.86382 7.11088 2.69649C11.1465 0 16.7643 0 28 0H314C325.236 0 330.854 0 334.889 2.69649C336.636 3.86382 338.136 5.36383 339.304 7.11088C342 11.1465 342 16.7643 342 28C342 39.2357 342 44.8535 339.304 48.8891C338.136 50.6362 336.636 52.1362 334.889 53.3035C330.854 56 325.236 56 314 56H28C16.7643 56 11.1465 56 7.11088 53.3035C5.36383 52.1362 3.86382 50.6362 2.69649 48.8891C0 44.8535 0 39.2357 0 28Z" fill="#4E4E61" fill-opacity="0.75"/>
<path d="M0.5 28C0.5 22.3717 0.500604 18.1882 0.834494 14.906C1.16753 11.6322 1.82802 9.3106 3.11222 7.38866C4.24308 5.69621 5.69621 4.24308 7.38866 3.11222C9.3106 1.82802 11.6322 1.16753 14.906 0.834494C18.1882 0.500604 22.3717 0.5 28 0.5H314C319.628 0.5 323.812 0.500604 327.094 0.834494C330.368 1.16753 332.689 1.82802 334.611 3.11222C336.304 4.24308 337.757 5.69621 338.888 7.38866C340.172 9.3106 340.832 11.6322 341.165 14.906C341.499 18.1882 341.5 22.3717 341.5 28C341.5 33.6283 341.499 37.8118 341.165 41.094C340.832 44.3678 340.172 46.6894 338.888 48.6113C337.757 50.3038 336.304 51.7569 334.611 52.8878C332.689 54.172 330.368 54.8325 327.094 55.1655C323.812 55.4994 319.628 55.5 314 55.5H28C22.3717 55.5 18.1882 55.4994 14.906 55.1655C11.6322 54.8325 9.3106 54.172 7.38866 52.8878C5.69621 51.7569 4.24308 50.3038 3.11222 48.6113C1.82802 46.6894 1.16753 44.3678 0.834494 41.094C0.500604 37.8118 0.5 33.6283 0.5 28Z" stroke="url(#paint0_linear_373_2781)" stroke-opacity="0.2"/>
</g>
<defs>
<filter id="filter0_b_373_2781" x="-20" y="-20" width="382" height="96" filterUnits="userSpaceOnUse" color-interpolation-filters="sRGB">
<feFlood flood-opacity="0" result="BackgroundImageFix"/>
<feGaussianBlur in="BackgroundImageFix" stdDeviation="10"/>
<feComposite in2="SourceAlpha" operator="in" result="effect1_backgroundBlur_373_2781"/>
<feBlend mode="normal" in="SourceGraphic" in2="effect1_backgroundBlur_373_2781" result="shape"/>
</filter>
<linearGradient id="paint0_linear_373_2781" x1="0" y1="0" x2="9.17559" y2="89.9505" gradientUnits="userSpaceOnUse">
<stop stop-color="#CFCFFC"/>
<stop offset="1" stop-color="#CFCFFC" stop-opacity="0"/>
</linearGradient>
</defs>
</svg>
