<svg width="390" height="605" viewBox="0 0 390 605" fill="none" xmlns="http://www.w3.org/2000/svg">
<g filter="url(#filter0_b_2449_1873)">
<path d="M0 32C0 16.9151 0 9.37258 4.68629 4.68629C9.37258 0 16.9151 0 32 0H358C373.085 0 380.627 0 385.314 4.68629C390 9.37258 390 16.9151 390 32V573C390 588.085 390 595.627 385.314 600.314C380.627 605 373.085 605 358 605H32C16.9151 605 9.37258 605 4.68629 600.314C0 595.627 0 588.085 0 573V32Z" fill="#4E4E61" fill-opacity="0.75"/>
<path d="M0.5 32C0.5 24.4434 0.501062 18.8262 1.08133 14.5103C1.65966 10.2087 2.80508 7.27461 5.03984 5.03984C7.27461 2.80508 10.2087 1.65966 14.5103 1.08133C18.8262 0.501062 24.4434 0.5 32 0.5H358C365.557 0.5 371.174 0.501062 375.49 1.08133C379.791 1.65966 382.725 2.80508 384.96 5.03984C387.195 7.27461 388.34 10.2087 388.919 14.5103C389.499 18.8262 389.5 24.4434 389.5 32V573C389.5 580.557 389.499 586.174 388.919 590.49C388.34 594.791 387.195 597.725 384.96 599.96C382.725 602.195 379.791 603.34 375.49 603.919C371.174 604.499 365.557 604.5 358 604.5H32C24.4434 604.5 18.8262 604.499 14.5103 603.919C10.2087 603.34 7.27461 602.195 5.03984 599.96C2.80508 597.725 1.65966 594.791 1.08133 590.49C0.501062 586.174 0.5 580.557 0.5 573V32Z" stroke="url(#paint0_linear_2449_1873)" stroke-opacity="0.2"/>
</g>
<defs>
<filter id="filter0_b_2449_1873" x="-20" y="-20" width="430" height="645" filterUnits="userSpaceOnUse" color-interpolation-filters="sRGB">
<feFlood flood-opacity="0" result="BackgroundImageFix"/>
<feGaussianBlur in="BackgroundImageFix" stdDeviation="10"/>
<feComposite in2="SourceAlpha" operator="in" result="effect1_backgroundBlur_2449_1873"/>
<feBlend mode="normal" in="SourceGraphic" in2="effect1_backgroundBlur_2449_1873" result="shape"/>
</filter>
<linearGradient id="paint0_linear_2449_1873" x1="0" y1="0" x2="490.663" y2="507.719" gradientUnits="userSpaceOnUse">
<stop stop-color="#CFCFFC"/>
<stop offset="1" stop-color="#CFCFFC" stop-opacity="0"/>
</linearGradient>
</defs>
</svg>
