<?xml version="1.0" encoding="utf-8"?>
<!-- Generator: Adobe Illustrator 26.5.0, SVG Export Plug-In . SVG Version: 6.00 Build 0)  -->
<svg version="1.1" id="Layer_1" xmlns="http://www.w3.org/2000/svg" xmlns:xlink="http://www.w3.org/1999/xlink" x="0px" y="0px"
	 viewBox="0 0 25 25" style="enable-background:new 0 0 25 25;" xml:space="preserve">
<style type="text/css">
	.st0{fill:#FFFFFF;}
</style>
<g>
	<path class="st0" d="M8.44,17.4h8.11c1.14,0,2.08-0.93,2.08-2.08V7.49c0-1.14-0.93-2.08-2.08-2.08H8.44
		c-1.14,0-2.08,0.93-2.08,2.08v7.83C6.37,16.47,7.3,17.4,8.44,17.4z M7.68,7.49c0-0.42,0.34-0.76,0.76-0.76h8.11
		c0.42,0,0.76,0.34,0.76,0.76v7.83c0,0.42-0.34,0.76-0.76,0.76H8.44c-0.42,0-0.76-0.34-0.76-0.76V7.49z"/>
	<path class="st0" d="M5.32,15.71V7.11c0-0.88-0.48-1.69-1.26-2.11L2.55,4.19L1.92,5.34l1.51,0.82c0.35,0.19,0.57,0.56,0.57,0.96
		v8.59c0,0.4-0.22,0.77-0.57,0.96l-1.51,0.82l0.62,1.15l1.51-0.82C4.84,17.4,5.32,16.59,5.32,15.71z"/>
	<path class="st0" d="M20.99,15.71V7.11c0-0.4,0.22-0.77,0.57-0.96l1.51-0.82l-0.62-1.15L20.94,5c-0.78,0.42-1.26,1.23-1.26,2.11
		v8.59c0,0.88,0.48,1.69,1.26,2.11l1.51,0.82l0.62-1.15l-1.51-0.82C21.21,16.47,20.99,16.11,20.99,15.71z"/>
	<path class="st0" d="M16.33,18.6H8.67c-1.14,0-2.22,0.42-3.05,1.2L4.09,21.2l0.89,0.96l1.52-1.41c0.59-0.55,1.36-0.85,2.16-0.85
		h7.66c0.8,0,1.57,0.3,2.16,0.85l1.52,1.41l0.89-0.96l-1.52-1.41C18.55,19.02,17.47,18.6,16.33,18.6z"/>
	<rect x="7.63" y="20.92" class="st0" width="1.31" height="1.09"/>
	<rect x="9.74" y="20.92" class="st0" width="1.31" height="1.09"/>
	<rect x="11.84" y="20.92" class="st0" width="1.31" height="1.09"/>
	<rect x="13.95" y="20.92" class="st0" width="1.31" height="1.09"/>
	<rect x="16.06" y="20.92" class="st0" width="1.31" height="1.09"/>
</g>
<g>
	<path class="st0" d="M21.92,3.28c-1.04-1.04-2.43-1.61-3.91-1.61c-1.48,0-2.87,0.57-3.91,1.61l-0.46,0.46l0.55,0.55H6.76
		c-1.47,0-2.67,1.2-2.67,2.67v1.49C3.62,8.71,3.3,9.2,3.3,9.78v1.02H2.4v1.31h3.74c0.11,0,0.2,0.09,0.2,0.2v3.54
		c0,0.11-0.09,0.2-0.2,0.2H2.4v1.31h1.69v0.69c0,1.47,1.2,2.67,2.67,2.67h6.92v1.23h1.31v-1.23h3.25c1.47,0,2.67-1.2,2.67-2.67
		v-7.03l0.55,0.55l0.46-0.46c1.04-1.04,1.61-2.43,1.61-3.91C23.53,5.7,22.96,4.32,21.92,3.28z M19.6,18.04
		c0,0.75-0.61,1.36-1.36,1.36h-3.25v-0.58c0.88-0.06,1.57-0.79,1.57-1.68v-1.92h-4.46v1.92c0,0.89,0.7,1.62,1.57,1.68v0.58H6.76
		c-0.75,0-1.36-0.61-1.36-1.36v-0.69h0.74c0.67,0,1.24-0.44,1.44-1.05l2.73,0.98v-6.43l-2.73,0.98c-0.2-0.61-0.77-1.05-1.44-1.05
		H4.62V9.78c0-0.11,0.09-0.2,0.2-0.2h1.78V8.26H5.4V6.96c0-0.75,0.61-1.36,1.36-1.36h8.74l1.51,1.51c-0.1,0.13-0.16,0.29-0.16,0.47
		c0,0.42,0.34,0.77,0.77,0.77c0.18,0,0.34-0.06,0.47-0.16L19.6,9.7V18.04z M14.88,17.51h-1.09c-0.21,0-0.37-0.17-0.37-0.37v-0.6
		h1.84v0.6C15.25,17.35,15.09,17.51,14.88,17.51z M9,12.72v2.7l-1.35-0.48v-1.74L9,12.72z M21.42,9.67l-5.9-5.9
		c0.71-0.52,1.58-0.8,2.48-0.8c1.13,0,2.19,0.44,2.98,1.23c0.79,0.79,1.23,1.85,1.23,2.98C22.22,8.1,21.94,8.96,21.42,9.67z"/>
	
		<rect x="15.15" y="8.51" transform="matrix(0.7071 -0.7071 0.7071 0.7071 -1.7876 14.0165)" class="st0" width="1.75" height="1.31"/>
	<rect x="14.16" y="6.63" class="st0" width="1.75" height="1.31"/>
	<rect x="17.24" y="9.26" class="st0" width="1.31" height="1.75"/>
	<path class="st0" d="M14.88,10.78h-1.09c-0.93,0-1.69,0.76-1.69,1.69v2.24h1.31v-2.24c0-0.21,0.17-0.37,0.37-0.37h1.09
		c0.21,0,0.37,0.17,0.37,0.37v2.24h1.31v-2.24C16.57,11.54,15.81,10.78,14.88,10.78z"/>
</g>
<g>
	<path class="st0" d="M6.06,7.79v0.9h1.31v-0.9c0-0.12,0.1-0.22,0.22-0.22h1.2V6.26h-1.2C6.75,6.26,6.06,6.95,6.06,7.79z"/>
	<path class="st0" d="M7.37,17.21v-1.2H6.06v1.2c0,0.85,0.69,1.54,1.54,1.54h0.9v-1.31h-0.9C7.47,17.43,7.37,17.33,7.37,17.21z"/>
	<path class="st0" d="M18.94,17.21v-0.9h-1.31v0.9c0,0.12-0.1,0.22-0.22,0.22h-1.2v1.31h1.2C18.25,18.74,18.94,18.05,18.94,17.21z"
		/>
	<path class="st0" d="M22.35,4.35L21.5,3.5c-0.7-0.7-1.83-0.69-2.52,0l-0.84,0.84c-0.18-0.03-0.36-0.05-0.54-0.05H7.39
		c-1.82,0-3.3,1.48-3.3,3.3v9.82c0,1.82,1.48,3.3,3.3,3.3h10.22c1.82,0,3.3-1.48,3.3-3.3V8.32l1.45-1.44
		C23.05,6.18,23.05,5.05,22.35,4.35z M16.12,11.25L14.6,9.74l3.61-3.61l1.52,1.52L16.12,11.25z M15.19,12.18l-0.24,0.24
		c-0.12,0.12-0.28,0.21-0.45,0.26l-1.81,0.49l0.49-1.81c0.05-0.17,0.14-0.33,0.26-0.45l0.24-0.24L15.19,12.18z M19.6,17.41
		c0,1.1-0.89,1.99-1.99,1.99H7.39c-1.1,0-1.99-0.89-1.99-1.99V7.59c0-1.1,0.89-1.99,1.99-1.99h9.49L12.5,9.98
		c-0.29,0.29-0.49,0.65-0.6,1.04l-0.73,2.74l-0.31,0.31c-0.26,0.26-0.26,0.67,0,0.93c0.13,0.13,0.3,0.19,0.46,0.19
		s0.34-0.06,0.46-0.19l0.31-0.31l2.74-0.73c0.39-0.1,0.75-0.31,1.04-0.6l3.72-3.72V17.41z M21.43,5.95l-0.78,0.78L19.13,5.2
		l0.78-0.78c0.09-0.09,0.21-0.14,0.33-0.14c0.12,0,0.24,0.05,0.33,0.14l0.85,0.85C21.61,5.46,21.61,5.76,21.43,5.95z"/>
</g>
<g>
	<path class="st0" d="M20.25,11.3c-0.36,0-0.66,0.29-0.66,0.66v3.17c0,0.36,0.29,0.66,0.66,0.66s0.66-0.29,0.66-0.66v-3.17
		C20.91,11.6,20.62,11.3,20.25,11.3z"/>
	<path class="st0" d="M20.25,8.86c-0.47,0-0.86,0.38-0.86,0.86c0,0.47,0.38,0.86,0.86,0.86c0.47,0,0.86-0.38,0.86-0.86
		C21.11,9.25,20.73,8.86,20.25,8.86z"/>
	<path class="st0" d="M20.25,16.75c-0.36,0-0.66,0.29-0.66,0.66c0,1.1-0.89,1.99-1.99,1.99H8.25c-1.57,0-2.85-1.28-2.85-2.85V8.32
		c0-0.27,0.04-0.54,0.12-0.79c0.06,0.01,0.13,0.01,0.19,0.01c0.9,0,1.62-0.73,1.62-1.62S6.61,4.29,5.71,4.29
		c-0.9,0-1.62,0.73-1.62,1.62c0,0.34,0.11,0.66,0.28,0.92C4.19,7.3,4.09,7.81,4.09,8.32v8.23c0,2.3,1.87,4.16,4.16,4.16h9.35
		c1.82,0,3.3-1.48,3.3-3.3C20.91,17.05,20.62,16.75,20.25,16.75z"/>
	<path class="st0" d="M8.75,16.44c0.9,0,1.62-0.73,1.62-1.62c0-0.66-0.4-1.23-0.97-1.48V8.32c0-1.5,1.22-2.72,2.72-2.72h5.49
		c1.1,0,1.99,0.89,1.99,1.99c0,0.36,0.29,0.66,0.66,0.66s0.66-0.29,0.66-0.66c0-1.82-1.48-3.3-3.3-3.3h-5.49
		c-2.22,0-4.03,1.81-4.03,4.03v5.02c-0.57,0.25-0.97,0.82-0.97,1.48C7.12,15.71,7.85,16.44,8.75,16.44z"/>
	<path class="st0" d="M17.23,13.67l-1.79-4.51c-0.1-0.25-0.34-0.41-0.61-0.41c-0.27,0-0.51,0.16-0.61,0.41l-2.53,6.38
		c-0.13,0.34,0.03,0.72,0.37,0.85c0.08,0.03,0.16,0.05,0.24,0.05c0.26,0,0.51-0.16,0.61-0.41l0.57-1.44h2.7l0.57,1.44
		c0.13,0.34,0.51,0.5,0.85,0.37c0.34-0.13,0.5-0.51,0.37-0.85L17.23,13.67C17.23,13.67,17.23,13.67,17.23,13.67z M14,13.27
		l0.83-2.09l0.83,2.09H14z"/>
</g>
</svg>
