<?xml version="1.0" encoding="utf-8"?>
<!-- Generator: Adobe Illustrator 26.5.0, SVG Export Plug-In . SVG Version: 6.00 Build 0)  -->
<svg version="1.1" id="Layer_1" xmlns="http://www.w3.org/2000/svg" xmlns:xlink="http://www.w3.org/1999/xlink" x="0px" y="0px"
	 viewBox="0 0 25 25" style="enable-background:new 0 0 25 25;" xml:space="preserve">
<style type="text/css">
	.st0{fill:#FFFFFF;}
</style>
<g>
	<path class="st0" d="M16.42,5.52l-0.83-1.01L12.5,7.05L9.42,4.51L8.58,5.52l3.19,2.63H6.38c-1.41,0-2.56,1.15-2.56,2.56v7.86
		c0,1.41,1.15,2.56,2.56,2.56h10.28V8.15h-3.44L16.42,5.52z M15.35,9.46v10.35H6.38c-0.69,0-1.25-0.56-1.25-1.25v-7.86
		c0-0.69,0.56-1.25,1.25-1.25H15.35z"/>
	<path class="st0" d="M18.62,8.15h-1.1v1.31h1.1c0.69,0,1.25,0.56,1.25,1.25v7.86c0,0.69-0.56,1.25-1.25,1.25h-1.1v1.31h1.1
		c1.41,0,2.56-1.15,2.56-2.56v-7.86C21.17,9.3,20.03,8.15,18.62,8.15z"/>
	<path class="st0" d="M18.28,12.18c0.42,0,0.77-0.34,0.77-0.77c0-0.42-0.34-0.77-0.77-0.77c-0.42,0-0.77,0.34-0.77,0.77
		C17.52,11.83,17.86,12.18,18.28,12.18z"/>
	<path class="st0" d="M18.28,14.33c0.42,0,0.77-0.34,0.77-0.77c0-0.42-0.34-0.77-0.77-0.77c-0.42,0-0.77,0.34-0.77,0.77
		C17.52,13.98,17.86,14.33,18.28,14.33z"/>
	<path class="st0" d="M18.28,16.47c0.42,0,0.77-0.34,0.77-0.77c0-0.42-0.34-0.77-0.77-0.77c-0.42,0-0.77,0.34-0.77,0.77
		C17.52,16.13,17.86,16.47,18.28,16.47z"/>
	<path class="st0" d="M18.28,18.62c0.42,0,0.77-0.34,0.77-0.77c0-0.42-0.34-0.77-0.77-0.77c-0.42,0-0.77,0.34-0.77,0.77
		C17.52,18.28,17.86,18.62,18.28,18.62z"/>
</g>
</svg>
