<?xml version="1.0" encoding="utf-8"?>
<!-- Generator: Adobe Illustrator 26.5.0, SVG Export Plug-In . SVG Version: 6.00 Build 0)  -->
<svg version="1.1" id="Layer_1" xmlns="http://www.w3.org/2000/svg" xmlns:xlink="http://www.w3.org/1999/xlink" x="0px" y="0px"
	 viewBox="0 0 25 25" style="enable-background:new 0 0 25 25;" xml:space="preserve">
<style type="text/css">
	.st0{fill:#FFFFFF;}
</style>
<g>
	<path class="st0" d="M8.44,17.4h8.11c1.14,0,2.08-0.93,2.08-2.08V7.49c0-1.14-0.93-2.08-2.08-2.08H8.44
		c-1.14,0-2.08,0.93-2.08,2.08v7.83C6.37,16.47,7.3,17.4,8.44,17.4z M7.68,7.49c0-0.42,0.34-0.76,0.76-0.76h8.11
		c0.42,0,0.76,0.34,0.76,0.76v7.83c0,0.42-0.34,0.76-0.76,0.76H8.44c-0.42,0-0.76-0.34-0.76-0.76V7.49z"/>
	<path class="st0" d="M5.32,15.71V7.11c0-0.88-0.48-1.69-1.26-2.11L2.55,4.19L1.92,5.34l1.51,0.82c0.35,0.19,0.57,0.56,0.57,0.96
		v8.59c0,0.4-0.22,0.77-0.57,0.96l-1.51,0.82l0.62,1.15l1.51-0.82C4.84,17.4,5.32,16.59,5.32,15.71z"/>
	<path class="st0" d="M20.99,15.71V7.11c0-0.4,0.22-0.77,0.57-0.96l1.51-0.82l-0.62-1.15L20.94,5c-0.78,0.42-1.26,1.23-1.26,2.11
		v8.59c0,0.88,0.48,1.69,1.26,2.11l1.51,0.82l0.62-1.15l-1.51-0.82C21.21,16.47,20.99,16.11,20.99,15.71z"/>
	<path class="st0" d="M16.33,18.6H8.67c-1.14,0-2.22,0.42-3.05,1.2L4.09,21.2l0.89,0.96l1.52-1.41c0.59-0.55,1.36-0.85,2.16-0.85
		h7.66c0.8,0,1.57,0.3,2.16,0.85l1.52,1.41l0.89-0.96l-1.52-1.41C18.55,19.02,17.47,18.6,16.33,18.6z"/>
	<rect x="7.63" y="20.92" class="st0" width="1.31" height="1.09"/>
	<rect x="9.74" y="20.92" class="st0" width="1.31" height="1.09"/>
	<rect x="11.84" y="20.92" class="st0" width="1.31" height="1.09"/>
	<rect x="13.95" y="20.92" class="st0" width="1.31" height="1.09"/>
	<rect x="16.06" y="20.92" class="st0" width="1.31" height="1.09"/>
</g>
</svg>
