<?xml version="1.0" encoding="utf-8"?>
<!-- Generator: Adobe Illustrator 26.5.0, SVG Export Plug-In . SVG Version: 6.00 Build 0)  -->
<svg version="1.1" id="Layer_1" xmlns="http://www.w3.org/2000/svg" xmlns:xlink="http://www.w3.org/1999/xlink" x="0px" y="0px"
	 viewBox="0 0 25 25" style="enable-background:new 0 0 25 25;" xml:space="preserve">
<style type="text/css">
	.st0{fill:#FFFFFF;}
</style>
<g>
	<path class="st0" d="M12.5,3.9l-7.8,6.43l0,8.23c0,1.41,1.15,2.56,2.56,2.56h10.48c1.41,0,2.56-1.15,2.56-2.56v-8.23L12.5,3.9z
		 M18.99,18.56c0,0.69-0.56,1.25-1.25,1.25H7.26c-0.69,0-1.25-0.56-1.25-1.25l0-7.61L12.5,5.6l6.49,5.35V18.56z"/>
	<polygon class="st0" points="8.67,16.97 12.22,14.92 8.67,12.87 	"/>
	<rect x="13.36" y="12.79" class="st0" width="1.31" height="4.25"/>
	<rect x="15.68" y="12.79" class="st0" width="1.31" height="4.25"/>
</g>
</svg>
