<?xml version="1.0" encoding="utf-8"?>
<!-- Generator: Adobe Illustrator 26.5.0, SVG Export Plug-In . SVG Version: 6.00 Build 0)  -->
<svg version="1.1" id="Layer_1" xmlns="http://www.w3.org/2000/svg" xmlns:xlink="http://www.w3.org/1999/xlink" x="0px" y="0px"
	 viewBox="0 0 25 25" style="enable-background:new 0 0 25 25;" xml:space="preserve">
<style type="text/css">
	.st0{fill:#FFFFFF;}
</style>
<g>
	<path class="st0" d="M8.44,17.4h8.11c1.14,0,2.08-0.93,2.08-2.08V7.49c0-1.14-0.93-2.08-2.08-2.08H8.44
		c-1.14,0-2.08,0.93-2.08,2.08v7.83C6.37,16.47,7.3,17.4,8.44,17.4z M7.68,7.49c0-0.42,0.34-0.76,0.76-0.76h8.11
		c0.42,0,0.76,0.34,0.76,0.76v7.83c0,0.42-0.34,0.76-0.76,0.76H8.44c-0.42,0-0.76-0.34-0.76-0.76V7.49z"/>
	<path class="st0" d="M5.32,15.71V7.11c0-0.88-0.48-1.69-1.26-2.11L2.55,4.19L1.92,5.34l1.51,0.82c0.35,0.19,0.57,0.56,0.57,0.96
		v8.59c0,0.4-0.22,0.77-0.57,0.96l-1.51,0.82l0.62,1.15l1.51-0.82C4.84,17.4,5.32,16.59,5.32,15.71z"/>
	<path class="st0" d="M20.99,15.71V7.11c0-0.4,0.22-0.77,0.57-0.96l1.51-0.82l-0.62-1.15L20.94,5c-0.78,0.42-1.26,1.23-1.26,2.11
		v8.59c0,0.88,0.48,1.69,1.26,2.11l1.51,0.82l0.62-1.15l-1.51-0.82C21.21,16.47,20.99,16.11,20.99,15.71z"/>
	<path class="st0" d="M16.33,18.6H8.67c-1.14,0-2.22,0.42-3.05,1.2L4.09,21.2l0.89,0.96l1.52-1.41c0.59-0.55,1.36-0.85,2.16-0.85
		h7.66c0.8,0,1.57,0.3,2.16,0.85l1.52,1.41l0.89-0.96l-1.52-1.41C18.55,19.02,17.47,18.6,16.33,18.6z"/>
	<rect x="7.63" y="20.92" class="st0" width="1.31" height="1.09"/>
	<rect x="9.74" y="20.92" class="st0" width="1.31" height="1.09"/>
	<rect x="11.84" y="20.92" class="st0" width="1.31" height="1.09"/>
	<rect x="13.95" y="20.92" class="st0" width="1.31" height="1.09"/>
	<rect x="16.06" y="20.92" class="st0" width="1.31" height="1.09"/>
</g>
<g>
	<path class="st0" d="M21.92,3.28c-1.04-1.04-2.43-1.61-3.91-1.61c-1.48,0-2.87,0.57-3.91,1.61l-0.46,0.46l0.55,0.55H6.76
		c-1.47,0-2.67,1.2-2.67,2.67v1.49C3.62,8.71,3.3,9.2,3.3,9.78v1.02H2.4v1.31h3.74c0.11,0,0.2,0.09,0.2,0.2v3.54
		c0,0.11-0.09,0.2-0.2,0.2H2.4v1.31h1.69v0.69c0,1.47,1.2,2.67,2.67,2.67h6.92v1.23h1.31v-1.23h3.25c1.47,0,2.67-1.2,2.67-2.67
		v-7.03l0.55,0.55l0.46-0.46c1.04-1.04,1.61-2.43,1.61-3.91C23.53,5.7,22.96,4.32,21.92,3.28z M19.6,18.04
		c0,0.75-0.61,1.36-1.36,1.36h-3.25v-0.58c0.88-0.06,1.57-0.79,1.57-1.68v-1.92h-4.46v1.92c0,0.89,0.7,1.62,1.57,1.68v0.58H6.76
		c-0.75,0-1.36-0.61-1.36-1.36v-0.69h0.74c0.67,0,1.24-0.44,1.44-1.05l2.73,0.98v-6.43l-2.73,0.98c-0.2-0.61-0.77-1.05-1.44-1.05
		H4.62V9.78c0-0.11,0.09-0.2,0.2-0.2h1.78V8.26H5.4V6.96c0-0.75,0.61-1.36,1.36-1.36h8.74l1.51,1.51c-0.1,0.13-0.16,0.29-0.16,0.47
		c0,0.42,0.34,0.77,0.77,0.77c0.18,0,0.34-0.06,0.47-0.16L19.6,9.7V18.04z M14.88,17.51h-1.09c-0.21,0-0.37-0.17-0.37-0.37v-0.6
		h1.84v0.6C15.25,17.35,15.09,17.51,14.88,17.51z M9,12.72v2.7l-1.35-0.48v-1.74L9,12.72z M21.42,9.67l-5.9-5.9
		c0.71-0.52,1.58-0.8,2.48-0.8c1.13,0,2.19,0.44,2.98,1.23c0.79,0.79,1.23,1.85,1.23,2.98C22.22,8.1,21.94,8.96,21.42,9.67z"/>
	
		<rect x="15.15" y="8.51" transform="matrix(0.7071 -0.7071 0.7071 0.7071 -1.7876 14.0165)" class="st0" width="1.75" height="1.31"/>
	<rect x="14.16" y="6.63" class="st0" width="1.75" height="1.31"/>
	<rect x="17.24" y="9.26" class="st0" width="1.31" height="1.75"/>
	<path class="st0" d="M14.88,10.78h-1.09c-0.93,0-1.69,0.76-1.69,1.69v2.24h1.31v-2.24c0-0.21,0.17-0.37,0.37-0.37h1.09
		c0.21,0,0.37,0.17,0.37,0.37v2.24h1.31v-2.24C16.57,11.54,15.81,10.78,14.88,10.78z"/>
</g>
</svg>
