<?xml version="1.0" encoding="utf-8"?>
<!-- Generator: Adobe Illustrator 26.5.0, SVG Export Plug-In . SVG Version: 6.00 Build 0)  -->
<svg version="1.1" id="Layer_1" xmlns="http://www.w3.org/2000/svg" xmlns:xlink="http://www.w3.org/1999/xlink" x="0px" y="0px"
	 viewBox="0 0 25 25" style="enable-background:new 0 0 25 25;" xml:space="preserve">
<style type="text/css">
	.st0{fill:#FFFFFF;}
</style>
<g>
	<path class="st0" d="M20.2,11.3c-0.4,0-0.7,0.3-0.7,0.7v3.2c0,0.4,0.3,0.7,0.7,0.7s0.7-0.3,0.7-0.7V12
		C20.9,11.6,20.6,11.3,20.2,11.3z"/>
	<path class="st0" d="M20.2,8.9c-0.5,0-0.9,0.4-0.9,0.9c0,0.5,0.4,0.9,0.9,0.9c0.5,0,0.9-0.4,0.9-0.9C21.1,9.2,20.7,8.9,20.2,8.9z"
		/>
	<path class="st0" d="M20.2,16.8c-0.4,0-0.7,0.3-0.7,0.7c0,1.1-0.9,2-2,2H8.2c-1.6,0-2.8-1.3-2.8-2.9V8.3c0-0.3,0-0.5,0.1-0.8
		c0.1,0,0.1,0,0.2,0c0.9,0,1.6-0.7,1.6-1.6S6.6,4.3,5.7,4.3S4.1,5,4.1,5.9c0,0.3,0.1,0.7,0.3,0.9c-0.2,0.5-0.3,1-0.3,1.5v8.2
		c0,2.3,1.9,4.2,4.2,4.2h9.4c1.8,0,3.3-1.5,3.3-3.3C20.9,17,20.6,16.8,20.2,16.8z"/>
	<path class="st0" d="M8.8,16.4c0.9,0,1.6-0.7,1.6-1.6c0-0.7-0.4-1.2-1-1.5v-5c0-1.5,1.2-2.7,2.7-2.7h5.5c1.1,0,2,0.9,2,2
		c0,0.4,0.3,0.7,0.7,0.7s0.7-0.3,0.7-0.7c0-1.8-1.5-3.3-3.3-3.3h-5.5c-2.2,0-4,1.8-4,4v5c-0.6,0.2-1,0.8-1,1.5
		C7.1,15.7,7.8,16.4,8.8,16.4z"/>
	<path class="st0" d="M17.2,13.7l-1.8-4.5c-0.1-0.2-0.3-0.4-0.6-0.4c-0.3,0-0.5,0.2-0.6,0.4l-2.5,6.4c-0.1,0.3,0,0.7,0.4,0.8
		c0.1,0,0.2,0,0.2,0c0.3,0,0.5-0.2,0.6-0.4l0.6-1.4h2.7l0.6,1.4c0.1,0.3,0.5,0.5,0.9,0.4s0.5-0.5,0.4-0.9L17.2,13.7L17.2,13.7z
		 M14,13.3l0.8-2.1l0.8,2.1H14z"/>
</g>
</svg>
