<?xml version="1.0" encoding="utf-8"?>
<!-- Generator: Adobe Illustrator 26.5.0, SVG Export Plug-In . SVG Version: 6.00 Build 0)  -->
<svg version="1.1" id="Layer_1" xmlns="http://www.w3.org/2000/svg" xmlns:xlink="http://www.w3.org/1999/xlink" x="0px" y="0px"
	 viewBox="0 0 25 25" style="enable-background:new 0 0 25 25;" xml:space="preserve">
<style type="text/css">
	.st0{fill:#FFFFFF;}
</style>
<g>
	<path class="st0" d="M6.1,7.8v0.9h1.3V7.8c0-0.1,0.1-0.2,0.2-0.2h1.2V6.3H7.6C6.8,6.3,6.1,6.9,6.1,7.8z"/>
	<path class="st0" d="M7.4,17.2V16H6.1v1.2c0,0.9,0.7,1.5,1.5,1.5h0.9v-1.3H7.6C7.5,17.4,7.4,17.3,7.4,17.2z"/>
	<path class="st0" d="M18.9,17.2v-0.9h-1.3v0.9c0,0.1-0.1,0.2-0.2,0.2h-1.2v1.3h1.2C18.2,18.7,18.9,18,18.9,17.2z"/>
	<path class="st0" d="M22.4,4.3l-0.9-0.8c-0.7-0.7-1.8-0.7-2.5,0l-0.8,0.8c-0.2,0-0.4-0.1-0.5-0.1H7.4c-1.8,0-3.3,1.5-3.3,3.3v9.8
		c0,1.8,1.5,3.3,3.3,3.3h10.2c1.8,0,3.3-1.5,3.3-3.3V8.3l1.5-1.4C23,6.2,23,5.1,22.4,4.3z M16.1,11.2l-1.5-1.5l3.6-3.6l1.5,1.5
		L16.1,11.2z M15.2,12.2l-0.2,0.2c-0.1,0.1-0.3,0.2-0.4,0.3l-1.8,0.5l0.5-1.8c0.1-0.2,0.1-0.3,0.3-0.4l0.2-0.2L15.2,12.2z
		 M19.6,17.4c0,1.1-0.9,2-2,2H7.4c-1.1,0-2-0.9-2-2V7.6c0-1.1,0.9-2,2-2h9.5L12.5,10c-0.3,0.3-0.5,0.6-0.6,1l-0.7,2.7l-0.3,0.3
		c-0.3,0.3-0.3,0.7,0,0.9c0.1,0.1,0.3,0.2,0.5,0.2s0.3-0.1,0.5-0.2l0.3-0.3l2.7-0.7c0.4-0.1,0.8-0.3,1-0.6l3.7-3.7L19.6,17.4
		L19.6,17.4z M21.4,5.9l-0.8,0.8l-1.5-1.5l0.8-0.8c0.1-0.1,0.2-0.1,0.3-0.1s0.2,0.1,0.3,0.1l0.9,0.8C21.6,5.5,21.6,5.8,21.4,5.9z"/>
</g>
</svg>
