<svg width="20" height="18" viewBox="0 0 20 18" fill="none" xmlns="http://www.w3.org/2000/svg">
<path d="M11.9238 0.0106347C11.8078 -0.00439746 11.688 -0.00355847 11.5693 0.0135644C11.3321 0.0478099 11.0993 0.148522 10.9092 0.321182C10.9062 0.323763 10.9033 0.326367 10.9004 0.328994L6.66992 4.29188C6.53059 4.42245 6.34794 4.49501 6.15723 4.49501H2.25C1.01625 4.49501 0 5.51126 0 6.74501V11.245C0 12.4788 1.01625 13.495 2.25 13.495H6.15723C6.34794 13.495 6.53059 13.5676 6.66992 13.6981L10.9004 17.661C10.9033 17.6637 10.9062 17.6663 10.9092 17.6688C11.2894 18.0142 11.8413 18.071 12.2559 17.8876C12.6704 17.7041 13 17.2577 13 16.744V1.24599C13 0.732327 12.6705 0.285876 12.2559 0.102432C12.1522 0.0565704 12.0399 0.0256669 11.9238 0.0106347ZM11.5 1.82216V16.1679L7.69531 12.6034C7.27865 12.213 6.72852 11.995 6.15723 11.995H2.25C1.82675 11.995 1.5 11.6683 1.5 11.245V6.74501C1.5 6.32176 1.82675 5.99501 2.25 5.99501H6.15723C6.72852 5.99501 7.27865 5.77705 7.69531 5.38661L11.5 1.82216ZM17.624 2.78114C17.4876 2.78028 17.3535 2.81666 17.2362 2.88635C17.1188 2.95605 17.0228 3.05643 16.9583 3.17668C16.8938 3.29693 16.8633 3.43249 16.8701 3.56878C16.877 3.70506 16.9209 3.83689 16.9971 3.95009C17.9457 5.40282 18.5 7.13009 18.5 8.99501C18.5 10.8599 17.9457 12.5872 16.9971 14.0399C16.9398 14.1223 16.8996 14.2154 16.8789 14.3136C16.8583 14.4118 16.8575 14.5132 16.8767 14.6117C16.8959 14.7102 16.9347 14.8038 16.9908 14.8871C17.0468 14.9703 17.119 15.0415 17.2031 15.0963C17.2871 15.1512 17.3813 15.1886 17.4801 15.2063C17.5789 15.2241 17.6802 15.2219 17.7781 15.1998C17.876 15.1777 17.9685 15.1361 18.05 15.0777C18.1316 15.0192 18.2006 14.9449 18.2529 14.8593C19.3533 13.174 20 11.1581 20 8.99501C20 6.83193 19.3533 4.81602 18.2529 3.13075C18.1858 3.02444 18.093 2.9367 17.9831 2.87561C17.8732 2.81452 17.7498 2.78204 17.624 2.78114ZM15.5059 5.12392C15.3758 5.12215 15.2475 5.15423 15.1336 5.21701C15.0197 5.27979 14.9241 5.37111 14.8561 5.48201C14.7881 5.59292 14.7502 5.71958 14.746 5.84959C14.7417 5.97959 14.7714 6.10845 14.832 6.22353C15.2573 7.05886 15.5 7.99622 15.5 8.99501C15.5 9.9938 15.2573 10.9312 14.832 11.7665C14.7835 11.8546 14.7531 11.9515 14.7428 12.0515C14.7324 12.1516 14.7423 12.2527 14.7718 12.3488C14.8013 12.4449 14.8498 12.5342 14.9145 12.6112C14.9792 12.6882 15.0587 12.7514 15.1483 12.7971C15.2379 12.8427 15.3358 12.8699 15.4361 12.8769C15.5365 12.884 15.6372 12.8708 15.7323 12.8382C15.8274 12.8055 15.915 12.7541 15.9899 12.6869C16.0647 12.6198 16.1253 12.5382 16.168 12.4472C16.6947 11.4125 17 10.2382 17 8.99501C17 7.7518 16.6947 6.57753 16.168 5.54286C16.1069 5.41879 16.0128 5.314 15.896 5.24006C15.7791 5.16613 15.6441 5.12594 15.5059 5.12392Z" fill="#CCCCFF"/>
</svg>
