<svg width="18" height="14" viewBox="0 0 18 14" fill="none" xmlns="http://www.w3.org/2000/svg">
<path d="M15.4305 0.488125C15.7018 0.187705 16.0709 0.0128826 16.4597 0.000669149C16.7611 -0.00868597 17.058 0.0802368 17.3117 0.255801C17.5654 0.431366 17.764 0.685393 17.8815 0.984636C17.9991 1.28388 18.03 1.6144 17.9704 1.93294C17.9108 2.25148 17.7634 2.5432 17.5474 2.76992L7.56723 13.5276C7.28647 13.8301 6.90575 14 6.50879 14C6.11182 14 5.7311 13.8301 5.45034 13.5276L0.460255 8.14874C0.316584 8.00005 0.201881 7.82195 0.122864 7.62488C0.0438464 7.42781 0.00210208 7.21573 7.73662e-05 7.00105C-0.00194735 6.78637 0.0357877 6.57341 0.111072 6.37465C0.186356 6.17589 0.297676 5.99532 0.438513 5.84351C0.57935 5.6917 0.746872 5.57171 0.931269 5.49056C1.11567 5.40941 1.31323 5.36874 1.5124 5.37092C1.71156 5.3731 1.90832 5.4181 2.09114 5.50327C2.27397 5.58844 2.4392 5.71208 2.57714 5.86694L6.50879 10.1049L15.4305 0.488125Z" fill="white"/>
</svg>
