<svg width="20" height="20" viewBox="0 0 20 20" fill="none" xmlns="http://www.w3.org/2000/svg">
<path d="M3.05556 0C1.3779 0 0 1.3779 0 3.05556V16.9444C0 18.6221 1.3779 20 3.05556 20H16.9444C18.6221 20 20 18.6221 20 16.9444V3.05556C20 1.3779 18.6221 0 16.9444 0H3.05556ZM3.05556 1.66667H16.9444C17.7212 1.66667 18.3333 2.27876 18.3333 3.05556V16.9444C18.3333 17.7212 17.7212 18.3333 16.9444 18.3333H3.05556C2.27876 18.3333 1.66667 17.7212 1.66667 16.9444V3.05556C1.66667 2.27876 2.27876 1.66667 3.05556 1.66667ZM4.72222 3.33333C4.6118 3.33177 4.50216 3.35217 4.39969 3.39335C4.29721 3.43453 4.20395 3.49566 4.1253 3.5732C4.04666 3.65074 3.98422 3.74313 3.94159 3.84501C3.89897 3.94689 3.87702 4.05623 3.87702 4.16667C3.87702 4.2771 3.89897 4.38644 3.94159 4.48832C3.98422 4.5902 4.04666 4.6826 4.1253 4.76013C4.20395 4.83767 4.29721 4.8988 4.39969 4.93998C4.50216 4.98116 4.6118 5.00156 4.72222 5H15.2778C15.3882 5.00156 15.4978 4.98116 15.6003 4.93998C15.7028 4.8988 15.7961 4.83767 15.8747 4.76013C15.9533 4.6826 16.0158 4.5902 16.0584 4.48832C16.101 4.38644 16.123 4.2771 16.123 4.16667C16.123 4.05623 16.101 3.94689 16.0584 3.84501C16.0158 3.74313 15.9533 3.65074 15.8747 3.5732C15.7961 3.49566 15.7028 3.43453 15.6003 3.39335C15.4978 3.35217 15.3882 3.33177 15.2778 3.33333H4.72222ZM4.72222 7.22222C4.6118 7.22066 4.50216 7.24106 4.39969 7.28224C4.29721 7.32342 4.20395 7.38455 4.1253 7.46209C4.04666 7.53963 3.98422 7.63202 3.94159 7.7339C3.89897 7.83578 3.87702 7.94512 3.87702 8.05556C3.87702 8.16599 3.89897 8.27533 3.94159 8.37721C3.98422 8.47909 4.04666 8.57148 4.1253 8.64902C4.20395 8.72656 4.29721 8.78769 4.39969 8.82887C4.50216 8.87005 4.6118 8.89045 4.72222 8.88889H11.9444C12.0549 8.89045 12.1645 8.87005 12.267 8.82887C12.3695 8.78769 12.4627 8.72656 12.5414 8.64902C12.62 8.57148 12.6825 8.47909 12.7251 8.37721C12.7677 8.27533 12.7896 8.16599 12.7896 8.05556C12.7896 7.94512 12.7677 7.83578 12.7251 7.7339C12.6825 7.63202 12.62 7.53963 12.5414 7.46209C12.4627 7.38455 12.3695 7.32342 12.267 7.28224C12.1645 7.24106 12.0549 7.22066 11.9444 7.22222H4.72222ZM4.72222 11.1111C4.6118 11.1095 4.50216 11.13 4.39969 11.1711C4.29721 11.2123 4.20395 11.2734 4.1253 11.351C4.04666 11.4285 3.98422 11.5209 3.94159 11.6228C3.89897 11.7247 3.87702 11.834 3.87702 11.9444C3.87702 12.0549 3.89897 12.1642 3.94159 12.2661C3.98422 12.368 4.04666 12.4604 4.1253 12.5379C4.20395 12.6154 4.29721 12.6766 4.39969 12.7178C4.50216 12.7589 4.6118 12.7793 4.72222 12.7778H15.2778C15.3882 12.7793 15.4978 12.7589 15.6003 12.7178C15.7028 12.6766 15.7961 12.6154 15.8747 12.5379C15.9533 12.4604 16.0158 12.368 16.0584 12.2661C16.101 12.1642 16.123 12.0549 16.123 11.9444C16.123 11.834 16.101 11.7247 16.0584 11.6228C16.0158 11.5209 15.9533 11.4285 15.8747 11.351C15.7961 11.2734 15.7028 11.2123 15.6003 11.1711C15.4978 11.13 15.3882 11.1095 15.2778 11.1111H4.72222ZM4.72222 15C4.6118 14.9984 4.50216 15.0188 4.39969 15.06C4.29721 15.1012 4.20395 15.1623 4.1253 15.2399C4.04666 15.3174 3.98422 15.4098 3.94159 15.5117C3.89897 15.6136 3.87702 15.7229 3.87702 15.8333C3.87702 15.9438 3.89897 16.0531 3.94159 16.155C3.98422 16.2569 4.04666 16.3493 4.1253 16.4268C4.20395 16.5043 4.29721 16.5655 4.39969 16.6066C4.50216 16.6478 4.6118 16.6682 4.72222 16.6667H11.9444C12.0549 16.6682 12.1645 16.6478 12.267 16.6066C12.3695 16.5655 12.4627 16.5043 12.5414 16.4268C12.62 16.3493 12.6825 16.2569 12.7251 16.155C12.7677 16.0531 12.7896 15.9438 12.7896 15.8333C12.7896 15.7229 12.7677 15.6136 12.7251 15.5117C12.6825 15.4098 12.62 15.3174 12.5414 15.2399C12.4627 15.1623 12.3695 15.1012 12.267 15.06C12.1645 15.0188 12.0549 14.9984 11.9444 15H4.72222Z" fill="#D9D9FF"/>
</svg>
