<svg width="15" height="16" viewBox="0 0 15 16" fill="none" xmlns="http://www.w3.org/2000/svg">
<path d="M11.9713 8.45018C11.9637 7.15472 12.5507 6.17837 13.736 5.45846C13.0731 4.5087 12.0701 3.98634 10.7481 3.88566C9.49628 3.78689 8.12673 4.61507 7.62526 4.61507C7.0953 4.61507 5.88341 3.91985 4.92986 3.91985C2.96197 3.95025 0.870605 5.48885 0.870605 8.61924C0.870605 9.5443 1.03966 10.4998 1.37777 11.4837C1.82986 12.7792 3.45964 15.9532 5.1597 15.902C6.04867 15.8811 6.67741 15.2713 7.83421 15.2713C8.95682 15.2713 9.53807 15.902 10.5296 15.902C12.2449 15.8773 13.7189 12.9919 14.1482 11.6926C11.8479 10.608 11.9713 8.51667 11.9713 8.45018ZM9.97496 2.65668C10.938 1.51317 10.8506 0.472243 10.8221 0.0980396C9.97116 0.147427 8.98721 0.67739 8.42686 1.32892C7.80951 2.02794 7.44671 2.89222 7.52459 3.86667C8.44395 3.93695 9.28353 3.46397 9.97496 2.65668Z" fill="white"/>
</svg>
