<svg width="8" height="14" viewBox="0 0 8 14" fill="none" xmlns="http://www.w3.org/2000/svg">
<path d="M7.42601 13.9999C7.542 13.9982 7.65482 13.9618 7.75004 13.8956C7.84526 13.8293 7.91854 13.7361 7.96051 13.628C8.00248 13.5199 8.01123 13.4016 7.98564 13.2885C7.96004 13.1754 7.90127 13.0724 7.81684 12.9929L1.6424 6.9998L7.81684 1.00674C7.873 0.953721 7.91806 0.890069 7.94941 0.819483C7.98076 0.748896 7.99777 0.672782 7.99945 0.595566C8.00112 0.51835 7.98744 0.44157 7.95919 0.369688C7.93094 0.297806 7.88869 0.232254 7.83488 0.176842C7.78108 0.12143 7.7168 0.0772648 7.64579 0.0469094C7.57477 0.0165539 7.49842 0.00061421 7.42119 1.72167e-05C7.34396 -0.000578823 7.26738 0.0141793 7.1959 0.0434342C7.12442 0.0726882 7.05947 0.115856 7.00481 0.17043L0.399318 6.58165C0.343375 6.63598 0.298901 6.70098 0.268533 6.77281C0.238164 6.84463 0.222516 6.92182 0.222516 6.9998C0.222516 7.07779 0.238164 7.15498 0.268533 7.2268C0.298901 7.29863 0.343375 7.36363 0.399318 7.41796L7.00482 13.8292C7.06001 13.8844 7.12573 13.928 7.19808 13.9573C7.27044 13.9866 7.34794 14.0011 7.42601 13.9999Z" fill="#666680"/>
</svg>
