<svg width="16" height="16" viewBox="0 0 16 16" fill="none" xmlns="http://www.w3.org/2000/svg">
<path d="M2.44444 0C1.10232 0 0 1.10232 0 2.44444V13.5556C0 14.8977 1.10232 16 2.44444 16H13.5556C14.8977 16 16 14.8977 16 13.5556V2.44444C16 1.10232 14.8977 0 13.5556 0H2.44444ZM2.44444 1.33333H13.5556C14.177 1.33333 14.6667 1.82301 14.6667 2.44444V11.5356L11.9948 8.95052L11.9939 8.94965C11.6481 8.61574 11.1942 8.44444 10.7439 8.44444C10.2939 8.44444 9.83995 8.61573 9.49392 8.95052L8.58333 9.8316L5.83681 7.17448C5.49172 6.83989 5.03826 6.66667 4.58594 6.66667C4.13292 6.66667 3.68044 6.84097 3.33594 7.17361L3.33507 7.17448L1.33333 9.11111V2.44444C1.33333 1.82301 1.82301 1.33333 2.44444 1.33333ZM10.8889 3.11111C10.2778 3.11111 9.73503 3.36428 9.39062 3.75174C9.04622 4.13919 8.88889 4.62963 8.88889 5.11111C8.88889 5.59259 9.04622 6.08303 9.39062 6.47049C9.73503 6.85794 10.2778 7.11111 10.8889 7.11111C11.5 7.11111 12.0427 6.85794 12.3872 6.47049C12.7316 6.08303 12.8889 5.59259 12.8889 5.11111C12.8889 4.62963 12.7316 4.13919 12.3872 3.75174C12.0427 3.36428 11.5 3.11111 10.8889 3.11111ZM10.8889 4.44444C11.1667 4.44444 11.2906 4.52461 11.3906 4.63715C11.4907 4.7497 11.5556 4.92593 11.5556 5.11111C11.5556 5.2963 11.4907 5.47252 11.3906 5.58507C11.2906 5.69761 11.1667 5.77778 10.8889 5.77778C10.6111 5.77778 10.4872 5.69761 10.3872 5.58507C10.2871 5.47252 10.2222 5.2963 10.2222 5.11111C10.2222 4.92593 10.2871 4.7497 10.3872 4.63715C10.4872 4.52461 10.6111 4.44444 10.8889 4.44444ZM4.58594 8C4.70162 8 4.8157 8.04163 4.90885 8.13194L4.90972 8.13281L7.62413 10.7587L3.5842 14.6667H2.44444C1.82301 14.6667 1.33333 14.177 1.33333 13.5556V10.9661L4.26215 8.13281C4.35678 8.04144 4.47095 8 4.58594 8ZM10.7439 9.77778C10.8617 9.77778 10.9744 9.8188 11.0677 9.90885L14.6667 13.3906V13.5556C14.6667 14.177 14.177 14.6667 13.5556 14.6667H5.5026L10.421 9.90885C10.5132 9.81965 10.6269 9.77778 10.7439 9.77778Z" fill="#D9D9FF"/>
</svg>
