<svg width="16" height="15" viewBox="0 0 16 15" fill="none" xmlns="http://www.w3.org/2000/svg">
<path d="M9.53906 0.00850779C9.44622 -0.00351797 9.35038 -0.00284678 9.25547 0.0108515C9.06564 0.0382479 8.87943 0.118817 8.72734 0.256945C8.72498 0.25901 8.72264 0.261094 8.72031 0.263195L5.33594 3.43351C5.22447 3.53796 5.07835 3.59601 4.92578 3.59601H1.8C0.813 3.59601 0 4.40901 0 5.39601V8.99601C0 9.98301 0.813 10.796 1.8 10.796H4.92578C5.07835 10.796 5.22447 10.8541 5.33594 10.9585L8.72031 14.1288C8.72264 14.1309 8.72498 14.133 8.72734 14.1351C9.03151 14.4113 9.47301 14.4568 9.80469 14.3101C10.1364 14.1633 10.4 13.8062 10.4 13.3952V0.996789C10.4 0.585862 10.1364 0.228701 9.80469 0.0819453C9.72177 0.0452563 9.63191 0.0205336 9.53906 0.00850779ZM9.2 1.45773V12.9343L6.15625 10.0827C5.82292 9.77038 5.38281 9.59601 4.92578 9.59601H1.8C1.4614 9.59601 1.2 9.33461 1.2 8.99601V5.39601C1.2 5.05741 1.4614 4.79601 1.8 4.79601H4.92578C5.38281 4.79601 5.82292 4.62164 6.15625 4.30929L9.2 1.45773ZM14.0992 2.22491C13.9901 2.22422 13.8828 2.25333 13.7889 2.30908C13.6951 2.36484 13.6182 2.44514 13.5666 2.54134C13.515 2.63754 13.4907 2.746 13.4961 2.85502C13.5016 2.96405 13.5367 3.06952 13.5977 3.16007C14.3565 4.32226 14.8 5.70407 14.8 7.19601C14.8 8.68794 14.3565 10.0698 13.5977 11.2319C13.5518 11.2979 13.5197 11.3723 13.5031 11.4509C13.4866 11.5295 13.486 11.6105 13.5014 11.6893C13.5167 11.7682 13.5478 11.8431 13.5926 11.9097C13.6375 11.9763 13.6952 12.0332 13.7625 12.0771C13.8297 12.1209 13.9051 12.1509 13.9841 12.1651C14.0631 12.1793 14.1442 12.1775 14.2225 12.1598C14.3008 12.1421 14.3748 12.1089 14.44 12.0621C14.5053 12.0153 14.5605 11.9559 14.6023 11.8874C15.4827 10.5392 16 8.92647 16 7.19601C16 5.46554 15.4827 3.85282 14.6023 2.5046C14.5486 2.41955 14.4744 2.34936 14.3865 2.30049C14.2986 2.25162 14.1998 2.22563 14.0992 2.22491ZM12.4047 4.09913C12.3006 4.09772 12.198 4.12338 12.1069 4.17361C12.0158 4.22383 11.9392 4.29689 11.8849 4.38561C11.8305 4.47433 11.8002 4.57567 11.7968 4.67967C11.7934 4.78367 11.8171 4.88676 11.8656 4.97882C12.2058 5.64709 12.4 6.39698 12.4 7.19601C12.4 7.99504 12.2058 8.74493 11.8656 9.4132C11.8268 9.48365 11.8025 9.56119 11.7942 9.64122C11.7859 9.72125 11.7938 9.80213 11.8174 9.87904C11.841 9.95596 11.8799 10.0273 11.9316 10.0889C11.9834 10.1505 12.047 10.2011 12.1187 10.2376C12.1903 10.2742 12.2687 10.2959 12.3489 10.3016C12.4292 10.3072 12.5097 10.2967 12.5858 10.2706C12.6619 10.2444 12.732 10.2033 12.7919 10.1495C12.8518 10.0958 12.9002 10.0306 12.9344 9.95773C13.3558 9.12999 13.6 8.19058 13.6 7.19601C13.6 6.20144 13.3558 5.26202 12.9344 4.43429C12.8856 4.33503 12.8102 4.2512 12.7168 4.19205C12.6233 4.13291 12.5153 4.10075 12.4047 4.09913Z" fill="#D9D9FF"/>
</svg>
