<svg width="20" height="21" viewBox="0 0 20 21" fill="none" xmlns="http://www.w3.org/2000/svg">
<path d="M9.98698 0.000101771C9.76616 0.00355167 9.55573 0.09451 9.40192 0.252998C9.24811 0.411485 9.1635 0.624542 9.16667 0.845371V12.7225L7.25586 10.8117C7.17818 10.7317 7.08525 10.6681 6.98255 10.6247C6.87985 10.5813 6.76949 10.5589 6.65799 10.5589C6.49214 10.559 6.33008 10.6085 6.19253 10.7011C6.05499 10.7938 5.94822 10.9254 5.88589 11.0791C5.82355 11.2328 5.80848 11.4015 5.84261 11.5638C5.87674 11.7261 5.95852 11.8746 6.07747 11.9901L9.41081 15.3235C9.56709 15.4797 9.77902 15.5674 10 15.5674C10.221 15.5674 10.4329 15.4797 10.5892 15.3235L13.9225 11.9901C14.0025 11.9133 14.0664 11.8214 14.1103 11.7196C14.1543 11.6178 14.1776 11.5083 14.1787 11.3974C14.1798 11.2866 14.1588 11.1766 14.1169 11.0739C14.075 10.9713 14.013 10.878 13.9346 10.7996C13.8562 10.7212 13.763 10.6593 13.6603 10.6174C13.5577 10.5754 13.4477 10.5544 13.3368 10.5556C13.226 10.5567 13.1164 10.5799 13.0147 10.6239C12.9129 10.6679 12.8209 10.7318 12.7441 10.8117L10.8333 12.7225V0.845371C10.8349 0.733834 10.8141 0.623112 10.7721 0.519765C10.7302 0.416418 10.6679 0.32255 10.5889 0.243724C10.51 0.164899 10.4161 0.102719 10.3127 0.0608712C10.2093 0.0190234 10.0985 -0.00164135 9.98698 0.000101771ZM3.05556 6.12315C1.3779 6.12315 0 7.50105 0 9.1787V16.9565C0 18.6341 1.3779 20.012 3.05556 20.012H16.9444C18.6221 20.012 20 18.6341 20 16.9565V9.1787C20 7.50105 18.6221 6.12315 16.9444 6.12315H13.6111C13.5007 6.12159 13.391 6.14199 13.2886 6.18317C13.1861 6.22434 13.0928 6.28548 13.0142 6.36302C12.9356 6.44055 12.8731 6.53295 12.8305 6.63483C12.7879 6.73671 12.7659 6.84604 12.7659 6.95648C12.7659 7.06692 12.7879 7.17626 12.8305 7.27814C12.8731 7.38002 12.9356 7.47241 13.0142 7.54995C13.0928 7.62748 13.1861 7.68862 13.2886 7.7298C13.391 7.77098 13.5007 7.79138 13.6111 7.78981H16.9444C17.7212 7.78981 18.3333 8.40191 18.3333 9.1787V16.9565C18.3333 17.7333 17.7212 18.3454 16.9444 18.3454H3.05556C2.27876 18.3454 1.66667 17.7333 1.66667 16.9565V9.1787C1.66667 8.40191 2.27876 7.78981 3.05556 7.78981H6.38889C6.49932 7.79138 6.60895 7.77098 6.71142 7.7298C6.8139 7.68862 6.90717 7.62748 6.98581 7.54995C7.06445 7.47241 7.1269 7.38002 7.16952 7.27814C7.21214 7.17626 7.23409 7.06692 7.23409 6.95648C7.23409 6.84604 7.21214 6.73671 7.16952 6.63483C7.1269 6.53295 7.06445 6.44055 6.98581 6.36302C6.90717 6.28548 6.8139 6.22434 6.71142 6.18317C6.60895 6.14199 6.49932 6.12159 6.38889 6.12315H3.05556Z" fill="#597AFF"/>
</svg>
