<svg xmlns="http://www.w3.org/2000/svg" viewBox="0 0 48 48">
  <path d="M12.5 4C10.019 4 8 6.019 8 8.5L8 39.5C8 41.981 10.019 44 12.5 44L25.619141 44C24.766141 43.112 24.038844 42.102 23.464844 41L12.5 41C11.673 41 11 40.327 11 39.5L11 36.958984L15.855469 32.304688C16.282469 31.895688 16.950953 31.895688 17.376953 32.304688L22.132812 36.863281C22.046812 36.255281 22 35.633 22 35C22 34.238 22.065406 33.489672 22.191406 32.763672L19.453125 30.138672C17.863125 28.615672 15.371297 28.615672 13.779297 30.138672L11 32.804688L11 8.5C11 7.673 11.673 7 12.5 7L24 7L24 15.5C24 17.981 26.019 20 28.5 20L37 20L37 22.152344C38.046 22.314344 39.052 22.600094 40 22.996094L40 18.5C40 18.0855 39.832047 17.710828 39.560547 17.439453L26.560547 4.4394531C26.289047 4.1680781 25.914 4 25.5 4L12.5 4 z M 27 9.1210938L34.878906 17L28.5 17C27.673 17 27 16.327 27 15.5L27 9.1210938 z M 23.5 22C22.119 22 21 23.119 21 24.5C21 25.881 22.119 27 23.5 27C24.881 27 26 25.881 26 24.5C26 23.119 24.881 22 23.5 22 z M 35 24C28.925 24 24 28.925 24 35C24 41.075 28.925 46 35 46C41.075 46 46 41.075 46 35C46 28.925 41.075 24 35 24 z M 35 27C35.552 27 36 27.448 36 28L36 34L42 34C42.552 34 43 34.448 43 35C43 35.552 42.552 36 42 36L36 36L36 42C36 42.552 35.552 43 35 43C34.448 43 34 42.552 34 42L34 36L28 36C27.448 36 27 35.552 27 35C27 34.448 27.448 34 28 34L34 34L34 28C34 27.448 34.448 27 35 27 z" fill="#D9D9FF" />
</svg>