<svg width="18" height="18" viewBox="0 0 18 18" fill="none" xmlns="http://www.w3.org/2000/svg">
<path d="M3.25 18C4.20748 18 5 17.2075 5 16.25L5 11.3174L15.3301 17.6963C16.4633 18.3959 18 17.5386 18 16.207L18 1.79297C18 0.461437 16.4633 -0.395939 15.3301 0.303711L5 6.68262L5 1.75C5 0.792521 4.20748 -1.20578e-06 3.25 -1.28949e-06L1.75 -1.42062e-06C0.792524 -1.50433e-06 1.50433e-06 0.792521 1.42062e-06 1.75L1.5299e-07 16.25C6.92845e-08 17.2075 0.792522 18 1.75 18L3.25 18Z" fill="#D9D9FF"/>
</svg>
