<svg width="18" height="15" viewBox="0 0 18 15" fill="none" xmlns="http://www.w3.org/2000/svg">
<path d="M2.925 0C1.31763 0 0 1.31763 0 2.925V11.475C0 13.0824 1.31763 14.4 2.925 14.4H15.075C16.6824 14.4 18 13.0824 18 11.475V2.925C18 1.31763 16.6824 0 15.075 0H2.925ZM2.925 1.35H15.075C15.9525 1.35 16.65 2.04747 16.65 2.925V3.42246L9 7.55771L1.35 3.42246V2.925C1.35 2.04747 2.04747 1.35 2.925 1.35ZM1.35 4.95703L8.6792 8.91914C8.77775 8.97237 8.88799 9.00024 9 9.00024C9.11201 9.00024 9.22225 8.97237 9.3208 8.91914L16.65 4.95703V11.475C16.65 12.3525 15.9525 13.05 15.075 13.05H2.925C2.04747 13.05 1.35 12.3525 1.35 11.475V4.95703Z" fill="#A2A2B5"/>
</svg>
