<svg width="16" height="16" viewBox="0 0 16 16" fill="none" xmlns="http://www.w3.org/2000/svg">
<path d="M1.89474 0C0.855789 0 0 0.855789 0 1.89474V14.1053C0 15.1442 0.855789 16 1.89474 16H4C5.03895 16 5.89474 15.1442 5.89474 14.1053V1.89474C5.89474 0.855789 5.03895 0 4 0H1.89474ZM11.1579 0C10.1189 0 9.26316 0.855789 9.26316 1.89474V14.1053C9.26316 15.1442 10.1189 16 11.1579 16H13.2632C14.3021 16 15.1579 15.1442 15.1579 14.1053V1.89474C15.1579 0.855789 14.3021 0 13.2632 0H11.1579Z" fill="white"/>
</svg>
