<svg width="26" height="20" viewBox="0 0 26 20" fill="none" xmlns="http://www.w3.org/2000/svg">
<path d="M3.36735 0C1.51851 0 0 1.45896 0 3.23529V16.7647C0 18.541 1.51851 20 3.36735 20H22.3469C24.1958 20 25.7143 18.541 25.7143 16.7647V3.23529C25.7143 1.45896 24.1958 0 22.3469 0H3.36735ZM3.36735 1.76471H22.3469C23.203 1.76471 23.8776 2.41281 23.8776 3.23529V16.7647C23.8776 17.5872 23.203 18.2353 22.3469 18.2353H3.36735C2.51129 18.2353 1.83673 17.5872 1.83673 16.7647V3.23529C1.83673 2.41281 2.51129 1.76471 3.36735 1.76471ZM11.0049 5.88235C10.7951 5.88493 10.5865 5.93876 10.3998 6.04435C10.0257 6.25611 9.79592 6.64235 9.79592 7.05882V12.9412C9.79592 13.3576 10.0257 13.7439 10.3998 13.9557C10.5908 14.0639 10.8055 14.1176 11.0204 14.1176C11.2249 14.1176 11.4298 14.0677 11.6147 13.9694L17.1249 11.0283C17.5137 10.8206 17.7551 10.4276 17.7551 10C17.7551 9.57235 17.5137 9.17938 17.1249 8.97174L11.6147 6.03056C11.4252 5.92938 11.2146 5.87978 11.0049 5.88235Z" fill="#CCCCFF"/>
</svg>
