<svg width="18" height="18" viewBox="0 0 18 18" fill="none" xmlns="http://www.w3.org/2000/svg">
<path d="M2.75 0C1.24011 0 0 1.24011 0 2.75V15.25C0 16.7599 1.24011 18 2.75 18H15.25C16.7599 18 18 16.7599 18 15.25V2.75C18 1.24011 16.7599 0 15.25 0H2.75ZM2.75 1.5H15.25C15.9491 1.5 16.5 2.05089 16.5 2.75V15.25C16.5 15.9491 15.9491 16.5 15.25 16.5H2.75C2.05089 16.5 1.5 15.9491 1.5 15.25V2.75C1.5 2.05089 2.05089 1.5 2.75 1.5ZM14.2354 4.99316C14.0406 4.99884 13.8556 5.0801 13.7197 5.21973L7.25 11.6895L4.78027 9.21973C4.71116 9.14775 4.62839 9.09028 4.53679 9.0507C4.4452 9.01111 4.34662 8.9902 4.24684 8.98918C4.14706 8.98817 4.04808 9.00707 3.9557 9.04479C3.86332 9.08251 3.77939 9.13828 3.70883 9.20883C3.63828 9.27939 3.58251 9.36332 3.54479 9.4557C3.50707 9.54808 3.48817 9.64706 3.48918 9.74684C3.4902 9.84662 3.51111 9.9452 3.5507 10.0368C3.59028 10.1284 3.64775 10.2112 3.71973 10.2803L6.71973 13.2803C6.86038 13.4209 7.05112 13.4999 7.25 13.4999C7.44888 13.4999 7.63962 13.4209 7.78027 13.2803L14.7803 6.28027C14.8885 6.1749 14.9623 6.03931 14.9922 5.89126C15.0221 5.7432 15.0066 5.58958 14.9477 5.4505C14.8888 5.31141 14.7893 5.19335 14.6622 5.11175C14.5351 5.03015 14.3863 4.98882 14.2354 4.99316Z" fill="#666680"/>
</svg>
