<svg width="20" height="16" viewBox="0 0 20 16" fill="none" xmlns="http://www.w3.org/2000/svg">
<path d="M7.64158 0.00041439C7.38205 0.00797795 7.13566 0.116242 6.95456 0.302286L0.292571 6.96427C0.105237 7.15168 0 7.40582 0 7.67081C0 7.93579 0.105237 8.18993 0.292571 8.37734L6.95456 15.0393C7.04664 15.1352 7.15693 15.2118 7.27897 15.2645C7.40101 15.3173 7.53235 15.3452 7.6653 15.3465C7.79825 15.3479 7.93013 15.3227 8.05321 15.2724C8.1763 15.2222 8.28813 15.1479 8.38214 15.0538C8.47615 14.9598 8.55046 14.848 8.60072 14.7249C8.65097 14.6018 8.67616 14.4699 8.67481 14.337C8.67346 14.2041 8.64559 14.0727 8.59284 13.9507C8.5401 13.8286 8.46353 13.7183 8.36763 13.6263L3.41147 8.6701H18.9865C19.1189 8.67198 19.2504 8.64751 19.3732 8.59813C19.4961 8.54875 19.608 8.47545 19.7023 8.38247C19.7966 8.28949 19.8715 8.17869 19.9226 8.05652C19.9737 7.93435 20 7.80324 20 7.67081C20 7.53837 19.9737 7.40726 19.9226 7.28509C19.8715 7.16292 19.7966 7.05212 19.7023 6.95915C19.608 6.86617 19.4961 6.79286 19.3732 6.74348C19.2504 6.6941 19.1189 6.66964 18.9865 6.67151H3.41147L8.36763 1.71536C8.51179 1.57495 8.61021 1.39429 8.65001 1.19703C8.6898 0.999764 8.66912 0.79508 8.59066 0.609765C8.51221 0.42445 8.37963 0.267136 8.21029 0.158412C8.04095 0.049689 7.84273 -0.00537905 7.64158 0.00041439Z" fill="#D9D9FF"/>
</svg>
