<svg width="14" height="20" viewBox="0 0 14 20" fill="none" xmlns="http://www.w3.org/2000/svg">
<path d="M4.26768 0C3.40068 0 2.6954 0.705279 2.6954 1.57228V8.53523H10.7814V1.57228C10.7814 0.705279 10.0761 0 9.20913 0H4.26768ZM0.663374 8.52558C0.484815 8.52837 0.314665 8.60192 0.190295 8.73007C0.065926 8.85822 -0.00249201 9.0305 6.94139e-05 9.20906V13.2521C6.94139e-05 15.6009 1.9188 17.5197 4.26768 17.5197H6.06457V19.3166C6.06331 19.4059 6.07981 19.4945 6.1131 19.5774C6.1464 19.6602 6.19583 19.7356 6.25853 19.7992C6.32123 19.8628 6.39594 19.9133 6.47832 19.9478C6.5607 19.9823 6.64911 20 6.73841 20C6.82771 20 6.91612 19.9823 6.9985 19.9478C7.08088 19.9133 7.15559 19.8628 7.21828 19.7992C7.28098 19.7356 7.33041 19.6602 7.36371 19.5774C7.39701 19.4945 7.4135 19.4059 7.41224 19.3166V17.5197H9.20913C11.558 17.5197 13.4767 15.6009 13.4767 13.2521V9.20906C13.478 9.11977 13.4615 9.03112 13.4282 8.94826C13.3949 8.8654 13.3455 8.78998 13.2828 8.72639C13.2201 8.6628 13.1454 8.61231 13.063 8.57784C12.9806 8.54338 12.8922 8.52563 12.8029 8.52563C12.7136 8.52563 12.6252 8.54338 12.5428 8.57784C12.4604 8.61231 12.3857 8.6628 12.323 8.72639C12.2603 8.78998 12.2109 8.8654 12.1776 8.94826C12.1443 9.03112 12.1278 9.11977 12.1291 9.20906V13.2521C12.1291 14.8725 10.8296 16.172 9.20913 16.172H4.26768C2.64724 16.172 1.34774 14.8725 1.34774 13.2521V9.20906C1.34903 9.11887 1.33221 9.02934 1.29826 8.94578C1.26432 8.86221 1.21394 8.78631 1.15012 8.72257C1.0863 8.65883 1.01033 8.60855 0.926723 8.57472C0.843113 8.54088 0.753561 8.52417 0.663374 8.52558ZM2.6954 9.8829V13.2521C2.6954 14.1191 3.40068 14.8243 4.26768 14.8243H9.20913C10.0761 14.8243 10.7814 14.1191 10.7814 13.2521V9.8829H2.6954ZM6.73841 11.2306C7.2348 11.2306 7.63685 11.6326 7.63685 12.129C7.63685 12.625 7.2348 13.0275 6.73841 13.0275C6.24202 13.0275 5.83996 12.625 5.83996 12.129C5.83996 11.6326 6.24202 11.2306 6.73841 11.2306Z" fill="#D9D9FF"/>
</svg>
