<svg width="4" height="18" viewBox="0 0 4 18" fill="none" xmlns="http://www.w3.org/2000/svg">
<path d="M2 14.25C1.53587 14.25 1.09075 14.4344 0.762563 14.7626C0.434374 15.0908 0.25 15.5359 0.25 16C0.25 16.4641 0.434374 16.9092 0.762563 17.2374C1.09075 17.5656 1.53587 17.75 2 17.75C2.46413 17.75 2.90925 17.5656 3.23744 17.2374C3.56563 16.9092 3.75 16.4641 3.75 16C3.75 15.5359 3.56563 15.0908 3.23744 14.7626C2.90925 14.4344 2.46413 14.25 2 14.25ZM2 7.25C1.53587 7.25 1.09075 7.43437 0.762563 7.76256C0.434374 8.09075 0.25 8.53587 0.25 9C0.25 9.46413 0.434374 9.90925 0.762563 10.2374C1.09075 10.5656 1.53587 10.75 2 10.75C2.46413 10.75 2.90925 10.5656 3.23744 10.2374C3.56563 9.90925 3.75 9.46413 3.75 9C3.75 8.53587 3.56563 8.09075 3.23744 7.76256C2.90925 7.43437 2.46413 7.25 2 7.25ZM2 0.25C1.53587 0.25 1.09075 0.434374 0.762563 0.762563C0.434374 1.09075 0.25 1.53587 0.25 2C0.25 2.46413 0.434374 2.90925 0.762563 3.23744C1.09075 3.56563 1.53587 3.75 2 3.75C2.46413 3.75 2.90925 3.56563 3.23744 3.23744C3.56563 2.90925 3.75 2.46413 3.75 2C3.75 1.53587 3.56563 1.09075 3.23744 0.762563C2.90925 0.434374 2.46413 0.25 2 0.25Z" fill="white"/>
</svg>
