<svg width="18" height="18" viewBox="0 0 18 18" fill="none" xmlns="http://www.w3.org/2000/svg">
<path d="M2.25 0C1.01625 0 0 1.01625 0 2.25V15.75C0 16.9838 1.01625 18 2.25 18H11V13.25C11 11.9983 11.9983 11 13.25 11H18V2.25C18 1.01625 16.9838 0 15.75 0H2.25ZM4.75 3.99902H13.25C13.664 3.99902 14 4.33502 14 4.74902C14 5.16302 13.664 5.49902 13.25 5.49902H4.75C4.336 5.49902 4 5.16302 4 4.74902C4 4.33502 4.336 3.99902 4.75 3.99902ZM4.75 7.49902H11.25C11.664 7.49902 12 7.83502 12 8.24902C12 8.66302 11.664 8.99902 11.25 8.99902H4.75C4.336 8.99902 4 8.66302 4 8.24902C4 7.83502 4.336 7.49902 4.75 7.49902ZM13.5 12.5C12.9475 12.5 12.5 12.9475 12.5 13.5V17.5596L17.5596 12.5H13.5Z" fill="#D9D9FF"/>
</svg>
