<svg width="16" height="16" viewBox="0 0 16 16" fill="none" xmlns="http://www.w3.org/2000/svg">
<path d="M3.43378 0C2.91547 0 2.46049 0.368837 2.35336 0.875738V0.87652L0.0214426 11.9455V11.9463C-0.111616 12.5792 0.392411 13.2001 1.03936 13.2001H3.54705L3.22129 14.7462C3.08774 15.3796 3.59077 16 4.23842 16H7.29687C7.43461 16.0001 7.56818 15.9527 7.67516 15.866C7.78213 15.7792 7.85599 15.6583 7.88434 15.5235L8.75305 11.4002H11.1889C13.3982 11.4002 15.3154 9.85276 15.7824 7.69337L15.8472 7.39183C16.3217 5.1967 14.7707 3.09459 12.6036 2.82955C12.177 1.23435 10.724 0 8.9421 0H6.80627H5.42508H3.43378ZM3.51112 1.19994H5.42508H6.80627H8.9421C10.0509 1.19994 10.9593 1.87194 11.3404 2.80064H6.22505C6.0873 2.80058 5.95373 2.84791 5.84676 2.93468C5.73978 3.02145 5.66592 3.14239 5.63757 3.27718L4.69543 7.74884C4.65664 7.83192 4.63739 7.92278 4.63919 8.01445L3.80016 12.0002H1.23623L3.51112 1.19994ZM6.71174 4.00059H11.524C11.5144 4.11263 11.4993 4.2252 11.4748 4.33885L11.4092 4.6404C11.0602 6.25442 9.64027 7.40042 7.98902 7.40042H5.99537L6.71174 4.00059ZM12.7193 4.06465C14.0763 4.36591 14.9841 5.70703 14.6746 7.13871L14.609 7.44026C14.26 9.05429 12.8401 10.2003 11.1889 10.2003H8.26635C8.12861 10.2002 7.99504 10.2475 7.88807 10.3343C7.78109 10.4211 7.70723 10.542 7.67888 10.6768L6.81017 14.8001H4.43607L4.87433 12.7189L4.87667 12.7103C4.87694 12.7093 4.8772 12.7082 4.87746 12.7072L5.74226 8.60036H7.98902C10.1984 8.60036 12.1156 7.0529 12.5825 4.89351L12.6474 4.59196C12.6856 4.41502 12.7066 4.23947 12.7193 4.06465Z" fill="#A2A2B5"/>
</svg>
