<svg width="20" height="16" viewBox="0 0 20 16" fill="none" xmlns="http://www.w3.org/2000/svg">
<path d="M2.58824 0C1.16717 0 0 1.16717 0 2.58824V13.4118C0 14.8328 1.16717 16 2.58824 16H17.1765C18.5975 16 19.7647 14.8328 19.7647 13.4118V2.58824C19.7647 1.16717 18.5975 0 17.1765 0H2.58824ZM2.58824 1.41176H17.1765C17.8345 1.41176 18.3529 1.93025 18.3529 2.58824V13.4118C18.3529 14.0698 17.8345 14.5882 17.1765 14.5882H2.58824C1.93025 14.5882 1.41176 14.0698 1.41176 13.4118V2.58824C1.41176 1.93025 1.93025 1.41176 2.58824 1.41176ZM8.45864 4.70588C8.2974 4.70794 8.1371 4.75101 7.99357 4.83548C7.70604 5.00489 7.52941 5.31388 7.52941 5.64706V10.3529C7.52941 10.6861 7.70604 10.9951 7.99357 11.1645C8.14039 11.2511 8.30541 11.2941 8.47059 11.2941C8.62776 11.2941 8.78527 11.2541 8.92739 11.1756L13.1627 8.82261C13.4615 8.65649 13.6471 8.34212 13.6471 8C13.6471 7.65788 13.4615 7.34351 13.1627 7.17739L8.92739 4.82445C8.78174 4.74351 8.61987 4.70382 8.45864 4.70588Z" fill="#D9D9FF"/>
</svg>
