<svg width="18" height="18" viewBox="0 0 18 18" fill="none" xmlns="http://www.w3.org/2000/svg">
<path d="M14.6842 0C12.8614 0 11.3684 1.49295 11.3684 3.31579C11.3684 3.59326 11.4625 3.84133 11.5275 4.0994L5.84796 6.94058C5.23853 6.19292 4.34913 5.68421 3.31579 5.68421C1.49294 5.68421 0 7.17716 0 9C0 10.8228 1.49294 12.3158 3.31579 12.3158C4.34913 12.3158 5.23853 11.8071 5.84796 11.0594L11.5275 13.9006C11.4625 14.1587 11.3684 14.4067 11.3684 14.6842C11.3684 16.5071 12.8614 18 14.6842 18C16.5071 18 18 16.5071 18 14.6842C18 12.8614 16.5071 11.3684 14.6842 11.3684C13.6509 11.3684 12.7615 11.8771 12.152 12.6248L6.47245 9.78361C6.53753 9.52554 6.63158 9.27747 6.63158 9C6.63158 8.72253 6.53753 8.47446 6.47245 8.21639L12.152 5.37521C12.7615 6.12287 13.6509 6.63158 14.6842 6.63158C16.5071 6.63158 18 5.13863 18 3.31579C18 1.49295 16.5071 0 14.6842 0ZM14.6842 1.42105C15.7391 1.42105 16.5789 2.26094 16.5789 3.31579C16.5789 4.37064 15.7391 5.21053 14.6842 5.21053C13.6294 5.21053 12.7895 4.37064 12.7895 3.31579C12.7895 2.26094 13.6294 1.42105 14.6842 1.42105ZM3.31579 7.10526C4.37064 7.10526 5.21053 7.94515 5.21053 9C5.21053 10.0549 4.37064 10.8947 3.31579 10.8947C2.26094 10.8947 1.42105 10.0549 1.42105 9C1.42105 7.94515 2.26094 7.10526 3.31579 7.10526ZM14.6842 12.7895C15.7391 12.7895 16.5789 13.6294 16.5789 14.6842C16.5789 15.7391 15.7391 16.5789 14.6842 16.5789C13.6294 16.5789 12.7895 15.7391 12.7895 14.6842C12.7895 13.6294 13.6294 12.7895 14.6842 12.7895Z" fill="#A2A2B5"/>
</svg>
