<svg xmlns="http://www.w3.org/2000/svg" viewBox="0 0 48 48">
  <path d="M11.5 6C8.4802259 6 6 8.4802259 6 11.5 A 1.50015 1.50015 0 1 0 9 11.5C9 10.101774 10.101774 9 11.5 9 A 1.50015 1.50015 0 1 0 11.5 6 z M 16.5 6C15.672 6 15 6.672 15 7.5C15 8.328 15.672 9 16.5 9C17.328 9 18 8.328 18 7.5C18 6.672 17.328 6 16.5 6 z M 22.5 6C21.672 6 21 6.672 21 7.5C21 8.328 21.672 9 22.5 9C23.328 9 24 8.328 24 7.5C24 6.672 23.328 6 22.5 6 z M 28.5 6C27.672 6 27 6.672 27 7.5C27 8.328 27.672 9 28.5 9C29.328 9 30 8.328 30 7.5C30 6.672 29.328 6 28.5 6 z M 33.5 6 A 1.50015 1.50015 0 1 0 33.5 9C34.898226 9 36 10.101774 36 11.5 A 1.50015 1.50015 0 1 0 39 11.5C39 8.4802259 36.519774 6 33.5 6 z M 7.5 15C6.672 15 6 15.672 6 16.5C6 17.328 6.672 18 7.5 18C8.328 18 9 17.328 9 16.5C9 15.672 8.328 15 7.5 15 z M 37.5 15C36.672 15 36 15.672 36 16.5C36 17.328 36.672 18 37.5 18C38.328 18 39 17.328 39 16.5C39 15.672 38.328 15 37.5 15 z M 7.5 21C6.672 21 6 21.672 6 22.5C6 23.328 6.672 24 7.5 24C8.328 24 9 23.328 9 22.5C9 21.672 8.328 21 7.5 21 z M 37.5 21C36.672 21 36 21.672 36 22.5C36 23.328 36.672 24 37.5 24C38.328 24 39 23.328 39 22.5C39 21.672 38.328 21 37.5 21 z M 7.5 27C6.672 27 6 27.672 6 28.5C6 29.328 6.672 30 7.5 30C8.328 30 9 29.328 9 28.5C9 27.672 8.328 27 7.5 27 z M 37.5 27C36.672 27 36 27.672 36 28.5C36 29.328 36.672 30 37.5 30C38.328 30 39 29.328 39 28.5C39 27.672 38.328 27 37.5 27 z M 7.4765625 31.978516 A 1.50015 1.50015 0 0 0 6 33.5C6 36.519774 8.4802259 39 11.5 39 A 1.50015 1.50015 0 1 0 11.5 36C10.101774 36 9 34.898226 9 33.5 A 1.50015 1.50015 0 0 0 7.4765625 31.978516 z M 37.476562 31.978516 A 1.50015 1.50015 0 0 0 36 33.5L36 36L33.5 36 A 1.50015 1.50015 0 1 0 33.5 39L36 39L36 41.5 A 1.50015 1.50015 0 1 0 39 41.5L39 39L41.5 39 A 1.50015 1.50015 0 1 0 41.5 36L39 36L39 33.5 A 1.50015 1.50015 0 0 0 37.476562 31.978516 z M 16.5 36C15.672 36 15 36.672 15 37.5C15 38.328 15.672 39 16.5 39C17.328 39 18 38.328 18 37.5C18 36.672 17.328 36 16.5 36 z M 22.5 36C21.672 36 21 36.672 21 37.5C21 38.328 21.672 39 22.5 39C23.328 39 24 38.328 24 37.5C24 36.672 23.328 36 22.5 36 z M 28.5 36C27.672 36 27 36.672 27 37.5C27 38.328 27.672 39 28.5 39C29.328 39 30 38.328 30 37.5C30 36.672 29.328 36 28.5 36 z" fill="#D9D9FF" />
</svg>