<svg xmlns="http://www.w3.org/2000/svg" viewBox="0 0 24 24">
  <path d="M18.726562 3.7636719L17.273438 5.1367188C18.965329 6.9286687 20 9.3370068 20 12C20 14.662993 18.965329 17.071331 17.273438 18.863281L18.726562 20.236328C20.754672 18.088278 22 15.183007 22 12C22 8.8169932 20.754671 5.9117218 18.726562 3.7636719 z M 10 4C5.5935644 4 2 7.5935677 2 12C2 16.406432 5.5935644 20 10 20C14.406436 20 18 16.406432 18 12C18 7.5935677 14.406436 4 10 4 z M 10 6C13.325556 6 16 8.674446 16 12C16 15.325554 13.325556 18 10 18C6.6744439 18 4 15.325554 4 12C4 8.674446 6.6744439 6 10 6 z" fill="#D9D9FF" />
</svg>