<svg width="14" height="14" viewBox="0 0 14 14" fill="none" xmlns="http://www.w3.org/2000/svg">
<path d="M13.3039 5.76933C13.3859 6.20867 13.4306 6.668 13.4306 7.14733C13.4306 10.8967 10.9213 13.5627 7.13127 13.5627C6.26937 13.5629 5.41587 13.3934 4.61954 13.0636C3.8232 12.7339 3.09963 12.2505 2.49018 11.6411C1.88073 11.0316 1.39733 10.3081 1.06762 9.51173C0.73791 8.7154 0.568341 7.8619 0.568604 7C0.568341 6.1381 0.73791 5.2846 1.06762 4.48826C1.39733 3.69193 1.88073 2.96836 2.49018 2.35891C3.09963 1.74945 3.8232 1.26606 4.61954 0.936351C5.41587 0.606639 6.26937 0.43707 7.13127 0.437332C8.90327 0.437332 10.3839 1.08933 11.5199 2.148L9.66994 3.998V3.99333C8.98127 3.33733 8.10727 3.00067 7.13127 3.00067C4.96594 3.00067 3.20594 4.83 3.20594 6.996C3.20594 9.16133 4.96594 10.9947 7.13127 10.9947C9.09594 10.9947 10.4333 9.87133 10.7079 8.32867H7.13127V5.76933H13.3046H13.3039Z" fill="#0E0E12"/>
</svg>
