<svg width="32" height="32" viewBox="0 0 32 32" fill="none" xmlns="http://www.w3.org/2000/svg">
<path d="M16 0C7.17765 0 0 7.17766 0 16C0 24.8223 7.17765 32 16 32C24.8223 32 32 24.8223 32 16C32 7.17766 24.8223 0 16 0ZM16 2.4C23.5253 2.4 29.6 8.47471 29.6 16C29.6 23.5253 23.5253 29.6 16 29.6C8.47471 29.6 2.4 23.5253 2.4 16C2.4 8.47471 8.47471 2.4 16 2.4ZM15.9812 7.18281C15.6633 7.18778 15.3602 7.31876 15.1388 7.54698C14.9173 7.7752 14.7954 8.08201 14.8 8.4V18C14.7978 18.159 14.8271 18.3169 14.8864 18.4645C14.9457 18.612 15.0338 18.7463 15.1454 18.8596C15.2571 18.9728 15.3901 19.0627 15.5368 19.1241C15.6835 19.1855 15.841 19.2171 16 19.2171C16.159 19.2171 16.3165 19.1855 16.4632 19.1241C16.6099 19.0627 16.7429 18.9728 16.8546 18.8596C16.9662 18.7463 17.0543 18.612 17.1136 18.4645C17.1729 18.3169 17.2022 18.159 17.2 18V8.4C17.2023 8.23939 17.1723 8.07995 17.1119 7.93113C17.0514 7.78231 16.9617 7.64714 16.8481 7.53363C16.7344 7.42012 16.5991 7.33058 16.4502 7.27032C16.3013 7.21006 16.1419 7.1803 15.9812 7.18281ZM16 21.6C15.5757 21.6 15.1687 21.7686 14.8686 22.0686C14.5686 22.3687 14.4 22.7757 14.4 23.2C14.4 23.6243 14.5686 24.0313 14.8686 24.3314C15.1687 24.6314 15.5757 24.8 16 24.8C16.4243 24.8 16.8313 24.6314 17.1314 24.3314C17.4314 24.0313 17.6 23.6243 17.6 23.2C17.6 22.7757 17.4314 22.3687 17.1314 22.0686C16.8313 21.7686 16.4243 21.6 16 21.6Z" fill="#4E4E61"/>
</svg>
