<svg width="22" height="22" viewBox="0 0 22 22" fill="none" xmlns="http://www.w3.org/2000/svg">
<path d="M17.7028 2.43042C17.5137 2.42149 17.3196 2.44737 17.1281 2.51277L8.33919 5.50895L4.16048 5.83032C2.85336 5.93068 1.83301 7.03233 1.83301 8.3431V11.8236C1.83301 13.1343 2.85336 14.236 4.16048 14.3363C4.17806 14.3376 4.19568 14.3382 4.2133 14.3381H3.6001L4.0092 18.0209C4.11542 18.9757 4.93377 19.7074 5.89445 19.7074C6.93407 19.7074 7.79224 18.8502 7.79224 17.8105V14.6156L8.34009 14.6577L17.1281 17.6539H17.129C18.15 18.0018 19.2506 17.2138 19.2506 16.1348V12.0098C19.9214 11.7373 20.3955 11.0811 20.3955 10.3125C20.3955 9.5439 19.9214 8.8877 19.2506 8.61523V4.031V4.03011C19.25 3.22102 18.6303 2.57597 17.8899 2.45101C17.8282 2.44059 17.7658 2.43339 17.7028 2.43042ZM17.6903 3.79915C17.7992 3.81057 17.8755 3.89842 17.8756 4.0319V16.1348C17.8756 16.3125 17.74 16.4095 17.5721 16.3523L8.70085 13.3284C8.64614 13.3097 8.5893 13.2979 8.53166 13.2935L7.15666 13.1869C7.06226 13.1798 6.9674 13.1922 6.87803 13.2234C6.78865 13.2547 6.70669 13.304 6.63728 13.3684C6.56786 13.4328 6.51249 13.5108 6.47462 13.5975C6.43676 13.6843 6.41722 13.778 6.41724 13.8726V17.8105C6.41724 18.1065 6.19042 18.3324 5.89445 18.3324C5.62251 18.3324 5.40599 18.1382 5.37614 17.8687L4.89901 13.5754C4.88125 13.4159 4.80825 13.2677 4.69266 13.1563C4.57707 13.045 4.42617 12.9776 4.26611 12.9658C3.6629 12.9195 3.20801 12.4286 3.20801 11.8236V8.3431C3.20801 7.73803 3.6629 7.24716 4.26611 7.20085L7.79134 6.9305V11.2292C7.79005 11.3203 7.80688 11.4107 7.84086 11.4953C7.87483 11.5798 7.92526 11.6567 7.98923 11.7216C8.0532 11.7865 8.12942 11.838 8.21348 11.8732C8.29753 11.9083 8.38773 11.9265 8.47884 11.9265C8.56995 11.9265 8.66016 11.9083 8.74421 11.8732C8.82826 11.838 8.90448 11.7865 8.96845 11.7216C9.03242 11.6567 9.08285 11.5798 9.11683 11.4953C9.1508 11.4107 9.16763 11.3203 9.16634 11.2292V6.67985L17.5721 3.81437C17.614 3.80006 17.654 3.79535 17.6903 3.79915Z" fill="#0D0D21"/>
</svg>
