<svg width="18" height="18" viewBox="0 0 18 18" fill="none" xmlns="http://www.w3.org/2000/svg">
<path d="M7.41269 0C6.69495 0 6.02502 0.38494 5.66367 1.00459L4.6749 2.7H2.925C1.3122 2.7 0 4.0122 0 5.625V14.175C0 15.7878 1.3122 17.1 2.925 17.1H15.075C16.6878 17.1 18 15.7878 18 14.175V5.625C18 4.0122 16.6878 2.7 15.075 2.7H13.3251L12.3363 1.00459C11.975 0.38494 11.3051 0 10.5873 0H7.41269ZM9 5.4C11.2329 5.4 13.05 7.21665 13.05 9.45C13.05 11.6834 11.2329 13.5 9 13.5C6.7671 13.5 4.95 11.6834 4.95 9.45C4.95 7.21665 6.7671 5.4 9 5.4ZM9 6.75C8.28392 6.75 7.59716 7.03446 7.09081 7.54081C6.58446 8.04716 6.3 8.73392 6.3 9.45C6.3 10.1661 6.58446 10.8528 7.09081 11.3592C7.59716 11.8655 8.28392 12.15 9 12.15C9.71608 12.15 10.4028 11.8655 10.9092 11.3592C11.4155 10.8528 11.7 10.1661 11.7 9.45C11.7 8.73392 11.4155 8.04716 10.9092 7.54081C10.4028 7.03446 9.71608 6.75 9 6.75Z" fill="#D9D9FF"/>
</svg>
