<svg width="20" height="20" viewBox="0 0 20 20" fill="none" xmlns="http://www.w3.org/2000/svg">
<path d="M10 0C4.48603 0 0 4.48604 0 10C0 15.514 4.48603 20 10 20C15.514 20 20 15.514 20 10C20 4.48604 15.514 0 10 0ZM10 1.5C14.7033 1.5 18.5 5.2967 18.5 10C18.5 14.7033 14.7033 18.5 10 18.5C5.29669 18.5 1.5 14.7033 1.5 10C1.5 5.2967 5.29669 1.5 10 1.5ZM5.5 7C5.23478 7 4.98043 7.10536 4.79289 7.29289C4.60536 7.48043 4.5 7.73478 4.5 8C4.5 8.26522 4.60536 8.51957 4.79289 8.70711C4.98043 8.89464 5.23478 9 5.5 9C5.76522 9 6.01957 8.89464 6.20711 8.70711C6.39464 8.51957 6.5 8.26522 6.5 8C6.5 7.73478 6.39464 7.48043 6.20711 7.29289C6.01957 7.10536 5.76522 7 5.5 7ZM10 7C9.73478 7 9.48043 7.10536 9.29289 7.29289C9.10536 7.48043 9 7.73478 9 8C9 8.26522 9.10536 8.51957 9.29289 8.70711C9.48043 8.89464 9.73478 9 10 9C10.2652 9 10.5196 8.89464 10.7071 8.70711C10.8946 8.51957 11 8.26522 11 8C11 7.73478 10.8946 7.48043 10.7071 7.29289C10.5196 7.10536 10.2652 7 10 7ZM14.5 7C14.2348 7 13.9804 7.10536 13.7929 7.29289C13.6054 7.48043 13.5 7.73478 13.5 8C13.5 8.26522 13.6054 8.51957 13.7929 8.70711C13.9804 8.89464 14.2348 9 14.5 9C14.7652 9 15.0196 8.89464 15.2071 8.70711C15.3946 8.51957 15.5 8.26522 15.5 8C15.5 7.73478 15.3946 7.48043 15.2071 7.29289C15.0196 7.10536 14.7652 7 14.5 7ZM5.5 11C5.23478 11 4.98043 11.1054 4.79289 11.2929C4.60536 11.4804 4.5 11.7348 4.5 12C4.5 12.2652 4.60536 12.5196 4.79289 12.7071C4.98043 12.8946 5.23478 13 5.5 13C5.76522 13 6.01957 12.8946 6.20711 12.7071C6.39464 12.5196 6.5 12.2652 6.5 12C6.5 11.7348 6.39464 11.4804 6.20711 11.2929C6.01957 11.1054 5.76522 11 5.5 11ZM10 11C9.73478 11 9.48043 11.1054 9.29289 11.2929C9.10536 11.4804 9 11.7348 9 12C9 12.2652 9.10536 12.5196 9.29289 12.7071C9.48043 12.8946 9.73478 13 10 13C10.2652 13 10.5196 12.8946 10.7071 12.7071C10.8946 12.5196 11 12.2652 11 12C11 11.7348 10.8946 11.4804 10.7071 11.2929C10.5196 11.1054 10.2652 11 10 11ZM14.5 11C14.2348 11 13.9804 11.1054 13.7929 11.2929C13.6054 11.4804 13.5 11.7348 13.5 12C13.5 12.2652 13.6054 12.5196 13.7929 12.7071C13.9804 12.8946 14.2348 13 14.5 13C14.7652 13 15.0196 12.8946 15.2071 12.7071C15.3946 12.5196 15.5 12.2652 15.5 12C15.5 11.7348 15.3946 11.4804 15.2071 11.2929C15.0196 11.1054 14.7652 11 14.5 11Z" fill="#A2A2B5"/>
</svg>
