<svg width="16" height="16" viewBox="0 0 16 16" fill="none" xmlns="http://www.w3.org/2000/svg">
<path d="M15.2783 0.000196769C15.0921 0.00459352 14.9152 0.0824727 14.7863 0.216831L7.99996 7.00316L1.21363 0.216831C1.14791 0.149159 1.06929 0.0953617 0.982413 0.0586238C0.895535 0.0218858 0.802168 0.00295435 0.707841 0.00295059C0.567541 0.00298482 0.43044 0.0448771 0.314082 0.123267C0.197724 0.201657 0.107399 0.312981 0.054664 0.442994C0.00192936 0.573007 -0.0108166 0.715797 0.0180566 0.853094C0.0469298 0.990392 0.116109 1.11595 0.216744 1.21371L7.00307 8.00004L0.216744 14.7864C0.149086 14.8513 0.0950698 14.9291 0.0578588 15.0152C0.0206478 15.1013 0.000990035 15.194 3.64422e-05 15.2878C-0.00091715 15.3816 0.0168528 15.4746 0.0523055 15.5614C0.0877582 15.6483 0.140181 15.7272 0.206504 15.7935C0.272827 15.8598 0.351716 15.9122 0.438553 15.9477C0.525389 15.9831 0.618427 16.0009 0.712216 16C0.806006 15.999 0.898663 15.9794 0.984761 15.9421C1.07086 15.9049 1.14867 15.8509 1.21363 15.7833L7.99996 8.99693L14.7863 15.7833C14.8512 15.8509 14.9291 15.9049 15.0152 15.9421C15.1013 15.9794 15.1939 15.999 15.2877 16C15.3815 16.0009 15.4745 15.9831 15.5614 15.9477C15.6482 15.9122 15.7271 15.8598 15.7934 15.7935C15.8597 15.7272 15.9122 15.6483 15.9476 15.5614C15.9831 15.4746 16.0008 15.3816 15.9999 15.2878C15.9989 15.194 15.9793 15.1013 15.9421 15.0152C15.9048 14.9291 15.8508 14.8513 15.7832 14.7864L8.99684 8.00004L15.7832 1.21371C15.8857 1.11532 15.9561 0.988242 15.9851 0.849145C16.0142 0.710047 16.0005 0.565421 15.9459 0.434226C15.8913 0.30303 15.7984 0.191389 15.6792 0.113938C15.5601 0.0364868 15.4204 -0.00315946 15.2783 0.000196769Z" fill="#666680"/>
</svg>
