<svg width="8" height="14" viewBox="0 0 8 14" fill="none" xmlns="http://www.w3.org/2000/svg">
<path d="M0.573993 6.83548e-05C0.458004 0.00184021 0.34518 0.0381803 0.249961 0.104438C0.154742 0.170696 0.0814587 0.263859 0.0394884 0.372003C-0.00248184 0.480148 -0.0112296 0.598356 0.0143642 0.711501C0.039958 0.824646 0.0987294 0.927581 0.183158 1.00713L6.3576 7.0002L0.183158 12.9933C0.126998 13.0463 0.0819345 13.1099 0.0505867 13.1805C0.0192388 13.2511 0.00223155 13.3272 0.000552741 13.4044C-0.00112607 13.4817 0.0125569 13.5584 0.0408072 13.6303C0.0690575 13.7022 0.111312 13.7677 0.165114 13.8232C0.218917 13.8786 0.283195 13.9227 0.354214 13.9531C0.425233 13.9834 0.501576 13.9994 0.578808 14C0.65604 14.0006 0.732621 13.9858 0.8041 13.9566C0.87558 13.9273 0.940532 13.8841 0.995185 13.8296L7.60068 7.41835C7.65662 7.36402 7.7011 7.29902 7.73147 7.22719C7.76184 7.15537 7.77748 7.07818 7.77748 7.0002C7.77748 6.92221 7.76184 6.84502 7.73147 6.7732C7.7011 6.70137 7.65662 6.63637 7.60068 6.58204L0.995185 0.170822C0.939992 0.115604 0.874269 0.0720356 0.801917 0.0427035C0.729564 0.0133714 0.652056 -0.00112721 0.573993 6.83548e-05Z" fill="#666680"/>
</svg>
