<svg width="16" height="16" viewBox="0 0 16 16" fill="none" xmlns="http://www.w3.org/2000/svg">
<path d="M9.55944 0C13.1086 0 16 2.89143 16 6.44056C16 9.98969 13.1086 12.8811 9.55944 12.8811C8.02421 12.8811 6.6129 12.3388 5.50459 11.4375L1.14698 15.7952C1.08559 15.8591 1.01205 15.9102 0.93068 15.9453C0.849311 15.9805 0.761743 15.9991 0.673103 16C0.584463 16.0009 0.496536 15.9841 0.414468 15.9506C0.3324 15.9171 0.257843 15.8675 0.195162 15.8048C0.132482 15.7422 0.0829382 15.6676 0.0494318 15.5855C0.0159264 15.5035 -0.000867844 15.4155 3.33786e-05 15.3269C0.000934601 15.2383 0.0195122 15.1507 0.0546799 15.0693C0.0898466 14.988 0.140897 14.9144 0.204839 14.853L4.56245 10.4954C3.6612 9.3871 3.11888 7.97579 3.11888 6.44056C3.11888 2.89143 6.01031 0 9.55944 0ZM9.55944 1.33253C6.73046 1.33253 4.45141 3.61158 4.45141 6.44056C4.45141 7.81867 4.99499 9.06374 5.87677 9.98096C5.93112 10.0209 5.97909 10.0689 6.01904 10.1232C6.93626 11.005 8.18133 11.5486 9.55944 11.5486C12.3884 11.5486 14.6675 9.26954 14.6675 6.44056C14.6675 3.61158 12.3884 1.33253 9.55944 1.33253Z" fill="#666680"/>
</svg>
