<svg width="18" height="6" viewBox="0 0 18 6" fill="none" xmlns="http://www.w3.org/2000/svg">
<path d="M2.6 0C1.17094 0 0 1.17137 0 2.6C0 4.02878 1.17122 5.2 2.6 5.2C4.02878 5.2 5.2 4.02878 5.2 2.6C5.2 1.17122 4.02878 0 2.6 0ZM9 0C7.57094 0 6.4 1.17137 6.4 2.6C6.4 4.02878 7.57122 5.2 9 5.2C10.4288 5.2 11.6 4.02878 11.6 2.6C11.6 1.17122 10.4288 0 9 0ZM15.4 0C13.9709 0 12.8 1.17137 12.8 2.6C12.8 4.02878 13.9712 5.2 15.4 5.2C16.8291 5.2 18 4.02863 18 2.6C18 1.17122 16.8288 0 15.4 0ZM2.6 1.2C3.38002 1.2 4 1.81998 4 2.6C4 3.38003 3.38002 4 2.6 4C1.81998 4 1.2 3.38003 1.2 2.6C1.2 1.81983 1.81946 1.2 2.6 1.2ZM9 1.2C9.78002 1.2 10.4 1.81998 10.4 2.6C10.4 3.38003 9.78002 4 9 4C8.21998 4 7.6 3.38003 7.6 2.6C7.6 1.81983 8.21946 1.2 9 1.2ZM15.4 1.2C16.18 1.2 16.8 1.81998 16.8 2.6C16.8 3.38017 16.1805 4 15.4 4C14.62 4 14 3.38003 14 2.6C14 1.81983 14.6195 1.2 15.4 1.2Z" fill="#666680"/>
</svg>
