<svg width="18" height="18" viewBox="0 0 18 18" fill="none" xmlns="http://www.w3.org/2000/svg">
<path d="M4.23341 4.2893e-05C4.19678 0.000943236 4.16027 0.00452947 4.12416 0.0107727H2.74684C1.23869 0.0107727 0 1.24946 0 2.75761V15.2433C0 16.7514 1.23869 17.9901 2.74684 17.9901H3.62279C3.70321 18.0033 3.78525 18.0033 3.86567 17.9901H14.1107C14.1911 18.0033 14.2732 18.0033 14.3536 17.9901H15.2325C16.7406 17.9901 17.9793 16.7514 17.9793 15.2433V4.75532C17.9793 4.64951 17.9568 4.54491 17.9135 4.44841C17.8701 4.3519 17.8068 4.26568 17.7277 4.19541L13.2328 0.200008C13.0958 0.0781684 12.9187 0.0108377 12.7354 0.0107727H12.3588C12.2784 -0.00243792 12.1964 -0.00243792 12.1159 0.0107727H4.36802C4.32357 0.00315145 4.27851 -0.000439741 4.23341 4.2893e-05ZM2.74684 1.50905H3.49598V4.25589C3.49598 5.21227 4.28759 6.00388 5.24397 6.00388H11.2371C12.1935 6.00388 12.9851 5.21227 12.9851 4.25589V1.98409L16.481 5.09184V15.2433C16.481 15.9416 15.9308 16.4918 15.2325 16.4918H14.9828V10.7484C14.9828 9.79204 14.1912 9.00043 13.2348 9.00043H4.74454C3.78817 9.00043 2.99655 9.79204 2.99655 10.7484V16.4918H2.74684C2.04853 16.4918 1.49828 15.9416 1.49828 15.2433V2.75761C1.49828 2.0593 2.04853 1.50905 2.74684 1.50905ZM4.99426 1.50905H11.4868V4.25589C11.4868 4.40324 11.3844 4.5056 11.2371 4.5056H5.24397C5.09662 4.5056 4.99426 4.40324 4.99426 4.25589V1.50905ZM4.74454 10.4987H13.2348C13.3821 10.4987 13.4845 10.6011 13.4845 10.7484V16.4918H4.49483V10.7484C4.49483 10.6011 4.59719 10.4987 4.74454 10.4987Z" fill="#D9D9FF"/>
</svg>
