<svg width="18" height="18" viewBox="0 0 18 18" fill="none" xmlns="http://www.w3.org/2000/svg">
<path d="M2.25 0C1.01625 0 0 1.01625 0 2.25V15.75C0 16.9838 1.01625 18 2.25 18H11.75C11.9489 18 12.1396 17.9209 12.2803 17.7803C12.2829 17.7777 12.2855 17.7751 12.2881 17.7725L17.7803 12.2803C17.9209 12.1396 18 11.9489 18 11.75V2.25C18 1.01625 16.9838 0 15.75 0H2.25ZM2.25 1.5H15.75C16.1733 1.5 16.5 1.82675 16.5 2.25V11H13.25C12.0162 11 11 12.0162 11 13.25V16.5H2.25C1.82675 16.5 1.5 16.1733 1.5 15.75V2.25C1.5 1.82675 1.82675 1.5 2.25 1.5ZM4.75 3.99902C4.65062 3.99762 4.55194 4.01598 4.45972 4.05304C4.36749 4.0901 4.28355 4.14512 4.21277 4.2149C4.142 4.28469 4.08579 4.36784 4.04743 4.45953C4.00907 4.55123 3.98932 4.64963 3.98932 4.74902C3.98932 4.84842 4.00907 4.94682 4.04743 5.03851C4.08579 5.13021 4.142 5.21336 4.21277 5.28314C4.28355 5.35293 4.36749 5.40795 4.45972 5.44501C4.55194 5.48207 4.65062 5.50043 4.75 5.49902H13.25C13.3494 5.50043 13.4481 5.48207 13.5403 5.44501C13.6325 5.40795 13.7164 5.35293 13.7872 5.28314C13.858 5.21336 13.9142 5.13021 13.9526 5.03851C13.9909 4.94682 14.0107 4.84842 14.0107 4.74902C14.0107 4.64963 13.9909 4.55123 13.9526 4.45953C13.9142 4.36784 13.858 4.28469 13.7872 4.2149C13.7164 4.14512 13.6325 4.0901 13.5403 4.05304C13.4481 4.01598 13.3494 3.99762 13.25 3.99902H4.75ZM4.75 7.49902C4.65062 7.49762 4.55194 7.51598 4.45972 7.55304C4.36749 7.5901 4.28355 7.64512 4.21277 7.7149C4.142 7.78469 4.08579 7.86784 4.04743 7.95953C4.00907 8.05123 3.98932 8.14963 3.98932 8.24902C3.98932 8.34842 4.00907 8.44682 4.04743 8.53851C4.08579 8.63021 4.142 8.71336 4.21277 8.78314C4.28355 8.85293 4.36749 8.90795 4.45972 8.94501C4.55194 8.98207 4.65062 9.00043 4.75 8.99902H11.25C11.3494 9.00043 11.4481 8.98207 11.5403 8.94501C11.6325 8.90795 11.7164 8.85293 11.7872 8.78314C11.858 8.71336 11.9142 8.63021 11.9526 8.53851C11.9909 8.44682 12.0107 8.34842 12.0107 8.24902C12.0107 8.14963 11.9909 8.05123 11.9526 7.95953C11.9142 7.86784 11.858 7.78469 11.7872 7.7149C11.7164 7.64512 11.6325 7.5901 11.5403 7.55304C11.4481 7.51598 11.3494 7.49762 11.25 7.49902H4.75ZM13.25 12.5H15.4395L12.5 15.4395V13.25C12.5 12.8268 12.8268 12.5 13.25 12.5Z" fill="#D9D9FF"/>
</svg>
