<svg width="7" height="12" viewBox="0 0 7 12" fill="none" xmlns="http://www.w3.org/2000/svg">
<path d="M1.41537 1.52588e-05C1.48118 -0.000365257 1.54641 0.0122471 1.60733 0.0371294C1.66825 0.0620117 1.72366 0.0986748 1.77038 0.145016L5.85537 4.23001C6.08819 4.46224 6.27291 4.73812 6.39894 5.04184C6.52497 5.34557 6.58984 5.67117 6.58984 6.00001C6.58984 6.32884 6.52497 6.65445 6.39894 6.95817C6.27291 7.2619 6.08819 7.53778 5.85537 7.77L1.77038 11.855C1.72376 11.9016 1.66841 11.9386 1.6075 11.9638C1.54659 11.9891 1.4813 12.002 1.41537 12.002C1.34945 12.002 1.28416 11.9891 1.22325 11.9638C1.16234 11.9386 1.10699 11.9016 1.06038 11.855C1.01376 11.8084 0.976775 11.753 0.951545 11.6921C0.926315 11.6312 0.913329 11.5659 0.913329 11.5C0.913329 11.4341 0.926315 11.3688 0.951545 11.3079C0.976775 11.247 1.01376 11.1916 1.06038 11.145L5.14537 7.06001C5.42628 6.77876 5.58405 6.39751 5.58405 6.00001C5.58405 5.60251 5.42628 5.22126 5.14537 4.94001L1.06038 0.855014C1.01351 0.808533 0.976313 0.753233 0.950929 0.692303C0.925544 0.631373 0.912476 0.566021 0.912476 0.500015C0.912476 0.434009 0.925544 0.368656 0.950929 0.307727C0.976313 0.246798 1.01351 0.191497 1.06038 0.145016C1.1071 0.0986748 1.1625 0.0620117 1.22342 0.0371294C1.28434 0.0122471 1.34957 -0.000365257 1.41537 1.52588e-05Z" fill="#A2A2B5"/>
</svg>
