<svg xmlns="http://www.w3.org/2000/svg" viewBox="0 0 48 48">
  <path d="M10.5 6C7.467 6 5 8.468 5 11.5L5 13.5L5 36.5C5 39.532 7.467 42 10.5 42L25.029297 42C25.015297 41.834 25 41.669 25 41.5C25 40.614 25.206125 39.77 25.578125 39L10.5 39C9.122 39 8 37.879 8 36.5L8 15L40 15L40 23.007812L43 24.207031L43 13.5L43 11.5C43 11.3105 42.98952 11.124082 42.970703 10.939453C42.895466 10.200938 42.674995 9.50425 42.335938 8.8808594C41.657945 7.6346085 40.510765 6.6775943 39.134766 6.2480469C39.134168 6.2478607 39.13341 6.2482329 39.132812 6.2480469C38.789218 6.140914 38.431076 6.0669919 38.0625 6.0292969C38.06186 6.0292317 38.061186 6.0293618 38.060547 6.0292969C37.875918 6.0104805 37.6895 6 37.5 6L10.5 6 z M 10.5 9C11.328 9 12 9.672 12 10.5C12 11.328 11.328 12 10.5 12C9.672 12 9 11.328 9 10.5C9 9.7755 9.5139453 9.1711953 10.197266 9.03125C10.294883 9.0112578 10.3965 9 10.5 9 z M 15.5 9C16.328 9 17 9.672 17 10.5C17 11.328 16.328 12 15.5 12C14.672 12 14 11.328 14 10.5C14 9.672 14.672 9 15.5 9 z M 36.476562 23.978516 A 1.50015 1.50015 0 0 0 35 25.5L35 37.496094 A 5.5 4.5 0 0 0 32.5 37 A 5.5 4.5 0 0 0 32.5 46 A 5.5 4.5 0 0 0 37.984375 41.230469 A 1.50015 1.50015 0 0 0 38 41L38 31.398438L43.896484 33.890625C44.370484 34.080625 44.904219 34.019375 45.324219 33.734375C45.746219 33.449375 46 32.975797 46 32.466797L46 30.675781C46 28.783781 44.864422 27.108297 43.107422 26.404297L37.369141 24.109375C37.20232 24.042427 36.97658 24.017912 36.789062 24.007812 A 1.50015 1.50015 0 0 0 36.476562 23.978516 z" fill="#D9D9FF" />
</svg>