<svg width="20" height="19" viewBox="0 0 20 19" fill="none" xmlns="http://www.w3.org/2000/svg">
<path d="M8.23633 0C7.43713 0 6.69542 0.425967 6.29297 1.11621L5.19434 3H3.25C1.46403 3 0 4.46403 0 6.25V15.75C0 17.536 1.46403 19 3.25 19H16.75C18.536 19 20 17.536 20 15.75V6.25C20 4.46403 18.536 3 16.75 3H14.8057L13.707 1.11621C13.3046 0.425967 12.5629 0 11.7637 0H8.23633ZM8.23633 1.5H11.7637C12.0315 1.5 12.2766 1.64131 12.4111 1.87207L13.7275 4.12793C13.7936 4.24109 13.8881 4.33499 14.0017 4.40027C14.1153 4.46554 14.244 4.49993 14.375 4.5H16.75C17.725 4.5 18.5 5.27497 18.5 6.25V15.75C18.5 16.725 17.725 17.5 16.75 17.5H3.25C2.27497 17.5 1.5 16.725 1.5 15.75V6.25C1.5 5.27497 2.27497 4.5 3.25 4.5H5.625C5.75602 4.49993 5.88473 4.46554 5.99832 4.40027C6.11192 4.33499 6.20643 4.24109 6.27246 4.12793L7.58887 1.87207C7.72341 1.64131 7.96853 1.5 8.23633 1.5ZM10 6C7.5236 6 5.5 8.0236 5.5 10.5C5.5 12.9764 7.5236 15 10 15C12.4764 15 14.5 12.9764 14.5 10.5C14.5 8.0236 12.4764 6 10 6ZM10 7.5C11.6657 7.5 13 8.83426 13 10.5C13 12.1657 11.6657 13.5 10 13.5C8.33426 13.5 7 12.1657 7 10.5C7 8.83426 8.33426 7.5 10 7.5Z" fill="#D9D9FF"/>
</svg>
