<svg width="15" height="18" viewBox="0 0 15 18" fill="none" xmlns="http://www.w3.org/2000/svg">
<path d="M7.2 0C4.72271 0 2.7 2.02271 2.7 4.5C2.7 6.97729 4.72271 9 7.2 9C9.67729 9 11.7 6.97729 11.7 4.5C11.7 2.02271 9.67729 0 7.2 0ZM7.2 1.35C8.94769 1.35 10.35 2.75231 10.35 4.5C10.35 6.24769 8.94769 7.65 7.2 7.65C5.45231 7.65 4.05 6.24769 4.05 4.5C4.05 2.75231 5.45231 1.35 7.2 1.35ZM2.025 10.8C0.914625 10.8 0 11.7146 0 12.825V13.3646C0 14.688 0.839121 15.8751 2.11904 16.6913C3.39897 17.5075 5.15018 18 7.2 18C9.24982 18 11.001 17.5075 12.281 16.6913C13.5609 15.8751 14.4 14.688 14.4 13.3646V12.825C14.4 11.7146 13.4854 10.8 12.375 10.8H2.025ZM2.025 12.15H12.375C12.7559 12.15 13.05 12.4441 13.05 12.825V13.3646C13.05 14.114 12.5674 14.9075 11.555 15.5531C10.5426 16.1987 9.03098 16.65 7.2 16.65C5.36902 16.65 3.8574 16.1987 2.84502 15.5531C1.83264 14.9075 1.35 14.114 1.35 13.3646V12.825C1.35 12.4441 1.64408 12.15 2.025 12.15Z" fill="#A2A2B5"/>
</svg>
