<?xml version="1.0" encoding="utf-8"?>
<svg xmlns="http://www.w3.org/2000/svg" viewBox="0 0 48 48" width="18" height="18">
  <path d="M24 4C12.972066 4 4 12.972074 4 24C4 35.027926 12.972066 44 24 44C35.027934 44 44 35.027926 44 24C44 12.972074 35.027934 4 24 4 z M 24 7C33.406615 7 41 14.593391 41 24C41 33.406609 33.406615 41 24 41C14.593385 41 7 33.406609 7 24C7 14.593391 14.593385 7 24 7 z M 18.5 15.498047C13.783354 15.498047 9.9366721 19.389888 10.001953 24.119141C10.065563 28.667242 13.83381 32.434435 18.380859 32.498047C22.63668 32.557287 26.216128 29.462024 26.886719 25.388672C27.137275 23.867618 25.912424 22.5 24.410156 22.5L19.5 22.5 A 1.50015 1.50015 0 1 0 19.5 25.5L23.714844 25.5C23.047107 27.814778 20.978748 29.535593 18.421875 29.5C15.534924 29.459612 13.04039 26.966023 13 24.078125C12.95728 20.983378 15.418646 18.498047 18.5 18.498047C19.65836 18.498047 20.718207 18.851087 21.603516 19.457031 A 1.50015 1.50015 0 1 0 23.298828 16.982422C21.934136 16.048366 20.27364 15.498047 18.5 15.498047 z M 33.476562 19.478516 A 1.50015 1.50015 0 0 0 32 21L32 22.5L30.5 22.5 A 1.50015 1.50015 0 1 0 30.5 25.5L32 25.5L32 27 A 1.50015 1.50015 0 1 0 35 27L35 25.5L36.5 25.5 A 1.50015 1.50015 0 1 0 36.5 22.5L35 22.5L35 21 A 1.50015 1.50015 0 0 0 33.476562 19.478516 z" fill="#597AFF" />
</svg>