<svg width="32" height="32" viewBox="0 0 32 32" fill="none" xmlns="http://www.w3.org/2000/svg">
<path d="M16 0C7.17783 0 0 7.17783 0 16C0 24.8222 7.17783 32 16 32C24.8222 32 32 24.8222 32 16C32 7.17783 24.8222 0 16 0ZM16 2.4C23.525 2.4 29.6 8.47497 29.6 16C29.6 23.525 23.525 29.6 16 29.6C8.47497 29.6 2.4 23.525 2.4 16C2.4 8.47497 8.47497 2.4 16 2.4ZM12.3313 8.94219C11.3262 9.00474 10.4 9.83575 10.4 10.925V21.075C10.4 22.5273 12.0466 23.5205 13.3313 22.8453V22.8438L22.9734 17.7688V17.7703C24.3382 17.0534 24.3384 14.9478 22.975 14.2297H22.9734L13.3313 9.15469C13.0101 8.9859 12.6663 8.92134 12.3313 8.94219ZM12.8 11.5859L21.1844 16L12.8 20.4125V11.5859Z" fill="#8A8AE5"/>
</svg>
