<svg width="22" height="17" viewBox="0 0 22 17" fill="none" xmlns="http://www.w3.org/2000/svg">
<path d="M8.40573 0.000455829C8.12026 0.00877575 7.84922 0.127866 7.65001 0.332514L0.321828 7.6607C0.11576 7.86685 0 8.1464 0 8.43789C0 8.72937 0.11576 9.00892 0.321828 9.21508L7.65001 16.5433C7.7513 16.6488 7.87262 16.733 8.00687 16.791C8.14112 16.849 8.28559 16.8797 8.43183 16.8812C8.57807 16.8826 8.72314 16.8549 8.85854 16.7997C8.99393 16.7444 9.11694 16.6626 9.22035 16.5592C9.32377 16.4558 9.40551 16.3328 9.46079 16.1974C9.51607 16.062 9.54377 15.9169 9.54229 15.7707C9.5408 15.6245 9.51015 15.48 9.45213 15.3457C9.39411 15.2115 9.30989 15.0902 9.20439 14.9889L3.75262 9.53712H20.8851C21.0308 9.53918 21.1754 9.51226 21.3106 9.45795C21.4457 9.40363 21.5688 9.32299 21.6725 9.22071C21.7762 9.11844 21.8586 8.99656 21.9148 8.86217C21.971 8.72779 22 8.58356 22 8.43789C22 8.29221 21.971 8.14799 21.9148 8.0136C21.8586 7.87921 21.7762 7.75734 21.6725 7.65506C21.5688 7.55278 21.4457 7.47214 21.3106 7.41783C21.1754 7.36351 21.0308 7.3366 20.8851 7.33866H3.75262L9.20439 1.88689C9.36297 1.73245 9.47123 1.53372 9.51501 1.31673C9.55878 1.09974 9.53603 0.874588 9.44973 0.670741C9.36343 0.466895 9.21759 0.293849 9.03132 0.174254C8.84504 0.0546579 8.627 -0.00591695 8.40573 0.000455829Z" fill="#666680"/>
</svg>
