<svg width="20" height="20" viewBox="0 0 20 20" fill="none" xmlns="http://www.w3.org/2000/svg">
<path d="M10 0C4.486 0 0 4.486 0 10C0 15.514 4.486 20 10 20C15.514 20 20 15.514 20 10C20 4.486 15.514 0 10 0ZM5.5 13C4.948 13 4.5 12.552 4.5 12C4.5 11.448 4.948 11 5.5 11C6.052 11 6.5 11.448 6.5 12C6.5 12.552 6.052 13 5.5 13ZM5.5 9C4.948 9 4.5 8.552 4.5 8C4.5 7.448 4.948 7 5.5 7C6.052 7 6.5 7.448 6.5 8C6.5 8.552 6.052 9 5.5 9ZM10 13C9.448 13 9 12.552 9 12C9 11.448 9.448 11 10 11C10.552 11 11 11.448 11 12C11 12.552 10.552 13 10 13ZM10 9C9.448 9 9 8.552 9 8C9 7.448 9.448 7 10 7C10.552 7 11 7.448 11 8C11 8.552 10.552 9 10 9ZM14.5 13C13.948 13 13.5 12.552 13.5 12C13.5 11.448 13.948 11 14.5 11C15.052 11 15.5 11.448 15.5 12C15.5 12.552 15.052 13 14.5 13ZM14.5 9C13.948 9 13.5 8.552 13.5 8C13.5 7.448 13.948 7 14.5 7C15.052 7 15.5 7.448 15.5 8C15.5 8.552 15.052 9 14.5 9Z" fill="white"/>
</svg>
