<svg width="20" height="20" viewBox="0 0 20 20" fill="none" xmlns="http://www.w3.org/2000/svg">
<path d="M9.145 0C8.42681 0 7.70883 0.0846022 6.97879 0.254848C6.68354 0.323899 6.46382 0.571924 6.43096 0.873367L6.27936 2.2555C6.22983 2.706 5.96581 3.11101 5.57341 3.33721C5.18149 3.56436 4.70002 3.58983 4.28429 3.40697L3.01284 2.84797C2.73568 2.72511 2.41266 2.79257 2.20551 3.01353C1.20165 4.08311 0.448564 5.3794 0.0309254 6.76185C-0.0571739 7.05186 0.0484635 7.36546 0.292284 7.54499L1.41864 8.37092C1.78389 8.63951 2.00181 9.06997 2.00181 9.52332C2.00181 9.97668 1.78344 10.4076 1.41771 10.6757L0.291354 11.5007C0.0470571 11.6803 -0.0571739 11.9943 0.0309254 12.2848C0.44904 13.6672 1.20072 14.9635 2.20458 16.0331C2.4122 16.2541 2.73663 16.3201 3.01284 16.1977L4.28336 15.6397C4.69814 15.4573 5.18008 15.4832 5.57248 15.7094C5.96488 15.9361 6.2289 16.3406 6.27843 16.7911L6.43003 18.1723C6.46289 18.4738 6.68261 18.7218 6.97786 18.7909C7.70837 18.9614 8.43783 19.0476 9.145 19.0476C9.85218 19.0476 10.5812 18.9618 11.3112 18.7918C11.4817 18.7523 11.6219 18.648 11.7205 18.5128C11.2261 18.2566 10.7852 17.9163 10.4109 17.511C9.52702 17.6549 8.6798 17.6527 7.79356 17.4999L7.69962 16.6358C7.60057 15.7339 7.07253 14.9253 6.28773 14.4724C5.50245 14.0186 4.53764 13.9667 3.70855 14.332L2.91517 14.6798C2.33372 13.9788 1.87248 13.1853 1.55722 12.3443L2.26224 11.8281C2.9937 11.2919 3.43045 10.4296 3.43045 9.52332C3.43045 8.61709 2.99416 7.75474 2.26317 7.21853L1.55815 6.70232C1.87293 5.86085 2.33465 5.06734 2.9161 4.36683L3.70855 4.71469C4.53811 5.07947 5.50245 5.02712 6.28773 4.57425C7.07253 4.12137 7.60105 3.31277 7.69962 2.41083L7.79356 1.54676C8.70837 1.38866 9.58164 1.38866 10.4964 1.54676L10.5904 2.41083C10.6894 3.31277 11.2175 4.12137 12.0023 4.57425C12.7871 5.02712 13.7514 5.07947 14.5815 4.71469L15.3748 4.36683C15.9563 5.06782 16.4175 5.86133 16.7328 6.70232L16.0278 7.21853C15.2963 7.75474 14.8596 8.61709 14.8596 9.52332C14.8596 9.55571 14.8642 9.58767 14.8651 9.62005C15.4585 9.74149 16.0098 9.97484 16.5003 10.2944C16.3698 10.0491 16.2882 9.77429 16.2882 9.52332C16.2882 9.06997 16.5066 8.63903 16.8723 8.37092L17.9987 7.54592C18.243 7.36639 18.3472 7.05234 18.2591 6.76185C17.841 5.3794 17.0893 4.08311 16.0854 3.01353C15.8778 2.79305 15.5548 2.72652 15.2772 2.8489L14.0066 3.40697C13.5919 3.58936 13.1099 3.56341 12.7175 3.33721C12.3251 3.11101 12.0611 2.706 12.0116 2.2555L11.859 0.873367C11.8262 0.571924 11.6065 0.323899 11.3112 0.254848C10.5814 0.0846022 9.86319 0 9.145 0ZM9.145 5.71362C7.04443 5.71362 5.3353 7.42275 5.3353 9.52332C5.3353 11.6239 7.04443 13.333 9.145 13.333C9.17739 13.333 9.20842 13.3288 9.2408 13.3284C9.35462 12.7703 9.57069 12.2502 9.86118 11.7816C9.63403 11.854 9.39644 11.9044 9.145 11.9044C7.83208 11.9044 6.76394 10.8362 6.76394 9.52332C6.76394 8.2104 7.83208 7.14226 9.145 7.14226C10.4579 7.14226 11.5261 8.2104 11.5261 9.52332C11.5261 9.77476 11.4757 10.0128 11.4033 10.2404C11.8719 9.94994 12.3919 9.73387 12.9501 9.62005C12.9505 9.58719 12.9547 9.55571 12.9547 9.52332C12.9547 7.42275 11.2456 5.71362 9.145 5.71362ZM13.9071 10.4757C11.8066 10.4757 10.0974 12.1849 10.0974 14.2854C10.0974 16.386 11.8066 18.0951 13.9071 18.0951C14.7 18.0951 15.4359 17.851 16.0464 17.4348L18.4023 19.7907C18.5418 19.9307 18.7245 20 18.9074 20C19.0902 20 19.2729 19.9303 19.4124 19.7907C19.691 19.5117 19.691 19.0597 19.4124 18.7806L17.0574 16.4247C17.4731 15.8142 17.7168 15.0783 17.7168 14.2854C17.7168 12.1849 16.0077 10.4757 13.9071 10.4757ZM13.9071 11.9044C15.22 11.9044 16.2882 12.9725 16.2882 14.2854C16.2882 15.5984 15.22 16.6665 13.9071 16.6665C12.5942 16.6665 11.5261 15.5984 11.5261 14.2854C11.5261 12.9725 12.5942 11.9044 13.9071 11.9044Z" fill="#666680"/>
</svg>
