<svg width="22" height="14" viewBox="0 0 22 14" fill="none" xmlns="http://www.w3.org/2000/svg">
<path d="M15.0652 0C13.5458 0 12.144 0.496913 11 1.32861C9.856 0.496913 8.45422 0 6.93478 0C3.11109 0 0 3.11109 0 6.93478C0 10.7585 3.11109 13.8696 6.93478 13.8696C8.45422 13.8696 9.856 13.3727 11 12.541C12.144 13.3727 13.5458 13.8696 15.0652 13.8696C18.8889 13.8696 22 10.7585 22 6.93478C22 3.11109 18.8889 0 15.0652 0ZM11 10.6265C10.1119 9.64939 9.56522 8.35617 9.56522 6.93478C9.56522 5.51339 10.1119 4.22017 11 3.24309C11.8881 4.22017 12.4348 5.51339 12.4348 6.93478C12.4348 8.35617 11.8881 9.64939 11 10.6265ZM15.0652 12.4348C13.9695 12.4348 12.9503 12.1091 12.0919 11.5548C13.1933 10.3266 13.8696 8.71009 13.8696 6.93478C13.8696 5.15948 13.1933 3.54296 12.0919 2.31478C12.9503 1.76048 13.9695 1.43478 15.0652 1.43478C18.0979 1.43478 20.5652 3.90213 20.5652 6.93478C20.5652 9.96744 18.0979 12.4348 15.0652 12.4348Z" fill="white"/>
</svg>
