<svg width="16" height="16" viewBox="0 0 16 16" fill="none" xmlns="http://www.w3.org/2000/svg">
<path d="M13.2632 0C12.8427 0.000528564 12.4281 0.0979064 12.0514 0.284579C11.6747 0.471251 11.3461 0.742199 11.091 1.0764C10.8359 1.41061 10.6613 1.79908 10.5806 2.21168C10.4999 2.62429 10.5154 3.04993 10.6258 3.45559L10.5773 3.47944L4.94243 6.29605L4.89391 6.3199C4.63839 5.99133 4.3113 5.72536 3.9375 5.54224C3.56371 5.35912 3.15308 5.26367 2.73684 5.26316C2.01099 5.26316 1.31486 5.5515 0.801602 6.06476C0.288345 6.57802 0 7.27414 0 8C0 8.72586 0.288345 9.42198 0.801602 9.93524C1.31486 10.4485 2.01099 10.7368 2.73684 10.7368C3.15336 10.7366 3.56431 10.6412 3.93841 10.4581C4.31251 10.275 4.63987 10.0089 4.89556 9.6801L4.94243 9.70395L10.5773 12.5206L10.6234 12.5436C10.5127 12.9495 10.4972 13.3755 10.5779 13.7883C10.6587 14.2012 10.8335 14.59 11.0889 14.9243C11.3442 15.2587 11.6732 15.5297 12.0503 15.7162C12.4274 15.9028 12.8424 15.9999 13.2632 16C13.989 16 14.6851 15.7117 15.1984 15.1984C15.7117 14.6851 16 13.989 16 13.2632C16 12.5373 15.7117 11.8412 15.1984 11.3279C14.6851 10.8147 13.989 10.5263 13.2632 10.5263C12.8795 10.5269 12.5003 10.608 12.1501 10.7646C11.7999 10.9211 11.4865 11.1496 11.2303 11.435L11.1414 11.3906L5.5074 8.57401L5.41941 8.53043C5.48822 8.18041 5.48794 7.82031 5.41859 7.47039L5.5074 7.42599L11.1414 4.60938L11.2278 4.56579C11.4844 4.85143 11.7982 5.07988 12.1489 5.2363C12.4995 5.39271 12.8792 5.4736 13.2632 5.47368C13.989 5.47368 14.6851 5.18534 15.1984 4.67208C15.7117 4.15882 16 3.4627 16 2.73684C16 2.01099 15.7117 1.31486 15.1984 0.801602C14.6851 0.288345 13.989 0 13.2632 0Z" fill="#666680"/>
</svg>
