<svg width="20" height="16" viewBox="0 0 20 16" fill="none" xmlns="http://www.w3.org/2000/svg">
<path d="M2.75 0C1.2335 0 0 1.234 0 2.75V5.75V13.25C0 14.766 1.2335 16 2.75 16H17.25C18.7665 16 20 14.766 20 13.25V5.75V2.75C20 1.234 18.7665 0 17.25 0H2.75ZM2.75 1.5H17.25C17.939 1.5 18.5 2.0605 18.5 2.75V3.30664C18.1239 3.11235 17.6996 3 17.25 3H2.75C2.3004 3 1.87614 3.11235 1.5 3.30664V2.75C1.5 2.0605 2.061 1.5 2.75 1.5ZM2.75 4.5H17.25C17.9491 4.5 18.5 5.05089 18.5 5.75V6.30078C18.125 6.10828 17.7 6 17.25 6H13.0908C12.3403 6 11.6699 6.49352 11.4229 7.22852C11.2174 7.83952 10.6455 8.25 10 8.25C9.3545 8.25 8.78312 7.83952 8.57812 7.22852C8.33113 6.49352 7.66018 6 6.90918 6H2.75C2.3 6 1.875 6.10828 1.5 6.30078V5.75C1.5 5.05089 2.05089 4.5 2.75 4.5Z" fill="white"/>
</svg>
