<svg width="18" height="18" viewBox="0 0 18 18" fill="none" xmlns="http://www.w3.org/2000/svg">
<path d="M5.44737 0C2.44724 0 0 2.44724 0 5.44737V12.5526C0 15.5524 2.44715 18 5.44737 18H12.5526C15.5524 18 18 15.5524 18 12.5526V5.44737C18 2.44715 15.5524 0 12.5526 0H5.44737ZM5.44737 1.42105H12.5526C14.7843 1.42105 16.5789 3.21527 16.5789 5.44737V12.5526C16.5789 14.7842 14.7842 16.5789 12.5526 16.5789H5.44737C3.21527 16.5789 1.42105 14.7843 1.42105 12.5526V5.44737C1.42105 3.21518 3.21518 1.42105 5.44737 1.42105ZM13.7368 3.31579C13.2134 3.31579 12.7895 3.73974 12.7895 4.26316C12.7895 4.78658 13.2134 5.21053 13.7368 5.21053C14.2603 5.21053 14.6842 4.78658 14.6842 4.26316C14.6842 3.73974 14.2603 3.31579 13.7368 3.31579ZM9 4.26316C6.39245 4.26316 4.26316 6.39245 4.26316 9C4.26316 11.6075 6.39245 13.7368 9 13.7368C11.6075 13.7368 13.7368 11.6075 13.7368 9C13.7368 6.39245 11.6075 4.26316 9 4.26316ZM9 5.68421C10.8394 5.68421 12.3158 7.1606 12.3158 9C12.3158 10.8394 10.8394 12.3158 9 12.3158C7.1606 12.3158 5.68421 10.8394 5.68421 9C5.68421 7.1606 7.1606 5.68421 9 5.68421Z" fill="#597AFF"/>
</svg>
