<svg width="14" height="8" viewBox="0 0 14 8" fill="none" xmlns="http://www.w3.org/2000/svg">
<path d="M6.83297e-05 7.20335C0.00184019 7.31934 0.0381803 7.43216 0.104438 7.52738C0.170696 7.6226 0.263859 7.69589 0.372003 7.73786C0.480148 7.77983 0.598356 7.78857 0.711501 7.76298C0.824646 7.73739 0.927581 7.67861 1.00713 7.59419L7.0002 1.41975L12.9933 7.59419C13.0463 7.65035 13.1099 7.69541 13.1805 7.72676C13.2511 7.7581 13.3272 7.77511 13.4044 7.77679C13.4817 7.77847 13.5584 7.76479 13.6303 7.73654C13.7022 7.70829 13.7677 7.66603 13.8232 7.61223C13.8786 7.55843 13.9227 7.49415 13.9531 7.42313C13.9834 7.35211 13.9994 7.27577 14 7.19854C14.0006 7.1213 13.9858 7.04472 13.9566 6.97324C13.9273 6.90176 13.8841 6.83681 13.8296 6.78216L7.41835 0.176662C7.36402 0.120719 7.29902 0.0762455 7.22719 0.0458767C7.15537 0.0155079 7.07818 -0.000139546 7.0002 -0.000139542C6.92221 -0.000139539 6.84502 0.0155079 6.7732 0.0458767C6.70137 0.0762455 6.63637 0.120719 6.58204 0.176662L0.170822 6.78216C0.115604 6.83735 0.0720356 6.90307 0.0427035 6.97543C0.0133713 7.04778 -0.00112723 7.12529 6.83297e-05 7.20335Z" fill="#83839C"/>
</svg>
