<svg width="18" height="18" viewBox="0 0 18 18" fill="none" xmlns="http://www.w3.org/2000/svg">
<path d="M14.8496 0C13.6139 0 12.5982 1.01659 12.5982 2.25231V15.7477C12.5982 16.9834 13.6139 18 14.8496 18C16.0853 18 17.1019 16.9834 17.1019 15.7477V2.25231C17.1019 1.01659 16.0853 0 14.8496 0ZM14.8496 1.3498C15.356 1.3498 15.7521 1.74588 15.7521 2.25231V15.7477C15.7521 16.2541 15.356 16.6502 14.8496 16.6502C14.3432 16.6502 13.948 16.2541 13.948 15.7477V2.25231C13.948 1.74588 14.3432 1.3498 14.8496 1.3498ZM2.25143 4.05204C1.01571 4.05204 0 5.06776 0 6.30347V15.7477C0 16.9834 1.01571 18 2.25143 18C3.48714 18 4.50373 16.9834 4.50373 15.7477V6.30347C4.50373 5.06776 3.48714 4.05204 2.25143 4.05204ZM2.25143 5.40185C2.75786 5.40185 3.15393 5.79704 3.15393 6.30347V15.7477C3.15393 16.2541 2.75786 16.6502 2.25143 16.6502C1.745 16.6502 1.3498 16.2541 1.3498 15.7477V6.30347C1.3498 5.79704 1.745 5.40185 2.25143 5.40185ZM8.55314 8.09881C7.31743 8.09881 6.30083 9.11541 6.30083 10.3511V15.7477C6.30083 16.9834 7.31743 18 8.55314 18C9.78886 18 10.8054 16.9834 10.8054 15.7477V10.3511C10.8054 9.11541 9.78886 8.09881 8.55314 8.09881ZM8.55314 9.44862C9.05957 9.44862 9.45565 9.84469 9.45565 10.3511V15.7477C9.45565 16.2541 9.05957 16.6502 8.55314 16.6502C8.04671 16.6502 7.65064 16.2541 7.65064 15.7477V10.3511C7.65064 9.84469 8.04671 9.44862 8.55314 9.44862Z" fill="#A2A2B5"/>
</svg>
