<svg width="20" height="20" viewBox="0 0 20 20" fill="none" xmlns="http://www.w3.org/2000/svg">
<path d="M10 0C9.80109 4.19176e-09 9.61032 0.0790175 9.46967 0.21967C9.32902 0.360322 9.25 0.551088 9.25 0.75C9.25 0.948912 9.32902 1.13968 9.46967 1.28033C9.61032 1.42098 9.80109 1.5 10 1.5C10.1989 1.5 10.3897 1.42098 10.5303 1.28033C10.671 1.13968 10.75 0.948912 10.75 0.75C10.75 0.551088 10.671 0.360322 10.5303 0.21967C10.3897 0.0790175 10.1989 4.19176e-09 10 0ZM12.752 0.412109C12.5704 0.408823 12.3937 0.471544 12.2549 0.588627C12.116 0.70571 12.0244 0.869201 11.9969 1.04875C11.9695 1.22829 12.0081 1.4117 12.1057 1.56491C12.2032 1.71812 12.3531 1.83073 12.5273 1.88184C15.1876 2.70921 17.2908 4.81239 18.1182 7.47266C18.1474 7.56673 18.1949 7.65412 18.2579 7.72984C18.3209 7.80557 18.3982 7.86814 18.4854 7.91398C18.5726 7.95982 18.668 7.98804 18.7661 7.99703C18.8642 8.00602 18.9631 7.99559 19.0571 7.96635C19.1512 7.93711 19.2386 7.88963 19.3143 7.82661C19.39 7.7636 19.4526 7.68628 19.4984 7.59909C19.5443 7.51189 19.5725 7.41652 19.5815 7.31842C19.5905 7.22032 19.58 7.12141 19.5508 7.02734C18.5762 3.89361 16.1064 1.42385 12.9727 0.449219C12.9014 0.425882 12.827 0.413373 12.752 0.412109ZM7.22559 0.413086C7.15818 0.416159 7.0915 0.428313 7.02734 0.449219C3.89361 1.42385 1.42385 3.89361 0.449219 7.02734C0.419965 7.12141 0.409528 7.22033 0.418504 7.31843C0.427479 7.41654 0.455692 7.51191 0.50153 7.59911C0.547368 7.68631 0.609934 7.76363 0.685655 7.82665C0.761376 7.88967 0.848769 7.93716 0.942844 7.9664C1.03692 7.99564 1.13583 8.00606 1.23394 7.99708C1.33204 7.98809 1.42741 7.95986 1.51461 7.91402C1.6018 7.86817 1.67911 7.80559 1.74212 7.72986C1.80513 7.65413 1.85261 7.56673 1.88184 7.47266C2.70921 4.81239 4.81239 2.70921 7.47266 1.88184C7.64858 1.83 7.79942 1.71551 7.89665 1.56001C7.99388 1.40451 8.03078 1.21877 8.00035 1.03791C7.96993 0.857054 7.8743 0.693608 7.73154 0.578477C7.58878 0.463346 7.40878 0.404508 7.22559 0.413086ZM14.2314 5C14.1399 5.00244 14.0495 5.02164 13.9648 5.05664C13.9648 5.05664 12.8833 5.50204 11.6406 6.10742C10.398 6.71281 9.0215 7.41795 8.21973 8.21973C7.41795 9.0215 6.71281 10.398 6.10742 11.6406C5.50204 12.8833 5.05664 13.9648 5.05664 13.9648C5 14.1026 4.98566 14.2541 5.01546 14.4001C5.04526 14.5461 5.11785 14.6798 5.22397 14.7844C5.33008 14.8889 5.46493 14.9595 5.61131 14.9871C5.75769 15.0147 5.90898 14.9981 6.0459 14.9395C6.0459 14.9395 7.15499 14.4644 8.41016 13.8447C9.66533 13.2251 11.0214 12.5392 11.7803 11.7803C12.5392 11.0214 13.2251 9.66533 13.8447 8.41016C14.4644 7.15499 14.9395 6.0459 14.9395 6.0459C14.9891 5.93034 15.0089 5.80415 14.997 5.67894C14.9851 5.55373 14.9419 5.43352 14.8714 5.32937C14.8009 5.22521 14.7054 5.14046 14.5935 5.08291C14.4817 5.02535 14.3572 4.99684 14.2314 5ZM12.7227 7.2627C12.6116 7.4977 12.6254 7.49019 12.499 7.74609C11.8999 8.95967 11.0858 10.3536 10.7197 10.7197C10.3536 11.0858 8.95967 11.8999 7.74609 12.499C7.49019 12.6254 7.4977 12.6116 7.2627 12.7227C7.36049 12.5125 7.34435 12.5242 7.45508 12.2969C8.03719 11.102 8.83205 9.7285 9.28027 9.28027C9.7285 8.83205 11.102 8.03719 12.2969 7.45508C12.5242 7.34435 12.5125 7.36049 12.7227 7.2627ZM0.75 9.25C0.551088 9.25 0.360322 9.32902 0.21967 9.46967C0.0790175 9.61032 0 9.80109 0 10C0 10.1989 0.0790175 10.3897 0.21967 10.5303C0.360322 10.671 0.551088 10.75 0.75 10.75C0.948912 10.75 1.13968 10.671 1.28033 10.5303C1.42098 10.3897 1.5 10.1989 1.5 10C1.5 9.80109 1.42098 9.61032 1.28033 9.46967C1.13968 9.32902 0.948912 9.25 0.75 9.25ZM10 9.25C9.80109 9.25 9.61032 9.32902 9.46967 9.46967C9.32902 9.61032 9.25 9.80109 9.25 10C9.25 10.1989 9.32902 10.3897 9.46967 10.5303C9.61032 10.671 9.80109 10.75 10 10.75C10.1989 10.75 10.3897 10.671 10.5303 10.5303C10.671 10.3897 10.75 10.1989 10.75 10C10.75 9.80109 10.671 9.61032 10.5303 9.46967C10.3897 9.32902 10.1989 9.25 10 9.25ZM19.25 9.25C19.0511 9.25 18.8603 9.32902 18.7197 9.46967C18.579 9.61032 18.5 9.80109 18.5 10C18.5 10.1989 18.579 10.3897 18.7197 10.5303C18.8603 10.671 19.0511 10.75 19.25 10.75C19.4489 10.75 19.6397 10.671 19.7803 10.5303C19.921 10.3897 20 10.1989 20 10C20 9.80109 19.921 9.61032 19.7803 9.46967C19.6397 9.32902 19.4489 9.25 19.25 9.25ZM1.15039 11.9902C1.03299 11.9921 0.917669 12.0215 0.813709 12.0761C0.709749 12.1307 0.620054 12.2089 0.551844 12.3045C0.483633 12.4 0.438812 12.5103 0.420987 12.6263C0.403163 12.7424 0.412833 12.861 0.449219 12.9727C1.42385 16.1064 3.89361 18.5762 7.02734 19.5508C7.12141 19.58 7.22032 19.5905 7.31842 19.5815C7.41652 19.5725 7.51189 19.5443 7.59909 19.4984C7.68628 19.4526 7.7636 19.39 7.82661 19.3143C7.88963 19.2386 7.93711 19.1512 7.96635 19.0571C7.99559 18.9631 8.00602 18.8642 7.99703 18.7661C7.98804 18.668 7.95982 18.5726 7.91398 18.4854C7.86814 18.3982 7.80557 18.3209 7.72984 18.2579C7.65412 18.1949 7.56673 18.1474 7.47266 18.1182C4.81239 17.2908 2.70921 15.1876 1.88184 12.5273C1.83533 12.3702 1.73864 12.2326 1.60655 12.1356C1.47446 12.0386 1.31424 11.9876 1.15039 11.9902ZM18.8271 11.9902C18.6671 11.9924 18.512 12.0457 18.3845 12.1424C18.2569 12.239 18.1636 12.3739 18.1182 12.5273C17.2908 15.1876 15.1876 17.2908 12.5273 18.1182C12.4333 18.1474 12.3459 18.1949 12.2702 18.2579C12.1944 18.3209 12.1319 18.3982 12.086 18.4854C12.0402 18.5726 12.012 18.668 12.003 18.7661C11.994 18.8642 12.0044 18.9631 12.0337 19.0571C12.0629 19.1512 12.1104 19.2386 12.1734 19.3143C12.2364 19.39 12.3137 19.4526 12.4009 19.4984C12.4881 19.5443 12.5835 19.5725 12.6816 19.5815C12.7797 19.5905 12.8786 19.58 12.9727 19.5508C16.1064 18.5762 18.5762 16.1064 19.5508 12.9727C19.5878 12.8592 19.5971 12.7386 19.5781 12.6208C19.5591 12.503 19.5123 12.3915 19.4416 12.2954C19.3708 12.1993 19.2781 12.1215 19.1713 12.0685C19.0644 12.0154 18.9464 11.9886 18.8271 11.9902ZM10 18.5C9.80109 18.5 9.61032 18.579 9.46967 18.7197C9.32902 18.8603 9.25 19.0511 9.25 19.25C9.25 19.4489 9.32902 19.6397 9.46967 19.7803C9.61032 19.921 9.80109 20 10 20C10.1989 20 10.3897 19.921 10.5303 19.7803C10.671 19.6397 10.75 19.4489 10.75 19.25C10.75 19.0511 10.671 18.8603 10.5303 18.7197C10.3897 18.579 10.1989 18.5 10 18.5Z" fill="#A2A2B5"/>
</svg>
