<svg width="14" height="8" viewBox="0 0 14 8" fill="none" xmlns="http://www.w3.org/2000/svg">
<path d="M13.9999 0.573993C13.9982 0.458004 13.9618 0.34518 13.8956 0.249961C13.8293 0.154742 13.7361 0.0814587 13.628 0.0394884C13.5199 -0.00248186 13.4016 -0.0112296 13.2885 0.0143642C13.1754 0.039958 13.0724 0.0987294 12.9929 0.183158L6.9998 6.3576L1.00674 0.183157C0.953721 0.126997 0.890069 0.0819339 0.819483 0.0505861C0.748896 0.0192383 0.672782 0.00223097 0.595566 0.000552155C0.51835 -0.00112666 0.44157 0.0125564 0.369688 0.0408066C0.297806 0.0690569 0.232254 0.111311 0.176842 0.165113C0.12143 0.218916 0.0772648 0.283194 0.0469093 0.354213C0.0165539 0.425232 0.000614144 0.501575 1.71408e-05 0.578807C-0.000578909 0.65604 0.0141792 0.73262 0.0434341 0.8041C0.0726881 0.875579 0.115856 0.940532 0.17043 0.995184L6.58165 7.60068C6.63598 7.65662 6.70098 7.7011 6.77281 7.73147C6.84463 7.76184 6.92182 7.77748 6.9998 7.77748C7.07779 7.77748 7.15498 7.76184 7.2268 7.73147C7.29863 7.7011 7.36363 7.65662 7.41796 7.60068L13.8292 0.995185C13.8844 0.939992 13.928 0.874269 13.9573 0.801917C13.9866 0.729564 14.0011 0.652056 13.9999 0.573993Z" fill="#83839C"/>
</svg>
