<svg width="19" height="19" viewBox="0 0 19 19" fill="none" xmlns="http://www.w3.org/2000/svg">
<path d="M1.42708 0.125C0.716878 0.125 0.125 0.716878 0.125 1.42708V3.03638C0.125 4.23255 0.674728 5.36398 1.61426 6.10441L6.89583 10.266V18.0938C6.8959 18.2372 6.93548 18.3779 7.01021 18.5004C7.08495 18.6228 7.19196 18.7224 7.31952 18.788C7.44708 18.8537 7.59026 18.883 7.73336 18.8727C7.87647 18.8624 8.01396 18.8128 8.13078 18.7295L11.7766 16.1254C11.8779 16.0531 11.9604 15.9577 12.0174 15.8472C12.0744 15.7366 12.1041 15.614 12.1042 15.4896V10.265L17.3857 6.10441C18.3253 5.36398 18.875 4.23255 18.875 3.03638V1.42708C18.875 0.716878 18.2831 0.125 17.5729 0.125H1.42708ZM1.6875 1.6875H17.3125V3.03638C17.3125 3.75479 16.984 4.4316 16.4194 4.87659L11.212 8.97917H7.78796L2.58065 4.87659C2.01601 4.4316 1.6875 3.75479 1.6875 3.03638V1.6875ZM8.45833 10.5417H10.5417V15.0878L8.45833 16.576V10.5417Z" fill="#666680"/>
</svg>
