<svg width="18" height="18" viewBox="0 0 18 18" fill="none" xmlns="http://www.w3.org/2000/svg">
<path d="M8.98922 7.38369e-05C8.79405 0.0029276 8.60768 0.0817493 8.46969 0.219799L5.4697 3.21979C5.39773 3.2889 5.34026 3.37167 5.30067 3.46327C5.26109 3.55486 5.24017 3.65344 5.23916 3.75322C5.23814 3.853 5.25705 3.95197 5.29477 4.04436C5.33248 4.13674 5.38825 4.22066 5.45881 4.29122C5.52937 4.36178 5.6133 4.41755 5.70568 4.45527C5.79806 4.49298 5.89704 4.51189 5.99682 4.51087C6.0966 4.50986 6.19517 4.48895 6.28677 4.44936C6.37836 4.40977 6.46114 4.35231 6.53025 4.28033L8.24997 2.56061V13.25C8.24856 13.3494 8.26692 13.4481 8.30398 13.5403C8.34104 13.6325 8.39606 13.7165 8.46585 13.7872C8.53563 13.858 8.61878 13.9142 8.71047 13.9526C8.80217 13.9909 8.90057 14.0107 8.99996 14.0107C9.09936 14.0107 9.19776 13.9909 9.28945 13.9526C9.38114 13.9142 9.4643 13.858 9.53408 13.7872C9.60386 13.7165 9.65888 13.6325 9.69594 13.5403C9.733 13.4481 9.75137 13.3494 9.74996 13.25V2.56061L11.4697 4.28033C11.5388 4.35231 11.6216 4.40977 11.7132 4.44936C11.8048 4.48895 11.9033 4.50986 12.0031 4.51087C12.1029 4.51189 12.2019 4.49298 12.2942 4.45527C12.3866 4.41755 12.4706 4.36178 12.5411 4.29122C12.6117 4.22066 12.6674 4.13674 12.7052 4.04436C12.7429 3.95197 12.7618 3.853 12.7608 3.75322C12.7598 3.65344 12.7388 3.55486 12.6993 3.46327C12.6597 3.37167 12.6022 3.2889 12.5302 3.21979L9.53023 0.219799C9.45933 0.148864 9.37491 0.0928689 9.28199 0.055128C9.18906 0.0173872 9.08951 -0.00133339 8.98922 7.38369e-05ZM2.74999 5.50005C1.24011 5.50005 0 6.74016 0 8.25004V15.25C0 16.7599 1.24011 18 2.74999 18H15.2499C16.7598 18 17.9999 16.7599 17.9999 15.25V8.25004C17.9999 6.74016 16.7598 5.50005 15.2499 5.50005H14.2499C14.1506 5.49865 14.0519 5.51701 13.9597 5.55407C13.8674 5.59113 13.7835 5.64615 13.7127 5.71593C13.6419 5.78571 13.5857 5.86887 13.5474 5.96056C13.509 6.05225 13.4893 6.15065 13.4893 6.25005C13.4893 6.34944 13.509 6.44784 13.5474 6.53954C13.5857 6.63123 13.6419 6.71438 13.7127 6.78417C13.7835 6.85395 13.8674 6.90897 13.9597 6.94603C14.0519 6.98309 14.1506 7.00145 14.2499 7.00005H15.2499C15.949 7.00005 16.4999 7.55093 16.4999 8.25004V15.25C16.4999 15.9491 15.949 16.5 15.2499 16.5H2.74999C2.05088 16.5 1.49999 15.9491 1.49999 15.25V8.25004C1.49999 7.55093 2.05088 7.00005 2.74999 7.00005H3.74998C3.84937 7.00145 3.94804 6.98309 4.04027 6.94603C4.13249 6.90897 4.21643 6.85395 4.28721 6.78417C4.35799 6.71438 4.41419 6.63123 4.45255 6.53954C4.49091 6.44784 4.51066 6.34944 4.51066 6.25005C4.51066 6.15065 4.49091 6.05225 4.45255 5.96056C4.41419 5.86887 4.35799 5.78571 4.28721 5.71593C4.21643 5.64615 4.13249 5.59113 4.04027 5.55407C3.94804 5.51701 3.84937 5.49865 3.74998 5.50005H2.74999Z" fill="#D9D9FF"/>
</svg>
