<svg width="19" height="12" viewBox="0 0 19 12" fill="none" xmlns="http://www.w3.org/2000/svg">
<path d="M9.49459 0C5.01395 0 1.06602 3.44496 0.0186533 7.95912C-0.0205093 8.12834 0.00253218 8.30788 0.0827089 8.45825C0.162886 8.60863 0.29363 8.71751 0.44618 8.76095C0.598729 8.80439 0.760588 8.77883 0.89615 8.6899C1.03171 8.60096 1.12987 8.45593 1.16903 8.28671C2.07152 4.39695 5.56781 1.31723 9.49459 1.31723C13.4214 1.31723 16.9287 4.39803 17.831 8.28671C17.8701 8.45593 17.9683 8.60096 18.1039 8.6899C18.2394 8.77883 18.4013 8.80439 18.5538 8.76095C18.7064 8.71751 18.8371 8.60863 18.9173 8.45825C18.9975 8.30788 19.0205 8.12834 18.9813 7.95912C17.9337 3.44388 13.9752 0 9.49459 0ZM9.50077 3.51261C7.39494 3.51261 5.67546 5.41996 5.67546 7.75588C5.67546 10.0918 7.39494 12 9.50077 12C11.6066 12 13.3269 10.0918 13.3269 7.75588C13.3269 5.41996 11.6066 3.51261 9.50077 3.51261Z" fill="#666680"/>
</svg>
