<svg width="17" height="18" viewBox="0 0 17 18" fill="none" xmlns="http://www.w3.org/2000/svg">
<path d="M8.10961 0C6.62647 0 5.40961 1.21686 5.40961 2.7H2.59536C2.5553 2.69313 2.5147 2.6899 2.47407 2.69033C2.44136 2.69119 2.40875 2.69442 2.37651 2.7H0.684614C0.595168 2.69873 0.506363 2.71526 0.42336 2.74861C0.340356 2.78197 0.264809 2.83149 0.20111 2.89429C0.13741 2.9571 0.0868284 3.03194 0.0523037 3.11446C0.017779 3.19698 0 3.28555 0 3.375C0 3.46445 0.017779 3.55302 0.0523037 3.63554C0.0868284 3.71806 0.13741 3.7929 0.20111 3.85571C0.264809 3.91851 0.340356 3.96803 0.42336 4.00139C0.506363 4.03474 0.595168 4.05126 0.684614 4.05H1.80961V15.525C1.80961 16.8839 2.92572 18 4.28461 18H11.9346C13.2935 18 14.4096 16.8839 14.4096 15.525V4.05H15.5346C15.6241 4.05126 15.7129 4.03474 15.7959 4.00139C15.8789 3.96803 15.9544 3.91851 16.0181 3.85571C16.0818 3.7929 16.1324 3.71806 16.1669 3.63554C16.2014 3.55302 16.2192 3.46445 16.2192 3.375C16.2192 3.28555 16.2014 3.19698 16.1669 3.11446C16.1324 3.03194 16.0818 2.9571 16.0181 2.89429C15.9544 2.83149 15.8789 2.78197 15.7959 2.74861C15.7129 2.71526 15.6241 2.69873 15.5346 2.7H13.8454C13.7729 2.6881 13.699 2.6881 13.6265 2.7H10.8096C10.8096 1.21686 9.59275 0 8.10961 0ZM8.10961 1.35C8.86297 1.35 9.45961 1.94664 9.45961 2.7H6.75961C6.75961 1.94664 7.35625 1.35 8.10961 1.35ZM3.15961 4.05H13.0596V15.525C13.0596 16.1542 12.5638 16.65 11.9346 16.65H4.28461C3.65541 16.65 3.15961 16.1542 3.15961 15.525V4.05ZM6.52407 6.29033C6.3452 6.29313 6.17475 6.3668 6.05017 6.49518C5.92558 6.62355 5.85705 6.79613 5.85961 6.975V13.725C5.85835 13.8144 5.87487 13.9033 5.90823 13.9863C5.94158 14.0693 5.9911 14.1448 6.05391 14.2085C6.11671 14.2722 6.19155 14.3228 6.27407 14.3573C6.3566 14.3918 6.44516 14.4096 6.53461 14.4096C6.62407 14.4096 6.71263 14.3918 6.79515 14.3573C6.87768 14.3228 6.95252 14.2722 7.01532 14.2085C7.07813 14.1448 7.12764 14.0693 7.161 13.9863C7.19435 13.9033 7.21088 13.8144 7.20961 13.725V6.975C7.21091 6.88466 7.19406 6.79497 7.16005 6.71126C7.12605 6.62755 7.07558 6.55151 7.01165 6.48767C6.94772 6.42382 6.87162 6.37345 6.78787 6.33955C6.70412 6.30566 6.61441 6.28892 6.52407 6.29033ZM9.67407 6.29033C9.4952 6.29313 9.32475 6.3668 9.20017 6.49518C9.07558 6.62355 9.00705 6.79613 9.00961 6.975V13.725C9.00835 13.8144 9.02487 13.9033 9.05823 13.9863C9.09158 14.0693 9.1411 14.1448 9.20391 14.2085C9.26671 14.2722 9.34155 14.3228 9.42407 14.3573C9.5066 14.3918 9.59516 14.4096 9.68461 14.4096C9.77407 14.4096 9.86263 14.3918 9.94515 14.3573C10.0277 14.3228 10.1025 14.2722 10.1653 14.2085C10.2281 14.1448 10.2776 14.0693 10.311 13.9863C10.3444 13.9033 10.3609 13.8144 10.3596 13.725V6.975C10.3609 6.88466 10.3441 6.79497 10.3101 6.71126C10.276 6.62755 10.2256 6.55151 10.1617 6.48767C10.0977 6.42382 10.0216 6.37345 9.93787 6.33955C9.85412 6.30566 9.76441 6.28892 9.67407 6.29033Z" fill="#666680"/>
</svg>
