<svg xmlns="http://www.w3.org/2000/svg" viewBox="0 0 48 48">
  <path d="M15.5 7C9.1663898 7 4 12.16639 4 18.5L4 37.5C4 39.414955 5.5850452 41 7.5 41L32.5 41C38.83361 41 44 35.83361 44 29.5L44 10.5C44 8.5850452 42.414955 7 40.5 7L15.5 7 z M 15.5 10L40.5 10C40.795045 10 41 10.204955 41 10.5L41 29.5C41 34.21239 37.21239 38 32.5 38L7.5 38C7.2049548 38 7 37.795045 7 37.5L7 18.5C7 13.78761 10.78761 10 15.5 10 z M 15.625 20C14.247 20 13.125 21.122 13.125 22.5C13.125 23.878 14.247 25 15.625 25L16.5 25C16.776 25 17 25.224 17 25.5C17 25.776 16.776 26 16.5 26L15.408203 26C15.066203 26 14.785031 25.745969 14.707031 25.667969C14.316031 25.276969 13.683969 25.276969 13.292969 25.667969C12.901969 26.058969 12.901969 26.691031 13.292969 27.082031C13.568969 27.358031 14.327203 28 15.408203 28L16.5 28C17.878 28 19 26.878 19 25.5C19 24.122 17.878 23 16.5 23L15.625 23C15.349 23 15.125 22.776 15.125 22.5C15.125 22.224 15.349 22 15.625 22L16.5 22C16.804 22 17.041969 22.208031 17.042969 22.207031C17.433969 22.597031 18.066031 22.598031 18.457031 22.207031C18.848031 21.816031 18.848031 21.183969 18.457031 20.792969C18.376031 20.711969 17.631 20 16.5 20L15.625 20 z M 22 20C21.448 20 21 20.448 21 21C21 21.552 21.448 22 22 22L23 22L23 27C23 27.552 23.448 28 24 28C24.552 28 25 27.552 25 27L25 22L26 22C26.552 22 27 21.552 27 21C27 20.448 26.552 20 26 20L22 20 z M 30 20C29.862 20 29.730953 20.0275 29.611328 20.078125C29.252453 20.23 29 20.586 29 21L29 27C29 27.552 29.448 28 30 28C30.552 28 31 27.552 31 27L31 26L32 26L33.199219 27.599609C33.396219 27.861609 33.697953 28 34.001953 28C34.209953 28 34.419609 27.935781 34.599609 27.800781C35.041609 27.469781 35.132781 26.842391 34.800781 26.400391L33.947266 25.263672C34.586467 24.713054 35 23.907707 35 23C35 21.346 33.654 20 32 20L30 20 z M 31 22L32 22C32.551 22 33 22.449 33 23C33 23.551 32.551 24 32 24L31 24L31 22 z" fill="#D9D9FF" />
</svg>