<svg width="20" height="20" viewBox="0 0 20 20" fill="none" xmlns="http://www.w3.org/2000/svg">
<path d="M3.05556 0C1.3779 0 0 1.3779 0 3.05556V16.9444C0 18.6221 1.3779 20 3.05556 20H16.9444C18.6221 20 20 18.6221 20 16.9444V3.05556C20 1.3779 18.6221 0 16.9444 0H3.05556ZM3.05556 1.66667H16.9444C17.7212 1.66667 18.3333 2.27876 18.3333 3.05556V14.4195L14.9935 11.1882L14.9924 11.1871C14.5601 10.7697 13.9927 10.5556 13.4299 10.5556C12.8673 10.5556 12.2999 10.7697 11.8674 11.1882L10.7292 12.2895L7.29601 8.9681C6.86465 8.54986 6.29782 8.33333 5.73242 8.33333C5.16615 8.33333 4.60055 8.55121 4.16992 8.96701L4.16884 8.9681L1.66667 11.3889V3.05556C1.66667 2.27876 2.27876 1.66667 3.05556 1.66667ZM13.6111 3.88889C12.8472 3.88889 12.1688 4.20535 11.7383 4.68967C11.3078 5.17399 11.1111 5.78704 11.1111 6.38889C11.1111 6.99074 11.3078 7.60379 11.7383 8.08811C12.1688 8.57243 12.8472 8.88889 13.6111 8.88889C14.375 8.88889 15.0534 8.57243 15.4839 8.08811C15.9144 7.60379 16.1111 6.99074 16.1111 6.38889C16.1111 5.78704 15.9144 5.17399 15.4839 4.68967C15.0534 4.20535 14.375 3.88889 13.6111 3.88889ZM13.6111 5.55556C13.9583 5.55556 14.1132 5.65576 14.2383 5.79644C14.3633 5.93712 14.4444 6.15741 14.4444 6.38889C14.4444 6.62037 14.3633 6.84066 14.2383 6.98134C14.1132 7.12202 13.9583 7.22222 13.6111 7.22222C13.2639 7.22222 13.109 7.12202 12.9839 6.98134C12.8589 6.84066 12.7778 6.62037 12.7778 6.38889C12.7778 6.15741 12.8589 5.93712 12.9839 5.79644C13.109 5.65576 13.2639 5.55556 13.6111 5.55556ZM5.73242 10C5.87702 10 6.01963 10.052 6.13607 10.1649L6.13715 10.166L9.53017 13.4484L4.48025 18.3333H3.05556C2.27876 18.3333 1.66667 17.7212 1.66667 16.9444V13.7077L5.32769 10.166C5.44598 10.0518 5.58869 10 5.73242 10ZM13.4299 12.2222C13.5771 12.2222 13.718 12.2735 13.8346 12.3861L18.3333 16.7383V16.9444C18.3333 17.7212 17.7212 18.3333 16.9444 18.3333H6.87826L13.0263 12.3861C13.1415 12.2746 13.2836 12.2222 13.4299 12.2222Z" fill="#CCCCFF"/>
</svg>
