<svg width="19" height="16" viewBox="0 0 19 16" fill="none" xmlns="http://www.w3.org/2000/svg">
<path d="M9.10329 0C8.43014 0 7.75698 0.328254 7.39309 0.985357L0.689275 13.0964C-0.0177298 14.3738 0.93948 16 2.39948 16H15.808C17.268 16 18.2252 14.3738 17.5182 13.0964L10.8135 0.985357C10.4496 0.328254 9.77645 0 9.10329 0ZM3.68341 0.402601C3.5652 0.40292 3.44933 0.435484 3.34826 0.496785C3.24719 0.558086 3.16476 0.6458 3.10986 0.750479C3.05495 0.855158 3.02965 0.972834 3.03667 1.09083C3.04369 1.20883 3.08277 1.32267 3.14971 1.4201L4.01581 2.71925C4.06247 2.79168 4.12309 2.85411 4.19412 2.9029C4.26514 2.95169 4.34517 2.98585 4.42953 3.00342C4.51389 3.02098 4.6009 3.02158 4.68549 3.00519C4.77009 2.9888 4.85058 2.95574 4.92228 2.90794C4.99397 2.86014 5.05544 2.79856 5.10311 2.72678C5.15078 2.65499 5.18369 2.57444 5.19992 2.48982C5.21616 2.40519 5.2154 2.31818 5.19768 2.23385C5.17997 2.14953 5.14566 2.06956 5.09674 1.99863L4.23064 0.699477C4.17157 0.608134 4.09052 0.533086 3.9949 0.481216C3.89929 0.429345 3.79218 0.402314 3.68341 0.402601ZM14.5037 0.402601C14.3983 0.405508 14.2951 0.434058 14.2031 0.485784C14.1112 0.53751 14.0332 0.610854 13.9759 0.699477L13.1098 1.99863C13.0609 2.06956 13.0266 2.14953 13.0089 2.23385C12.9912 2.31818 12.9904 2.40519 13.0067 2.48982C13.0229 2.57444 13.0558 2.65499 13.1035 2.72678C13.1511 2.79856 13.2126 2.86014 13.2843 2.90794C13.356 2.95574 13.4365 2.9888 13.5211 3.00519C13.6057 3.02158 13.6927 3.02098 13.7771 3.00342C13.8614 2.98585 13.9414 2.95169 14.0125 2.9029C14.0835 2.85411 14.1441 2.79168 14.1908 2.71925L15.0569 1.4201C15.1248 1.32131 15.1641 1.20564 15.1703 1.08591C15.1766 0.966177 15.1496 0.847048 15.0923 0.741711C15.0351 0.636375 14.9498 0.548941 14.8459 0.489089C14.742 0.429237 14.6236 0.399303 14.5037 0.402601ZM9.10329 1.25432C9.32352 1.25432 9.5435 1.37402 9.67675 1.61463L16.3814 13.7256C16.6384 14.1899 16.3374 14.7009 15.808 14.7009H2.39948C1.87006 14.7009 1.56907 14.1899 1.82603 13.7256L8.52984 1.61463C8.66309 1.37402 8.88307 1.25432 9.10329 1.25432ZM1.75498 3.00428C1.60914 2.9994 1.4659 3.04377 1.34835 3.13024C1.2308 3.2167 1.14578 3.34022 1.10699 3.4809C1.06821 3.62157 1.07792 3.77121 1.13456 3.9057C1.19119 4.04018 1.29146 4.15169 1.4192 4.22223L2.93487 5.08833C3.0845 5.1738 3.26194 5.19633 3.42817 5.15096C3.51048 5.1285 3.58756 5.09005 3.65501 5.0378C3.72246 4.98554 3.77895 4.92052 3.82127 4.84643C3.86359 4.77235 3.8909 4.69065 3.90165 4.60601C3.91239 4.52137 3.90636 4.43545 3.8839 4.35314C3.86144 4.27083 3.82299 4.19375 3.77073 4.1263C3.71848 4.05885 3.65346 4.00235 3.57937 3.96004L2.0637 3.09394C1.96993 3.03866 1.86377 3.00783 1.75498 3.00428ZM16.4973 3.00428C16.373 2.99963 16.25 3.03075 16.1429 3.09394L14.6272 3.96004C14.4776 4.0455 14.368 4.1869 14.3227 4.35314C14.2773 4.51937 14.2998 4.69681 14.3853 4.84643C14.4708 4.99606 14.6122 5.1056 14.7784 5.15096C14.9446 5.19633 15.1221 5.1738 15.2717 5.08833L16.7874 4.22223C16.9117 4.15359 17.0102 4.04609 17.0676 3.91619C17.125 3.78628 17.1383 3.64113 17.1054 3.50295C17.0725 3.36478 16.9952 3.2412 16.8854 3.15114C16.7755 3.06108 16.6392 3.00949 16.4973 3.00428ZM9.09314 4.73141C8.92101 4.7341 8.75699 4.805 8.6371 4.92854C8.51721 5.05208 8.45125 5.21815 8.45372 5.39028V9.72078C8.4525 9.80686 8.46841 9.89232 8.5005 9.97219C8.5326 10.0521 8.58025 10.1248 8.64069 10.1861C8.70113 10.2474 8.77315 10.296 8.85257 10.3293C8.93198 10.3625 9.01721 10.3796 9.10329 10.3796C9.18938 10.3796 9.27461 10.3625 9.35402 10.3293C9.43344 10.296 9.50546 10.2474 9.5659 10.1861C9.62633 10.1248 9.67399 10.0521 9.70609 9.97219C9.73818 9.89232 9.75409 9.80686 9.75287 9.72078V5.39028C9.75412 5.30334 9.7379 5.21703 9.70517 5.13648C9.67245 5.05592 9.62389 4.98275 9.56237 4.92131C9.50084 4.85986 9.42761 4.81139 9.34701 4.77877C9.26641 4.74615 9.18008 4.73005 9.09314 4.73141ZM0.658826 6.03986C0.57275 6.03864 0.48729 6.05454 0.407413 6.08664C0.327536 6.11874 0.254835 6.16639 0.193534 6.22683C0.132234 6.28727 0.0835578 6.35929 0.0503336 6.43871C0.0171093 6.51812 0 6.60335 0 6.68943C0 6.77552 0.0171093 6.86074 0.0503336 6.94016C0.0835578 7.01958 0.132234 7.09159 0.193534 7.15203C0.254835 7.21247 0.327536 7.26013 0.407413 7.29222C0.48729 7.32432 0.57275 7.34022 0.658826 7.33901H2.39102C2.4771 7.34022 2.56256 7.32432 2.64244 7.29222C2.72231 7.26013 2.79502 7.21247 2.85632 7.15203C2.91762 7.09159 2.96629 7.01958 2.99952 6.94016C3.03274 6.86074 3.04985 6.77552 3.04985 6.68943C3.04985 6.60335 3.03274 6.51812 2.99952 6.43871C2.96629 6.35929 2.91762 6.28727 2.85632 6.22683C2.79502 6.16639 2.72231 6.11874 2.64244 6.08664C2.56256 6.05454 2.4771 6.03864 2.39102 6.03986H0.658826ZM15.8156 6.03986C15.7295 6.03864 15.644 6.05454 15.5641 6.08664C15.4843 6.11874 15.4116 6.16639 15.3503 6.22683C15.289 6.28727 15.2403 6.35929 15.2071 6.43871C15.1738 6.51812 15.1567 6.60335 15.1567 6.68943C15.1567 6.77552 15.1738 6.86074 15.2071 6.94016C15.2403 7.01958 15.289 7.09159 15.3503 7.15203C15.4116 7.21247 15.4843 7.26013 15.5641 7.29222C15.644 7.32432 15.7295 7.34022 15.8156 7.33901H17.5478C17.6338 7.34022 17.7193 7.32432 17.7992 7.29222C17.8791 7.26013 17.9518 7.21247 18.0131 7.15203C18.0744 7.09159 18.123 7.01958 18.1563 6.94016C18.1895 6.86074 18.2066 6.77552 18.2066 6.68943C18.2066 6.60335 18.1895 6.51812 18.1563 6.43871C18.123 6.35929 18.0744 6.28727 18.0131 6.22683C17.9518 6.16639 17.8791 6.11874 17.7992 6.08664C17.7193 6.05454 17.6338 6.03864 17.5478 6.03986H15.8156ZM9.10329 11.6695C8.87359 11.6695 8.65329 11.7608 8.49087 11.9232C8.32844 12.0856 8.2372 12.3059 8.2372 12.5356C8.2372 12.7653 8.32844 12.9856 8.49087 13.148C8.65329 13.3105 8.87359 13.4017 9.10329 13.4017C9.333 13.4017 9.55329 13.3105 9.71572 13.148C9.87814 12.9856 9.96939 12.7653 9.96939 12.5356C9.96939 12.3059 9.87814 12.0856 9.71572 11.9232C9.55329 11.7608 9.333 11.6695 9.10329 11.6695Z" fill="#E01818"/>
</svg>
