<svg width="58" height="72" viewBox="0 0 58 72" fill="none" xmlns="http://www.w3.org/2000/svg">
<path d="M25.773 0.00171677C25.3265 0.0149928 24.8893 0.133067 24.4968 0.346409C24.1043 0.559751 23.7674 0.862385 23.5134 1.22989C23.5134 1.22989 20.5183 5.57531 16.8976 10.5098C13.2768 15.4443 8.86638 21.086 6.77164 23.0661C2.8058 26.8159 0 31.9177 0 37.6928V50.1527C0 62.1851 9.81495 72 21.8473 72H39.5909C46.75 72 52.8325 66.631 53.7278 59.5291L54.7185 52.4457L56.3141 41.0471L56.9671 36.4016C57.8404 30.1666 52.9131 24.5058 46.6186 24.5058H30.5262C31.8414 21.2486 32.8084 18.2996 33.4834 14.981C33.4847 14.981 33.4859 14.981 33.4871 14.981C33.8821 13.0368 34.2144 11.5115 34.2144 9.89016C34.2144 5.98348 32.2195 3.17846 30.285 1.77533C28.3504 0.372204 26.3407 0.0388214 26.3407 0.0388216C26.1532 0.00754912 25.963 -0.00488102 25.773 0.00171677ZM26.8602 6.35407C26.9007 6.38156 26.8971 6.36144 26.9381 6.39117C27.7564 6.98471 28.5151 7.69859 28.5151 9.89016C28.5151 10.6018 28.2907 11.918 27.8991 13.8455C27.1994 17.2858 26.4052 19.9665 24.9345 23.4C24.9345 23.4013 24.9345 23.4025 24.9345 23.4038C24.317 24.8501 24.3783 26.4829 25.1348 27.8341C25.8914 29.1852 27.5057 30.2051 29.209 30.2051H46.6186C49.5531 30.2051 51.7269 32.7045 51.3197 35.6113L50.6704 40.2605L49.0749 51.6591L48.0805 58.7684C48.0779 58.7832 48.0754 58.7981 48.0731 58.8129C47.5344 63.1151 43.9251 66.3007 39.5909 66.3007H21.8473C12.8949 66.3007 5.69931 59.1051 5.69931 50.1527V37.6928C5.69931 33.7639 7.6077 30.1178 10.6862 27.207C13.6581 24.3978 17.8134 18.8949 21.4911 13.8826C24.4313 9.87565 25.9637 7.64427 26.8602 6.35407Z" fill="#597AFF"/>
</svg>
