<svg xmlns="http://www.w3.org/2000/svg" viewBox="0 0 48 48">
  <path d="M4.4765625 11.978516 A 1.50015 1.50015 0 0 0 3 13.5L3 14.253906 A 1.50015 1.50015 0 0 0 3 14.740234L3 15.5 A 1.50015 1.50015 0 0 0 5.9199219 16L12 16L12 35L10.5 35 A 1.50015 1.50015 0 1 0 10.5 38L13.253906 38 A 1.50015 1.50015 0 0 0 13.740234 38L16.5 38 A 1.50015 1.50015 0 1 0 16.5 35L15 35L15 16L21.080078 16 A 1.50015 1.50015 0 0 0 24 15.5L24 14.746094 A 1.50015 1.50015 0 0 0 24 14.259766L24 13.5 A 1.50015 1.50015 0 0 0 21.080078 13L13.746094 13 A 1.50015 1.50015 0 0 0 13.259766 13L5.9199219 13 A 1.50015 1.50015 0 0 0 4.4765625 11.978516 z M 27.476562 11.978516 A 1.50015 1.50015 0 0 0 26 13.5L26 14.253906 A 1.50015 1.50015 0 0 0 26 14.740234L26 15.5 A 1.50015 1.50015 0 0 0 28.919922 16L35 16L35 35L33.5 35 A 1.50015 1.50015 0 1 0 33.5 38L36.253906 38 A 1.50015 1.50015 0 0 0 36.740234 38L39.5 38 A 1.50015 1.50015 0 1 0 39.5 35L38 35L38 16L44.080078 16 A 1.50015 1.50015 0 0 0 47 15.5L47 14.746094 A 1.50015 1.50015 0 0 0 47 14.259766L47 13.5 A 1.50015 1.50015 0 0 0 44.080078 13L36.746094 13 A 1.50015 1.50015 0 0 0 36.259766 13L28.919922 13 A 1.50015 1.50015 0 0 0 27.476562 11.978516 z" fill="#D9D9FF" />
</svg>