<svg width="20" height="21" viewBox="0 0 20 21" fill="none" xmlns="http://www.w3.org/2000/svg">
<path d="M19.55 7.03333C19.5167 6.93333 19.4833 6.83333 19.45 6.75V6.73333C19.4167 6.65 19.3833 6.56667 19.35 6.48333C19.35 6.46667 19.3333 6.45 19.3333 6.43333C19.3167 6.38333 19.2833 6.31667 19.2667 6.26667C19.25 6.21667 19.2333 6.16667 19.2 6.11667C19.0833 5.85 18.95 5.56667 18.8167 5.31667C18.7833 5.25 18.7333 5.16667 18.7 5.1C18.6667 5.05 18.65 5 18.6167 4.95C18.5667 4.86667 18.5333 4.8 18.4833 4.71667C18.45 4.66667 18.4167 4.61667 18.3833 4.56667C18.3167 4.46667 18.25 4.36667 18.1833 4.26667C18.15 4.21667 18.1167 4.18333 18.0833 4.13333C18.05 4.1 18.0333 4.05 18 4.01667C17.9333 3.91667 17.85 3.81667 17.7667 3.71667C17.6667 3.58333 17.55 3.46667 17.45 3.33333C17.3833 3.26667 17.3333 3.2 17.2667 3.13333C17.2 3.06667 17.1333 2.98333 17.05 2.91667C16.9667 2.85 16.9 2.78333 16.8333 2.7C16.7667 2.63333 16.7 2.58333 16.6333 2.51667C16.5 2.4 16.3833 2.3 16.25 2.2C16.15 2.11667 16.05 2.05 15.95 1.96667C15.9167 1.93333 15.8667 1.91667 15.8333 1.88333C15.7833 1.85 15.75 1.81667 15.7 1.78333C15.6 1.71667 15.5 1.65 15.4 1.58333C15.35 1.55 15.3 1.51667 15.25 1.48333C15.1833 1.43333 15.1 1.38333 15.0167 1.35C14.9667 1.31667 14.9167 1.28333 14.8667 1.26667C14.8333 1.25 14.7667 1.2 14.7 1.16667C14.4333 1.03333 14.1667 0.9 13.9 0.783333C13.85 0.766667 13.8 0.733333 13.75 0.716667C13.7 0.7 13.6333 0.666667 13.5833 0.65C13.5667 0.65 13.55 0.633333 13.5333 0.633333C13.45 0.6 13.3667 0.566667 13.2833 0.533333H13.2667C13.1667 0.5 13.0667 0.466667 12.9833 0.433333C12.0333 0.15 11.0333 0 10 0C8.98333 0 8 0.15 7.08333 0.433333C7.06667 0.433333 7.05 0.45 7.03333 0.45C6.93333 0.483333 6.83333 0.516667 6.75 0.55H6.73333C6.65 0.583333 6.56667 0.616667 6.48333 0.65C6.46667 0.65 6.45 0.666667 6.43333 0.666667C6.38333 0.683333 6.31667 0.716667 6.26667 0.733333C6.21667 0.75 6.16667 0.766667 6.11667 0.8C5.83333 0.9 5.56667 1.03333 5.3 1.16667C5.23333 1.2 5.15 1.25 5.08333 1.28333C5.03333 1.31667 4.98333 1.33333 4.93333 1.36667C4.85 1.41667 4.78333 1.45 4.7 1.5C4.65 1.53333 4.6 1.56667 4.55 1.6C4.45 1.66667 4.35 1.73333 4.25 1.8C4.2 1.83333 4.16667 1.86667 4.11667 1.9C4.08333 1.93333 4.03333 1.95 4 1.98333C3.9 2.05 3.8 2.13333 3.7 2.21667C3.56667 2.31667 3.45 2.43333 3.31667 2.53333C3.25 2.6 3.18333 2.65 3.11667 2.71667C3.05 2.78333 2.96667 2.85 2.9 2.93333C2.83333 3.01667 2.76667 3.08333 2.68333 3.15C2.61667 3.21667 2.56667 3.28333 2.5 3.35C2.38333 3.48333 2.28333 3.6 2.18333 3.73333C2.1 3.83333 2.03333 3.93333 1.95 4.03333C1.91667 4.06667 1.9 4.11667 1.86667 4.15C1.83333 4.2 1.8 4.23333 1.76667 4.28333C1.7 4.38333 1.63333 4.48333 1.56667 4.58333C1.53333 4.63333 1.5 4.68333 1.46667 4.73333C1.41667 4.8 1.36667 4.88333 1.33333 4.96667C1.3 5.01667 1.26667 5.06667 1.25 5.11667C1.25 5.16667 1.2 5.23333 1.16667 5.3C1.03333 5.56667 0.9 5.83333 0.783333 6.1C0.766667 6.15 0.733333 6.2 0.716667 6.25C0.7 6.3 0.666667 6.36667 0.65 6.41667C0.65 6.43333 0.633333 6.45 0.633333 6.46667C0.6 6.55 0.566667 6.63333 0.533333 6.71667V6.73333C0.5 6.83333 0.466667 6.93333 0.433333 7.01667C0.15 7.96667 0 8.96667 0 10C0 11.0333 0.15 12.0333 0.45 12.9667C0.483333 13.0667 0.516667 13.1667 0.55 13.25V13.2667C0.583333 13.35 0.616667 13.4333 0.65 13.5167C0.65 13.5333 0.666667 13.55 0.666667 13.5667C0.683333 13.6167 0.716667 13.6833 0.733333 13.7333C0.75 13.7833 0.766667 13.8333 0.8 13.8833C0.9 14.1667 1.03333 14.4333 1.16667 14.7C1.2 14.7667 1.25 14.85 1.28333 14.9167C1.31667 14.9667 1.33333 15.0167 1.36667 15.0667C1.41667 15.15 1.45 15.2167 1.5 15.3C1.53333 15.35 1.56667 15.4 1.6 15.45C1.71667 15.6333 1.85 15.8167 1.98333 16C2.05 16.1 2.13333 16.2 2.21667 16.3C2.31667 16.4333 2.43333 16.55 2.53333 16.6833C2.6 16.75 2.65 16.8167 2.71667 16.8833C2.78333 16.95 2.85 17.0333 2.93333 17.1C3.01667 17.1667 3.08333 17.2333 3.15 17.3167C3.21667 17.3833 3.28333 17.4333 3.35 17.5C3.48333 17.6167 3.6 17.7167 3.73333 17.8167C3.83333 17.9 3.93333 17.9667 4.03333 18.05C4.21667 18.1833 4.4 18.3 4.58333 18.4333C4.63333 18.4667 4.68333 18.5 4.73333 18.5333C4.8 18.5833 4.88333 18.6333 4.96667 18.6667C5.01667 18.7 5.06667 18.7333 5.11667 18.75C5.18333 18.7833 5.26667 18.8333 5.33333 18.8667C5.6 19 5.86667 19.1333 6.13333 19.25C6.18333 19.2667 6.23333 19.3 6.28333 19.3167C6.33333 19.3333 6.4 19.3667 6.45 19.3833C6.46667 19.3833 6.48333 19.4 6.5 19.4C6.58333 19.4333 6.66667 19.4667 6.75 19.5H6.76667C6.86667 19.5333 6.96667 19.5667 7.05 19.6C7.98333 19.9 8.98333 20.05 10.0167 20.05C11.05 20.05 12.05 19.9 12.9833 19.6C13.0833 19.5667 13.1833 19.5333 13.2667 19.5H13.2833C13.3667 19.4667 13.45 19.4333 13.5333 19.4C13.55 19.4 13.5667 19.3833 13.5833 19.3833C13.6333 19.3667 13.7 19.3333 13.75 19.3167C13.8 19.3 13.85 19.2833 13.9 19.25C14.1667 19.1333 14.45 19 14.7 18.8667C14.7667 18.8333 14.85 18.7833 14.9167 18.75C14.9667 18.7167 15.0167 18.7 15.0667 18.6667C15.15 18.6167 15.2167 18.5833 15.3 18.5333C15.35 18.5 15.4 18.4667 15.45 18.4333C15.6333 18.3167 15.8167 18.1833 16 18.05C16.1 17.9833 16.2 17.9 16.3 17.8167C16.4333 17.7167 16.55 17.6 16.6833 17.5C16.75 17.4333 16.8167 17.3833 16.8833 17.3167C16.95 17.25 17.0333 17.1833 17.1 17.1C17.1667 17.0167 17.2333 16.95 17.3167 16.8833C17.3833 16.8167 17.4333 16.75 17.5 16.6833C17.6167 16.55 17.7167 16.4333 17.8167 16.3C17.9 16.2 17.9667 16.1 18.05 16C18.1833 15.8167 18.3 15.6333 18.4333 15.45C18.4667 15.4 18.5 15.35 18.5333 15.3C18.5833 15.2333 18.6333 15.15 18.6667 15.0667C18.7 15.0167 18.7333 14.9667 18.75 14.9167C18.7833 14.85 18.8333 14.7667 18.8667 14.7C19 14.4333 19.1333 14.1667 19.25 13.9C19.2667 13.85 19.3 13.8 19.3167 13.75C19.3333 13.7 19.3667 13.6333 19.3833 13.5833C19.3833 13.5667 19.4 13.55 19.4 13.5333C19.4333 13.45 19.4667 13.3667 19.5 13.2833V13.2667C19.5333 13.1667 19.5667 13.0667 19.6 12.9833C19.6 12.9667 19.6167 12.95 19.6167 12.9167C19.85 12 20 11.0167 20 10C20 8.96667 19.85 7.96667 19.55 7.03333ZM14.9333 6.05C14.7333 6.51667 12.9667 10.6 11.7667 11.7833C10.5667 12.9833 6.5 14.75 6.03333 14.95C5.93333 14.9833 5.83333 15.0167 5.73333 15.0167C5.53333 15.0167 5.35 14.9333 5.2 14.8C4.98333 14.5833 4.91667 14.2667 5.03333 13.9833C5.21667 13.5333 6.88333 9.55 8.2 8.23333C9.51667 6.91667 13.5 5.25 13.95 5.06667C14.0167 5.03333 14.1 5.01667 14.1667 5.01667C14.3833 5 14.6167 5.06667 14.7667 5.23333C15 5.43333 15.0667 5.76667 14.9333 6.05Z" fill="white"/>
</svg>
