<svg width="16" height="16" viewBox="0 0 16 16" fill="none" xmlns="http://www.w3.org/2000/svg">
<path d="M2.44444 0C1.10232 0 0 1.10232 0 2.44444V13.5556C0 14.8977 1.10232 16 2.44444 16H13.5556C14.8977 16 16 14.8977 16 13.5556V2.44444C16 1.10232 14.8977 0 13.5556 0H2.44444ZM2.44444 1.33333H13.5556C14.177 1.33333 14.6667 1.82301 14.6667 2.44444V13.5556C14.6667 14.177 14.177 14.6667 13.5556 14.6667H2.44444C1.82301 14.6667 1.33333 14.177 1.33333 13.5556V2.44444C1.33333 1.82301 1.82301 1.33333 2.44444 1.33333ZM3.77778 2.66667C3.68944 2.66542 3.60173 2.68174 3.51975 2.71468C3.43777 2.74762 3.36316 2.79653 3.30024 2.85856C3.23733 2.92059 3.18737 2.9945 3.15327 3.07601C3.11918 3.15751 3.10162 3.24498 3.10162 3.33333C3.10162 3.42168 3.11918 3.50915 3.15327 3.59066C3.18737 3.67216 3.23733 3.74608 3.30024 3.80811C3.36316 3.87014 3.43777 3.91904 3.51975 3.95199C3.60173 3.98493 3.68944 4.00125 3.77778 4H12.2222C12.3106 4.00125 12.3983 3.98493 12.4803 3.95199C12.5622 3.91904 12.6368 3.87014 12.6998 3.80811C12.7627 3.74608 12.8126 3.67216 12.8467 3.59066C12.8808 3.50915 12.8984 3.42168 12.8984 3.33333C12.8984 3.24498 12.8808 3.15751 12.8467 3.07601C12.8126 2.9945 12.7627 2.92059 12.6998 2.85856C12.6368 2.79653 12.5622 2.74762 12.4803 2.71468C12.3983 2.68174 12.3106 2.66542 12.2222 2.66667H3.77778ZM3.77778 5.77778C3.68944 5.77653 3.60173 5.79285 3.51975 5.82579C3.43777 5.85873 3.36316 5.90764 3.30024 5.96967C3.23733 6.0317 3.18737 6.10562 3.15327 6.18712C3.11918 6.26863 3.10162 6.35609 3.10162 6.44444C3.10162 6.53279 3.11918 6.62026 3.15327 6.70177C3.18737 6.78327 3.23733 6.85719 3.30024 6.91922C3.36316 6.98125 3.43777 7.03015 3.51975 7.0631C3.60173 7.09604 3.68944 7.11236 3.77778 7.11111H9.55556C9.6439 7.11236 9.73161 7.09604 9.81358 7.0631C9.89556 7.03015 9.97018 6.98125 10.0331 6.91922C10.096 6.85719 10.146 6.78327 10.1801 6.70177C10.2142 6.62026 10.2317 6.53279 10.2317 6.44444C10.2317 6.35609 10.2142 6.26863 10.1801 6.18712C10.146 6.10562 10.096 6.0317 10.0331 5.96967C9.97018 5.90764 9.89556 5.85873 9.81358 5.82579C9.73161 5.79285 9.6439 5.77653 9.55556 5.77778H3.77778ZM3.77778 8.88889C3.68944 8.88764 3.60173 8.90396 3.51975 8.9369C3.43777 8.96985 3.36316 9.01875 3.30024 9.08078C3.23733 9.14281 3.18737 9.21673 3.15327 9.29823C3.11918 9.37974 3.10162 9.46721 3.10162 9.55556C3.10162 9.64391 3.11918 9.73137 3.15327 9.81288C3.18737 9.89438 3.23733 9.9683 3.30024 10.0303C3.36316 10.0924 3.43777 10.1413 3.51975 10.1742C3.60173 10.2072 3.68944 10.2235 3.77778 10.2222H12.2222C12.3106 10.2235 12.3983 10.2072 12.4803 10.1742C12.5622 10.1413 12.6368 10.0924 12.6998 10.0303C12.7627 9.9683 12.8126 9.89438 12.8467 9.81288C12.8808 9.73137 12.8984 9.64391 12.8984 9.55556C12.8984 9.46721 12.8808 9.37974 12.8467 9.29823C12.8126 9.21673 12.7627 9.14281 12.6998 9.08078C12.6368 9.01875 12.5622 8.96985 12.4803 8.9369C12.3983 8.90396 12.3106 8.88764 12.2222 8.88889H3.77778ZM3.77778 12C3.68944 11.9988 3.60173 12.0151 3.51975 12.048C3.43777 12.081 3.36316 12.1299 3.30024 12.1919C3.23733 12.2539 3.18737 12.3278 3.15327 12.4093C3.11918 12.4908 3.10162 12.5783 3.10162 12.6667C3.10162 12.755 3.11918 12.8425 3.15327 12.924C3.18737 13.0055 3.23733 13.0794 3.30024 13.1414C3.36316 13.2035 3.43777 13.2524 3.51975 13.2853C3.60173 13.3183 3.68944 13.3346 3.77778 13.3333H9.55556C9.6439 13.3346 9.73161 13.3183 9.81358 13.2853C9.89556 13.2524 9.97018 13.2035 10.0331 13.1414C10.096 13.0794 10.146 13.0055 10.1801 12.924C10.2142 12.8425 10.2317 12.755 10.2317 12.6667C10.2317 12.5783 10.2142 12.4908 10.1801 12.4093C10.146 12.3278 10.096 12.2539 10.0331 12.1919C9.97018 12.1299 9.89556 12.081 9.81358 12.048C9.73161 12.0151 9.6439 11.9988 9.55556 12H3.77778Z" fill="#666680"/>
</svg>
