<svg width="16" height="13" viewBox="0 0 16 13" fill="none" xmlns="http://www.w3.org/2000/svg">
<path d="M1.8 0C0.813 0 0 0.813 0 1.8V11C0 11.987 0.813 12.8 1.8 12.8H14.2C15.187 12.8 16 11.987 16 11V3.8C16 2.813 15.187 2 14.2 2H8.01719L6.22891 0.510156C5.83362 0.180844 5.33567 0 4.82109 0H1.8ZM1.8 1.2H4.82109C5.05532 1.2 5.28102 1.28214 5.46094 1.43203L6.8625 2.6L5.46094 3.76797C5.28102 3.91786 5.05532 4 4.82109 4H1.2V1.8C1.2 1.4614 1.4614 1.2 1.8 1.2ZM8.01719 3.2H14.2C14.5386 3.2 14.8 3.4614 14.8 3.8V11C14.8 11.3386 14.5386 11.6 14.2 11.6H1.8C1.4614 11.6 1.2 11.3386 1.2 11V5.2H4.82109C5.33567 5.2 5.83362 5.01916 6.22891 4.68984L8.01719 3.2Z" fill="#D9D9FF"/>
</svg>
