<svg xmlns="http://www.w3.org/2000/svg" viewBox="0 0 48 48">
  <path d="M11.5 6C8.467 6 6 8.467 6 11.5L6 36.5C6 39.533 8.467 42 11.5 42L32.40625 42L29.40625 39L11.5 39C10.122 39 9 37.878 9 36.5L9 11.5C9 10.122 10.122 9 11.5 9L36.5 9C37.878 9 39 10.122 39 11.5L39 29.40625L42 32.40625L42 11.5C42 8.467 39.533 6 36.5 6L11.5 6 z M 13.5 16 A 1.50015 1.50015 0 1 0 13.5 19L34.5 19 A 1.50015 1.50015 0 1 0 34.5 16L13.5 16 z M 13.5 23C12.671 23 12 23.671 12 24.5C12 25.329 12.671 26 13.5 26L26.056641 26C26.714641 25.356 27.577047 24.999047 28.498047 24.998047C28.999047 24.998047 29.810547 25.214844 29.810547 25.214844C29.926547 25.001844 30 24.761 30 24.5C30 23.671 29.329 23 28.5 23L13.5 23 z M 28.46875 27C28.087047 27.0075 27.716953 27.161953 27.439453 27.439453C27.070453 27.808453 26.919969 28.343563 27.042969 28.851562L28.519531 34.972656C28.583531 35.241656 28.722969 35.486641 28.917969 35.681641L38.835938 45.599609C39.767937 46.531609 40.991797 46.998047 42.216797 46.998047C43.440797 46.998047 44.667609 46.530609 45.599609 45.599609C47.464609 43.733609 47.464609 40.700938 45.599609 38.835938L35.681641 28.917969C35.486641 28.722969 35.241656 28.583531 34.972656 28.519531L28.851562 27.042969C28.724813 27.011969 28.595984 26.9975 28.46875 27 z M 13.5 30C12.671 30 12 30.671 12 31.5C12 32.329 12.671 33 13.5 33L25.984375 33L25.261719 30L13.5 30 z" fill="#D9D9FF" />
</svg>