<svg xmlns="http://www.w3.org/2000/svg" viewBox="0 0 48 48">
  <path d="M15.964844 3.0683594C8.2892099 3.0683594 2.0332031 9.3233388 2.0332031 17C2.0332031 19.204356 2.6136027 21.25994 3.5273438 23.113281L2.1152344 28.173828C1.6797105 29.730594 3.2340619 31.286276 4.7910156 30.851562L9.8554688 29.4375C11.708361 30.35042 13.762734 30.929687 15.964844 30.929688C23.640477 30.929688 29.896484 24.674708 29.896484 16.998047C29.895366 9.3225312 23.641359 3.0683594 15.964844 3.0683594 z M 15.964844 6.0683594C22.020328 6.0683594 26.895602 10.945516 26.896484 17C26.895384 23.054413 22.018544 27.929687 15.964844 27.929688C14.032674 27.929688 12.231269 27.428531 10.65625 26.550781 A 1.50015 1.50015 0 0 0 9.5234375 26.416016L5.3984375 27.566406L6.5488281 23.445312 A 1.50015 1.50015 0 0 0 6.4160156 22.3125C5.5370212 20.735947 5.0332031 18.933497 5.0332031 17C5.0332031 10.944661 9.9104772 6.0683594 15.964844 6.0683594 z M 15.976562 10.021484 A 1.50015 1.50015 0 0 0 14.5 11.542969L14.5 12.042969L11.5 12.042969 A 1.50015 1.50015 0 1 0 11.5 15.042969L15.765625 15.042969 A 1.50015 1.50015 0 0 0 16.234375 15.042969L16.859375 15.042969C16.730259 16.244761 16.486903 17.34654 15.986328 18.125C15.348028 17.461117 14.779297 16.759766 14.779297 16.759766 A 1.50015 1.50015 0 1 0 12.220703 18.324219C12.220703 18.324219 12.896483 19.142836 13.345703 19.732422C12.809872 19.860433 12.371929 20.042969 11.599609 20.042969 A 1.50015 1.50015 0 1 0 11.599609 23.042969C13.330579 23.042969 14.757574 22.632359 15.955078 21.998047C16.965339 22.584459 18.107848 23.042969 19.5 23.042969 A 1.50015 1.50015 0 1 0 19.5 20.042969C19.154788 20.042969 18.831376 19.865512 18.498047 19.751953C19.424834 18.315637 19.739014 16.679262 19.863281 15.042969L20.5 15.042969 A 1.50015 1.50015 0 1 0 20.5 12.042969L18.748047 12.042969 A 1.50015 1.50015 0 0 0 18.253906 12.042969L17.5 12.042969L17.5 11.542969 A 1.50015 1.50015 0 0 0 15.976562 10.021484 z M 34.490234 15.037109 A 1.50015 1.50015 0 0 0 34.417969 18.033203C39.284048 18.394739 42.451172 21.310503 42.451172 26.310547 A 1.50015 1.50015 0 0 0 42.455078 26.419922L42.630859 28.8125 A 1.50015 1.50015 0 0 0 43.498047 30.064453C43.853232 30.228624 44.001953 30.457942 44.001953 31.070312C44.001953 31.688481 43.510982 32.189965 42.820312 32.205078C42.785467 32.204859 42.792666 32.205078 42.744141 32.205078 A 1.50015 1.50015 0 0 0 41.277344 33.390625C40.15951 38.583436 37.125649 41.021484 33.501953 41.021484C29.878487 41.021484 26.84242 38.582416 25.724609 33.390625 A 1.5003292 1.5003292 0 1 0 22.791016 34.021484C24.121205 40.199693 28.437419 44.021484 33.501953 44.021484C38.269689 44.021484 42.279354 40.550549 43.853516 34.998047C45.631452 34.523008 47.001953 32.98582 47.001953 31.070312C47.001953 29.950844 46.429342 28.912464 45.587891 28.117188L45.447266 26.201172L45.451172 26.310547C45.451172 19.924591 40.730546 15.495433 34.640625 15.042969 A 1.50015 1.50015 0 0 0 34.490234 15.037109 z M 33.455078 20.980469 A 1.50015 1.50015 0 0 0 33.421875 20.984375 A 1.50015 1.50015 0 0 0 32.039062 22.113281L28.107422 31.943359 A 1.50015 1.50015 0 1 0 30.892578 33.056641L31.314453 32L35.685547 32L36.107422 33.056641 A 1.50015 1.50015 0 1 0 38.892578 31.943359L34.960938 22.117188 A 1.50015 1.50015 0 0 0 33.648438 20.988281 A 1.50015 1.50015 0 0 0 33.511719 20.980469 A 1.50015 1.50015 0 0 0 33.488281 20.980469 A 1.50015 1.50015 0 0 0 33.455078 20.980469 z M 33.5 26.539062L34.484375 29L32.515625 29L33.5 26.539062 z" fill="#D9D9FF" />
</svg>