<?xml version="1.0" encoding="utf-8"?>
<!-- Generator: Adobe Illustrator 26.5.0, SVG Export Plug-In . SVG Version: 6.00 Build 0)  -->
<svg version="1.1" id="Layer_1" xmlns="http://www.w3.org/2000/svg" xmlns:xlink="http://www.w3.org/1999/xlink" x="0px" y="0px"
	 viewBox="0 0 25 25" style="enable-background:new 0 0 25 25;" xml:space="preserve">
<style type="text/css">
	.st0{fill:#FFFFFF;}
</style>
<g>
	<path class="st0" d="M21.9,3.3c-1-1-2.4-1.6-3.9-1.6s-2.9,0.6-3.9,1.6l-0.5,0.5l0.6,0.5H6.8C5.3,4.3,4.1,5.5,4.1,7v1.5
		C3.6,8.7,3.3,9.2,3.3,9.8v1H2.4v1.3h3.7c0.1,0,0.2,0.1,0.2,0.2v3.5C6.3,16,6.2,16,6.1,16H2.4v1.3h1.7V18c0,1.5,1.2,2.7,2.7,2.7h6.9
		v1.2H15v-1.2h3.2c1.5,0,2.7-1.2,2.7-2.7v-7l0.5,0.6l0.5-0.5c1-1,1.6-2.4,1.6-3.9C23.5,5.7,23,4.3,21.9,3.3z M19.6,18
		c0,0.8-0.6,1.4-1.4,1.4H15v-0.6c0.9-0.1,1.6-0.8,1.6-1.7v-1.9h-4.5v1.9c0,0.9,0.7,1.6,1.6,1.7v0.6H6.8c-0.8,0-1.4-0.6-1.4-1.4v-0.7
		h0.7c0.7,0,1.2-0.4,1.4-1l2.7,1v-6.4l-2.7,1c-0.2-0.6-0.8-1.1-1.4-1.1H4.6v-1c0-0.1,0.1-0.2,0.2-0.2h1.8V8.3H5.4V7
		c0-0.8,0.6-1.4,1.4-1.4h8.7L17,7.1c-0.1,0.1-0.2,0.3-0.2,0.5c0,0.4,0.3,0.8,0.8,0.8c0.2,0,0.3-0.1,0.5-0.2l1.5,1.5V18z M14.9,17.5
		h-1.1c-0.2,0-0.4-0.2-0.4-0.4v-0.6h1.8v0.6C15.2,17.4,15.1,17.5,14.9,17.5z M9,12.7v2.7l-1.3-0.5v-1.7L9,12.7z M21.4,9.7l-5.9-5.9
		C16.2,3.2,17.1,3,18,3c1.1,0,2.2,0.4,3,1.2c0.8,0.8,1.2,1.8,1.2,3C22.2,8.1,21.9,9,21.4,9.7z"/>
	<rect x="15.1" y="8.5" transform="matrix(0.7071 -0.7071 0.7071 0.7071 -1.7878 14.0155)" class="st0" width="1.7" height="1.3"/>
	<rect x="14.2" y="6.6" class="st0" width="1.8" height="1.3"/>
	<rect x="17.2" y="9.3" class="st0" width="1.3" height="1.8"/>
	<path class="st0" d="M14.9,10.8h-1.1c-0.9,0-1.7,0.8-1.7,1.7v2.2h1.3v-2.2c0-0.2,0.2-0.4,0.4-0.4h1.1c0.2,0,0.4,0.2,0.4,0.4v2.2
		h1.3v-2.2C16.6,11.5,15.8,10.8,14.9,10.8z"/>
</g>
</svg>
